<mxfile host="app.diagrams.net" modified="2024-01-06T23:32:10.621Z" agent="Mozilla/5.0 (Windows NT 10.0; Win64; x64; rv:109.0) Gecko/20100101 Firefox/118.0" etag="imYAQCDAJNDE57Xg5we0" version="22.1.16" type="device">
  <diagram name="第 1 页" id="vkSlh5MJX5IwoUNqgVl4">
    <mxGraphModel dx="2868" dy="1564" grid="0" gridSize="10" guides="1" tooltips="1" connect="1" arrows="1" fold="1" page="1" pageScale="1" pageWidth="827" pageHeight="1169" math="0" shadow="0">
      <root>
        <mxCell id="0" />
        <mxCell id="1" parent="0" />
        <mxCell id="tFzAAHaU8S95K_Trg-Dz-750" value="" style="rounded=0;whiteSpace=wrap;html=1;fillColor=none;fontColor=#ffffff;strokeColor=#3333FF;strokeWidth=7;" vertex="1" parent="1">
          <mxGeometry x="1321" y="921" width="196" height="195" as="geometry" />
        </mxCell>
        <mxCell id="tFzAAHaU8S95K_Trg-Dz-698" value="" style="rounded=0;whiteSpace=wrap;html=1;fillColor=none;fontColor=#ffffff;strokeColor=#B20000;strokeWidth=7;" vertex="1" parent="1">
          <mxGeometry x="1030" y="921.5" width="196" height="195" as="geometry" />
        </mxCell>
        <mxCell id="tFzAAHaU8S95K_Trg-Dz-34" value="&lt;font style=&quot;font-size: 22px;&quot;&gt;0&lt;/font&gt;" style="whiteSpace=wrap;html=1;aspect=fixed;" vertex="1" parent="1">
          <mxGeometry x="65" y="49" width="39" height="39" as="geometry" />
        </mxCell>
        <mxCell id="tFzAAHaU8S95K_Trg-Dz-35" value="&lt;font style=&quot;font-size: 22px;&quot;&gt;0&lt;/font&gt;" style="whiteSpace=wrap;html=1;aspect=fixed;" vertex="1" parent="1">
          <mxGeometry x="104" y="49" width="39" height="39" as="geometry" />
        </mxCell>
        <mxCell id="tFzAAHaU8S95K_Trg-Dz-37" value="&lt;font style=&quot;font-size: 22px;&quot;&gt;0&lt;/font&gt;" style="whiteSpace=wrap;html=1;aspect=fixed;" vertex="1" parent="1">
          <mxGeometry x="143" y="49" width="39" height="39" as="geometry" />
        </mxCell>
        <mxCell id="tFzAAHaU8S95K_Trg-Dz-38" value="&lt;font style=&quot;font-size: 22px;&quot;&gt;0&lt;/font&gt;" style="whiteSpace=wrap;html=1;aspect=fixed;" vertex="1" parent="1">
          <mxGeometry x="182" y="49" width="39" height="39" as="geometry" />
        </mxCell>
        <mxCell id="tFzAAHaU8S95K_Trg-Dz-39" value="&lt;font style=&quot;font-size: 22px;&quot;&gt;0&lt;/font&gt;" style="whiteSpace=wrap;html=1;aspect=fixed;" vertex="1" parent="1">
          <mxGeometry x="65" y="88" width="39" height="39" as="geometry" />
        </mxCell>
        <mxCell id="tFzAAHaU8S95K_Trg-Dz-40" value="&lt;font style=&quot;font-size: 22px;&quot;&gt;0&lt;/font&gt;" style="whiteSpace=wrap;html=1;aspect=fixed;" vertex="1" parent="1">
          <mxGeometry x="104" y="88" width="39" height="39" as="geometry" />
        </mxCell>
        <mxCell id="tFzAAHaU8S95K_Trg-Dz-41" value="&lt;font style=&quot;font-size: 22px;&quot;&gt;0&lt;/font&gt;" style="whiteSpace=wrap;html=1;aspect=fixed;fillColor=#e51400;strokeColor=#B20000;fontColor=#ffffff;" vertex="1" parent="1">
          <mxGeometry x="143" y="88" width="39" height="39" as="geometry" />
        </mxCell>
        <mxCell id="tFzAAHaU8S95K_Trg-Dz-84" style="edgeStyle=orthogonalEdgeStyle;rounded=0;orthogonalLoop=1;jettySize=auto;html=1;exitX=1;exitY=1;exitDx=0;exitDy=0;entryX=0;entryY=0;entryDx=0;entryDy=0;" edge="1" parent="1" source="tFzAAHaU8S95K_Trg-Dz-42" target="tFzAAHaU8S95K_Trg-Dz-132">
          <mxGeometry relative="1" as="geometry">
            <mxPoint x="283" y="127" as="targetPoint" />
            <Array as="points">
              <mxPoint x="267" y="127" />
              <mxPoint x="267" y="127" />
            </Array>
          </mxGeometry>
        </mxCell>
        <mxCell id="tFzAAHaU8S95K_Trg-Dz-42" value="&lt;font style=&quot;font-size: 22px;&quot;&gt;0&lt;/font&gt;" style="whiteSpace=wrap;html=1;aspect=fixed;" vertex="1" parent="1">
          <mxGeometry x="182" y="88" width="39" height="39" as="geometry" />
        </mxCell>
        <mxCell id="tFzAAHaU8S95K_Trg-Dz-43" value="&lt;font style=&quot;font-size: 22px;&quot;&gt;0&lt;/font&gt;" style="whiteSpace=wrap;html=1;aspect=fixed;" vertex="1" parent="1">
          <mxGeometry x="65" y="127" width="39" height="39" as="geometry" />
        </mxCell>
        <mxCell id="tFzAAHaU8S95K_Trg-Dz-44" value="&lt;font style=&quot;font-size: 22px;&quot;&gt;0&lt;/font&gt;" style="whiteSpace=wrap;html=1;aspect=fixed;fillColor=#1ba1e2;fontColor=#ffffff;strokeColor=#006EAF;" vertex="1" parent="1">
          <mxGeometry x="104" y="127" width="39" height="39" as="geometry" />
        </mxCell>
        <mxCell id="tFzAAHaU8S95K_Trg-Dz-45" value="&lt;font style=&quot;font-size: 22px;&quot;&gt;0&lt;/font&gt;" style="whiteSpace=wrap;html=1;aspect=fixed;" vertex="1" parent="1">
          <mxGeometry x="143" y="127" width="39" height="39" as="geometry" />
        </mxCell>
        <mxCell id="tFzAAHaU8S95K_Trg-Dz-46" value="&lt;font style=&quot;font-size: 22px;&quot;&gt;0&lt;/font&gt;" style="whiteSpace=wrap;html=1;aspect=fixed;" vertex="1" parent="1">
          <mxGeometry x="182" y="127" width="39" height="39" as="geometry" />
        </mxCell>
        <mxCell id="tFzAAHaU8S95K_Trg-Dz-47" value="&lt;font style=&quot;font-size: 22px;&quot;&gt;0&lt;/font&gt;" style="whiteSpace=wrap;html=1;aspect=fixed;fillColor=#e51400;fontColor=#ffffff;strokeColor=#B20000;" vertex="1" parent="1">
          <mxGeometry x="65" y="166" width="39" height="39" as="geometry" />
        </mxCell>
        <mxCell id="tFzAAHaU8S95K_Trg-Dz-48" value="&lt;font style=&quot;font-size: 22px;&quot;&gt;0&lt;/font&gt;" style="whiteSpace=wrap;html=1;aspect=fixed;" vertex="1" parent="1">
          <mxGeometry x="104" y="166" width="39" height="39" as="geometry" />
        </mxCell>
        <mxCell id="tFzAAHaU8S95K_Trg-Dz-49" value="&lt;font style=&quot;font-size: 22px;&quot;&gt;0&lt;/font&gt;" style="whiteSpace=wrap;html=1;aspect=fixed;" vertex="1" parent="1">
          <mxGeometry x="143" y="166" width="39" height="39" as="geometry" />
        </mxCell>
        <mxCell id="tFzAAHaU8S95K_Trg-Dz-50" value="&lt;font style=&quot;font-size: 22px;&quot;&gt;0&lt;/font&gt;" style="whiteSpace=wrap;html=1;aspect=fixed;" vertex="1" parent="1">
          <mxGeometry x="182" y="166" width="39" height="39" as="geometry" />
        </mxCell>
        <mxCell id="tFzAAHaU8S95K_Trg-Dz-85" value="&lt;div&gt;&lt;font style=&quot;font-size: 20px;&quot;&gt;Th1: &lt;font style=&quot;font-size: 20px;&quot;&gt;[4, 1]&lt;/font&gt;&lt;br&gt;&lt;/font&gt;&lt;/div&gt;&lt;div&gt;&lt;font style=&quot;font-size: 20px;&quot;&gt;Th2: [2, 3]&lt;br&gt;&lt;/font&gt;&lt;/div&gt;" style="text;strokeColor=none;align=center;fillColor=none;html=1;verticalAlign=middle;whiteSpace=wrap;rounded=0;" vertex="1" parent="1">
          <mxGeometry x="81" y="225" width="126" height="30" as="geometry" />
        </mxCell>
        <mxCell id="tFzAAHaU8S95K_Trg-Dz-122" value="" style="endArrow=none;html=1;rounded=0;fillColor=#60a917;strokeColor=#2D7600;strokeWidth=9;entryX=0;entryY=0;entryDx=0;entryDy=0;exitX=0;exitY=1;exitDx=0;exitDy=0;" edge="1" parent="1" source="tFzAAHaU8S95K_Trg-Dz-49" target="tFzAAHaU8S95K_Trg-Dz-37">
          <mxGeometry width="50" height="50" relative="1" as="geometry">
            <mxPoint x="147" y="243" as="sourcePoint" />
            <mxPoint x="142" y="22" as="targetPoint" />
          </mxGeometry>
        </mxCell>
        <mxCell id="tFzAAHaU8S95K_Trg-Dz-124" value="&lt;font style=&quot;font-size: 22px;&quot;&gt;0&lt;/font&gt;" style="whiteSpace=wrap;html=1;aspect=fixed;" vertex="1" parent="1">
          <mxGeometry x="287" y="49" width="39" height="39" as="geometry" />
        </mxCell>
        <mxCell id="tFzAAHaU8S95K_Trg-Dz-125" value="&lt;font style=&quot;font-size: 22px;&quot;&gt;0&lt;/font&gt;" style="whiteSpace=wrap;html=1;aspect=fixed;" vertex="1" parent="1">
          <mxGeometry x="326" y="49" width="39" height="39" as="geometry" />
        </mxCell>
        <mxCell id="tFzAAHaU8S95K_Trg-Dz-126" value="&lt;font style=&quot;font-size: 22px;&quot;&gt;0&lt;/font&gt;" style="whiteSpace=wrap;html=1;aspect=fixed;" vertex="1" parent="1">
          <mxGeometry x="365" y="49" width="39" height="39" as="geometry" />
        </mxCell>
        <mxCell id="tFzAAHaU8S95K_Trg-Dz-127" value="&lt;font style=&quot;font-size: 22px;&quot;&gt;0&lt;/font&gt;" style="whiteSpace=wrap;html=1;aspect=fixed;" vertex="1" parent="1">
          <mxGeometry x="404" y="49" width="39" height="39" as="geometry" />
        </mxCell>
        <mxCell id="tFzAAHaU8S95K_Trg-Dz-128" value="&lt;font style=&quot;font-size: 22px;&quot;&gt;0&lt;/font&gt;" style="whiteSpace=wrap;html=1;aspect=fixed;" vertex="1" parent="1">
          <mxGeometry x="287" y="88" width="39" height="39" as="geometry" />
        </mxCell>
        <mxCell id="tFzAAHaU8S95K_Trg-Dz-129" value="&lt;font style=&quot;font-size: 22px;&quot;&gt;0&lt;/font&gt;" style="whiteSpace=wrap;html=1;aspect=fixed;" vertex="1" parent="1">
          <mxGeometry x="326" y="88" width="39" height="39" as="geometry" />
        </mxCell>
        <mxCell id="tFzAAHaU8S95K_Trg-Dz-130" value="&lt;font style=&quot;font-size: 22px;&quot;&gt;1&lt;/font&gt;" style="whiteSpace=wrap;html=1;aspect=fixed;fillColor=#e51400;strokeColor=#B20000;fontColor=#ffffff;" vertex="1" parent="1">
          <mxGeometry x="365" y="88" width="39" height="39" as="geometry" />
        </mxCell>
        <mxCell id="tFzAAHaU8S95K_Trg-Dz-131" value="&lt;font style=&quot;font-size: 22px;&quot;&gt;0&lt;/font&gt;" style="whiteSpace=wrap;html=1;aspect=fixed;" vertex="1" parent="1">
          <mxGeometry x="404" y="88" width="39" height="39" as="geometry" />
        </mxCell>
        <mxCell id="tFzAAHaU8S95K_Trg-Dz-132" value="&lt;font style=&quot;font-size: 22px;&quot;&gt;0&lt;/font&gt;" style="whiteSpace=wrap;html=1;aspect=fixed;" vertex="1" parent="1">
          <mxGeometry x="287" y="127" width="39" height="39" as="geometry" />
        </mxCell>
        <mxCell id="tFzAAHaU8S95K_Trg-Dz-133" value="&lt;font style=&quot;font-size: 22px;&quot;&gt;0&lt;/font&gt;" style="whiteSpace=wrap;html=1;aspect=fixed;fillColor=#1ba1e2;fontColor=#ffffff;strokeColor=none;strokeWidth=1;" vertex="1" parent="1">
          <mxGeometry x="326" y="127" width="39" height="39" as="geometry" />
        </mxCell>
        <mxCell id="tFzAAHaU8S95K_Trg-Dz-134" value="&lt;font style=&quot;font-size: 22px;&quot;&gt;0&lt;/font&gt;" style="whiteSpace=wrap;html=1;aspect=fixed;" vertex="1" parent="1">
          <mxGeometry x="365" y="127" width="39" height="39" as="geometry" />
        </mxCell>
        <mxCell id="tFzAAHaU8S95K_Trg-Dz-135" value="&lt;font style=&quot;font-size: 22px;&quot;&gt;0&lt;/font&gt;" style="whiteSpace=wrap;html=1;aspect=fixed;" vertex="1" parent="1">
          <mxGeometry x="404" y="127" width="39" height="39" as="geometry" />
        </mxCell>
        <mxCell id="tFzAAHaU8S95K_Trg-Dz-136" value="&lt;font style=&quot;font-size: 22px;&quot;&gt;1&lt;/font&gt;" style="whiteSpace=wrap;html=1;aspect=fixed;fillColor=#e51400;fontColor=#ffffff;strokeColor=#B20000;" vertex="1" parent="1">
          <mxGeometry x="287" y="166" width="39" height="39" as="geometry" />
        </mxCell>
        <mxCell id="tFzAAHaU8S95K_Trg-Dz-137" value="&lt;font style=&quot;font-size: 22px;&quot;&gt;0&lt;/font&gt;" style="whiteSpace=wrap;html=1;aspect=fixed;" vertex="1" parent="1">
          <mxGeometry x="326" y="166" width="39" height="39" as="geometry" />
        </mxCell>
        <mxCell id="tFzAAHaU8S95K_Trg-Dz-138" value="&lt;font style=&quot;font-size: 22px;&quot;&gt;0&lt;/font&gt;" style="whiteSpace=wrap;html=1;aspect=fixed;" vertex="1" parent="1">
          <mxGeometry x="365" y="166" width="39" height="39" as="geometry" />
        </mxCell>
        <mxCell id="tFzAAHaU8S95K_Trg-Dz-139" value="&lt;font style=&quot;font-size: 22px;&quot;&gt;0&lt;/font&gt;" style="whiteSpace=wrap;html=1;aspect=fixed;" vertex="1" parent="1">
          <mxGeometry x="404" y="166" width="39" height="39" as="geometry" />
        </mxCell>
        <mxCell id="tFzAAHaU8S95K_Trg-Dz-140" value="&lt;div&gt;&lt;font style=&quot;font-size: 20px;&quot;&gt;Th1: &lt;font style=&quot;font-size: 20px;&quot;&gt;[3, 2]&lt;/font&gt;&lt;br&gt;&lt;/font&gt;&lt;/div&gt;&lt;div&gt;&lt;font style=&quot;font-size: 20px;&quot;&gt;Th2: [3, 2]&lt;br&gt;&lt;/font&gt;&lt;/div&gt;" style="text;strokeColor=none;align=center;fillColor=none;html=1;verticalAlign=middle;whiteSpace=wrap;rounded=0;" vertex="1" parent="1">
          <mxGeometry x="303" y="225" width="126" height="30" as="geometry" />
        </mxCell>
        <mxCell id="tFzAAHaU8S95K_Trg-Dz-141" value="" style="endArrow=none;html=1;rounded=0;fillColor=#60a917;strokeColor=#2D7600;strokeWidth=9;entryX=0;entryY=0;entryDx=0;entryDy=0;exitX=0;exitY=1;exitDx=0;exitDy=0;" edge="1" parent="1" source="tFzAAHaU8S95K_Trg-Dz-138" target="tFzAAHaU8S95K_Trg-Dz-126">
          <mxGeometry width="50" height="50" relative="1" as="geometry">
            <mxPoint x="369" y="243" as="sourcePoint" />
            <mxPoint x="364" y="22" as="targetPoint" />
          </mxGeometry>
        </mxCell>
        <mxCell id="tFzAAHaU8S95K_Trg-Dz-142" value="" style="endArrow=classic;html=1;rounded=0;exitX=0.5;exitY=0;exitDx=0;exitDy=0;" edge="1" parent="1" source="tFzAAHaU8S95K_Trg-Dz-143">
          <mxGeometry width="50" height="50" relative="1" as="geometry">
            <mxPoint x="505" y="221" as="sourcePoint" />
            <mxPoint x="349" y="150.99775609756097" as="targetPoint" />
          </mxGeometry>
        </mxCell>
        <mxCell id="tFzAAHaU8S95K_Trg-Dz-143" value="&lt;font style=&quot;font-size: 22px;&quot;&gt;Race Condition&lt;/font&gt;" style="text;strokeColor=none;align=center;fillColor=none;html=1;verticalAlign=middle;whiteSpace=wrap;rounded=0;" vertex="1" parent="1">
          <mxGeometry x="482" y="225" width="168" height="30" as="geometry" />
        </mxCell>
        <mxCell id="tFzAAHaU8S95K_Trg-Dz-145" value="&lt;font style=&quot;font-size: 16px;&quot;&gt;Queue_Th1&lt;/font&gt;" style="rounded=0;whiteSpace=wrap;html=1;" vertex="1" parent="1">
          <mxGeometry x="269" y="433" width="91" height="58" as="geometry" />
        </mxCell>
        <mxCell id="tFzAAHaU8S95K_Trg-Dz-147" value="&lt;font style=&quot;font-size: 16px;&quot;&gt;Queue_Th1&lt;/font&gt;" style="rounded=0;whiteSpace=wrap;html=1;" vertex="1" parent="1">
          <mxGeometry x="395" y="433" width="91" height="58" as="geometry" />
        </mxCell>
        <mxCell id="tFzAAHaU8S95K_Trg-Dz-148" value="" style="endArrow=classic;html=1;rounded=0;exitX=0.5;exitY=1;exitDx=0;exitDy=0;entryX=0.5;entryY=0;entryDx=0;entryDy=0;" edge="1" parent="1" source="tFzAAHaU8S95K_Trg-Dz-149" target="tFzAAHaU8S95K_Trg-Dz-147">
          <mxGeometry width="50" height="50" relative="1" as="geometry">
            <mxPoint x="441" y="407" as="sourcePoint" />
            <mxPoint x="498" y="418" as="targetPoint" />
          </mxGeometry>
        </mxCell>
        <mxCell id="tFzAAHaU8S95K_Trg-Dz-149" value="Enqueue" style="text;strokeColor=none;align=center;fillColor=none;html=1;verticalAlign=middle;whiteSpace=wrap;rounded=0;" vertex="1" parent="1">
          <mxGeometry x="410.5" y="387" width="60" height="30" as="geometry" />
        </mxCell>
        <mxCell id="tFzAAHaU8S95K_Trg-Dz-150" value="&lt;font style=&quot;font-size: 20px;&quot;&gt;Master Queue&lt;br&gt;&lt;/font&gt;" style="rounded=0;whiteSpace=wrap;html=1;" vertex="1" parent="1">
          <mxGeometry x="110" y="544" width="117" height="58" as="geometry" />
        </mxCell>
        <mxCell id="tFzAAHaU8S95K_Trg-Dz-151" value="&lt;font style=&quot;font-size: 16px;&quot;&gt;Queue_Th1&lt;/font&gt;" style="rounded=0;whiteSpace=wrap;html=1;" vertex="1" parent="1">
          <mxGeometry x="519" y="433" width="91" height="58" as="geometry" />
        </mxCell>
        <mxCell id="tFzAAHaU8S95K_Trg-Dz-152" value="" style="endArrow=classic;html=1;rounded=0;exitX=0.5;exitY=0;exitDx=0;exitDy=0;entryX=0.5;entryY=1;entryDx=0;entryDy=0;" edge="1" parent="1" source="tFzAAHaU8S95K_Trg-Dz-151" target="tFzAAHaU8S95K_Trg-Dz-153">
          <mxGeometry width="50" height="50" relative="1" as="geometry">
            <mxPoint x="565" y="407" as="sourcePoint" />
            <mxPoint x="735" y="402" as="targetPoint" />
          </mxGeometry>
        </mxCell>
        <mxCell id="tFzAAHaU8S95K_Trg-Dz-153" value="Dequeue" style="text;strokeColor=none;align=center;fillColor=none;html=1;verticalAlign=middle;whiteSpace=wrap;rounded=0;" vertex="1" parent="1">
          <mxGeometry x="534.5" y="387" width="60" height="30" as="geometry" />
        </mxCell>
        <mxCell id="tFzAAHaU8S95K_Trg-Dz-154" value="&lt;font style=&quot;font-size: 20px;&quot;&gt;....&lt;/font&gt;" style="text;strokeColor=none;align=center;fillColor=none;html=1;verticalAlign=middle;whiteSpace=wrap;rounded=0;" vertex="1" parent="1">
          <mxGeometry x="619" y="447" width="60" height="30" as="geometry" />
        </mxCell>
        <mxCell id="tFzAAHaU8S95K_Trg-Dz-155" value="" style="endArrow=classic;html=1;rounded=0;exitX=0;exitY=1;exitDx=0;exitDy=0;" edge="1" parent="1" source="tFzAAHaU8S95K_Trg-Dz-145">
          <mxGeometry width="50" height="50" relative="1" as="geometry">
            <mxPoint x="496" y="478" as="sourcePoint" />
            <mxPoint x="655" y="491" as="targetPoint" />
          </mxGeometry>
        </mxCell>
        <mxCell id="tFzAAHaU8S95K_Trg-Dz-156" value="&lt;font style=&quot;font-size: 16px;&quot;&gt;Queue_Th2&lt;/font&gt;" style="rounded=0;whiteSpace=wrap;html=1;" vertex="1" parent="1">
          <mxGeometry x="269" y="544" width="91" height="58" as="geometry" />
        </mxCell>
        <mxCell id="tFzAAHaU8S95K_Trg-Dz-157" value="&lt;font style=&quot;font-size: 16px;&quot;&gt;Queue_Th2&lt;/font&gt;" style="rounded=0;whiteSpace=wrap;html=1;" vertex="1" parent="1">
          <mxGeometry x="395" y="544" width="91" height="58" as="geometry" />
        </mxCell>
        <mxCell id="tFzAAHaU8S95K_Trg-Dz-158" value="" style="endArrow=classic;html=1;rounded=0;exitX=0.5;exitY=1;exitDx=0;exitDy=0;entryX=0.5;entryY=0;entryDx=0;entryDy=0;" edge="1" parent="1" source="tFzAAHaU8S95K_Trg-Dz-159" target="tFzAAHaU8S95K_Trg-Dz-157">
          <mxGeometry width="50" height="50" relative="1" as="geometry">
            <mxPoint x="441" y="518" as="sourcePoint" />
            <mxPoint x="498" y="529" as="targetPoint" />
          </mxGeometry>
        </mxCell>
        <mxCell id="tFzAAHaU8S95K_Trg-Dz-159" value="Enqueue" style="text;strokeColor=none;align=center;fillColor=none;html=1;verticalAlign=middle;whiteSpace=wrap;rounded=0;" vertex="1" parent="1">
          <mxGeometry x="410.5" y="498" width="60" height="30" as="geometry" />
        </mxCell>
        <mxCell id="tFzAAHaU8S95K_Trg-Dz-160" value="&lt;font style=&quot;font-size: 16px;&quot;&gt;Queue_Th2&lt;/font&gt;" style="rounded=0;whiteSpace=wrap;html=1;" vertex="1" parent="1">
          <mxGeometry x="519" y="544" width="91" height="58" as="geometry" />
        </mxCell>
        <mxCell id="tFzAAHaU8S95K_Trg-Dz-161" value="" style="endArrow=classic;html=1;rounded=0;exitX=0.5;exitY=0;exitDx=0;exitDy=0;entryX=0.5;entryY=1;entryDx=0;entryDy=0;" edge="1" parent="1" source="tFzAAHaU8S95K_Trg-Dz-160" target="tFzAAHaU8S95K_Trg-Dz-162">
          <mxGeometry width="50" height="50" relative="1" as="geometry">
            <mxPoint x="565" y="518" as="sourcePoint" />
            <mxPoint x="735" y="513" as="targetPoint" />
          </mxGeometry>
        </mxCell>
        <mxCell id="tFzAAHaU8S95K_Trg-Dz-162" value="Dequeue" style="text;strokeColor=none;align=center;fillColor=none;html=1;verticalAlign=middle;whiteSpace=wrap;rounded=0;" vertex="1" parent="1">
          <mxGeometry x="534.5" y="498" width="60" height="30" as="geometry" />
        </mxCell>
        <mxCell id="tFzAAHaU8S95K_Trg-Dz-163" value="&lt;font style=&quot;font-size: 20px;&quot;&gt;....&lt;/font&gt;" style="text;strokeColor=none;align=center;fillColor=none;html=1;verticalAlign=middle;whiteSpace=wrap;rounded=0;" vertex="1" parent="1">
          <mxGeometry x="619" y="558" width="60" height="30" as="geometry" />
        </mxCell>
        <mxCell id="tFzAAHaU8S95K_Trg-Dz-164" value="" style="endArrow=classic;html=1;rounded=0;exitX=0;exitY=1;exitDx=0;exitDy=0;" edge="1" parent="1" source="tFzAAHaU8S95K_Trg-Dz-156">
          <mxGeometry width="50" height="50" relative="1" as="geometry">
            <mxPoint x="496" y="589" as="sourcePoint" />
            <mxPoint x="655" y="602" as="targetPoint" />
          </mxGeometry>
        </mxCell>
        <mxCell id="tFzAAHaU8S95K_Trg-Dz-165" value="" style="endArrow=classic;html=1;rounded=0;exitX=1;exitY=0.5;exitDx=0;exitDy=0;entryX=0;entryY=0.5;entryDx=0;entryDy=0;" edge="1" parent="1" source="tFzAAHaU8S95K_Trg-Dz-150" target="tFzAAHaU8S95K_Trg-Dz-145">
          <mxGeometry width="50" height="50" relative="1" as="geometry">
            <mxPoint x="496" y="478" as="sourcePoint" />
            <mxPoint x="546" y="428" as="targetPoint" />
          </mxGeometry>
        </mxCell>
        <mxCell id="tFzAAHaU8S95K_Trg-Dz-166" value="" style="endArrow=classic;html=1;rounded=0;exitX=1;exitY=0.5;exitDx=0;exitDy=0;entryX=0;entryY=0.5;entryDx=0;entryDy=0;" edge="1" parent="1" source="tFzAAHaU8S95K_Trg-Dz-150" target="tFzAAHaU8S95K_Trg-Dz-156">
          <mxGeometry width="50" height="50" relative="1" as="geometry">
            <mxPoint x="237" y="583" as="sourcePoint" />
            <mxPoint x="279" y="472" as="targetPoint" />
          </mxGeometry>
        </mxCell>
        <mxCell id="tFzAAHaU8S95K_Trg-Dz-167" value="" style="endArrow=classic;html=1;rounded=0;exitX=1;exitY=0.5;exitDx=0;exitDy=0;" edge="1" parent="1" source="tFzAAHaU8S95K_Trg-Dz-150">
          <mxGeometry width="50" height="50" relative="1" as="geometry">
            <mxPoint x="237" y="583" as="sourcePoint" />
            <mxPoint x="261" y="648" as="targetPoint" />
          </mxGeometry>
        </mxCell>
        <mxCell id="tFzAAHaU8S95K_Trg-Dz-168" value="&lt;font style=&quot;font-size: 20px;&quot;&gt;....&lt;/font&gt;" style="text;strokeColor=none;align=center;fillColor=none;html=1;verticalAlign=middle;whiteSpace=wrap;rounded=0;" vertex="1" parent="1">
          <mxGeometry x="266" y="635" width="60" height="30" as="geometry" />
        </mxCell>
        <mxCell id="tFzAAHaU8S95K_Trg-Dz-169" value="&lt;font style=&quot;font-size: 20px;&quot;&gt;Shared Queue&lt;br&gt;&lt;/font&gt;" style="rounded=0;whiteSpace=wrap;html=1;" vertex="1" parent="1">
          <mxGeometry x="118" y="800" width="117" height="58" as="geometry" />
        </mxCell>
        <mxCell id="tFzAAHaU8S95K_Trg-Dz-170" value="Dequeue" style="text;strokeColor=none;align=center;fillColor=none;html=1;verticalAlign=middle;whiteSpace=wrap;rounded=0;" vertex="1" parent="1">
          <mxGeometry x="284.5" y="387" width="60" height="30" as="geometry" />
        </mxCell>
        <mxCell id="tFzAAHaU8S95K_Trg-Dz-171" value="" style="endArrow=classic;html=1;rounded=0;exitX=0.5;exitY=0;exitDx=0;exitDy=0;entryX=0.5;entryY=1;entryDx=0;entryDy=0;" edge="1" parent="1" source="tFzAAHaU8S95K_Trg-Dz-145" target="tFzAAHaU8S95K_Trg-Dz-170">
          <mxGeometry width="50" height="50" relative="1" as="geometry">
            <mxPoint x="451" y="427" as="sourcePoint" />
            <mxPoint x="381" y="446" as="targetPoint" />
          </mxGeometry>
        </mxCell>
        <mxCell id="tFzAAHaU8S95K_Trg-Dz-175" value="Dequeue" style="text;strokeColor=none;align=center;fillColor=none;html=1;verticalAlign=middle;whiteSpace=wrap;rounded=0;" vertex="1" parent="1">
          <mxGeometry x="284.5" y="498" width="60" height="30" as="geometry" />
        </mxCell>
        <mxCell id="tFzAAHaU8S95K_Trg-Dz-176" value="" style="endArrow=classic;html=1;rounded=0;exitX=0.5;exitY=0;exitDx=0;exitDy=0;entryX=0.5;entryY=1;entryDx=0;entryDy=0;" edge="1" parent="1" target="tFzAAHaU8S95K_Trg-Dz-175">
          <mxGeometry width="50" height="50" relative="1" as="geometry">
            <mxPoint x="315" y="544" as="sourcePoint" />
            <mxPoint x="381" y="557" as="targetPoint" />
          </mxGeometry>
        </mxCell>
        <mxCell id="tFzAAHaU8S95K_Trg-Dz-177" value="&lt;font style=&quot;font-size: 16px;&quot;&gt;Thread#1&lt;/font&gt;" style="rounded=0;whiteSpace=wrap;html=1;" vertex="1" parent="1">
          <mxGeometry x="303" y="730" width="79.5" height="42" as="geometry" />
        </mxCell>
        <mxCell id="tFzAAHaU8S95K_Trg-Dz-178" value="&lt;font style=&quot;font-size: 16px;&quot;&gt;Thread#2&lt;/font&gt;" style="rounded=0;whiteSpace=wrap;html=1;" vertex="1" parent="1">
          <mxGeometry x="303" y="808" width="79.5" height="42" as="geometry" />
        </mxCell>
        <mxCell id="tFzAAHaU8S95K_Trg-Dz-179" value="&lt;font style=&quot;font-size: 16px;&quot;&gt;Thread#3&lt;/font&gt;" style="rounded=0;whiteSpace=wrap;html=1;" vertex="1" parent="1">
          <mxGeometry x="303" y="889" width="79.5" height="42" as="geometry" />
        </mxCell>
        <mxCell id="tFzAAHaU8S95K_Trg-Dz-180" value="" style="endArrow=classic;html=1;rounded=0;exitX=1;exitY=0.5;exitDx=0;exitDy=0;entryX=0;entryY=0.5;entryDx=0;entryDy=0;" edge="1" parent="1" source="tFzAAHaU8S95K_Trg-Dz-169" target="tFzAAHaU8S95K_Trg-Dz-177">
          <mxGeometry width="50" height="50" relative="1" as="geometry">
            <mxPoint x="253" y="618" as="sourcePoint" />
            <mxPoint x="287" y="693" as="targetPoint" />
          </mxGeometry>
        </mxCell>
        <mxCell id="tFzAAHaU8S95K_Trg-Dz-181" value="" style="endArrow=classic;html=1;rounded=0;exitX=1;exitY=0.5;exitDx=0;exitDy=0;entryX=0;entryY=0.5;entryDx=0;entryDy=0;" edge="1" parent="1" source="tFzAAHaU8S95K_Trg-Dz-169" target="tFzAAHaU8S95K_Trg-Dz-178">
          <mxGeometry width="50" height="50" relative="1" as="geometry">
            <mxPoint x="253" y="831" as="sourcePoint" />
            <mxPoint x="295" y="767" as="targetPoint" />
          </mxGeometry>
        </mxCell>
        <mxCell id="tFzAAHaU8S95K_Trg-Dz-182" value="" style="endArrow=classic;html=1;rounded=0;exitX=1;exitY=0.5;exitDx=0;exitDy=0;entryX=0;entryY=0.5;entryDx=0;entryDy=0;" edge="1" parent="1" source="tFzAAHaU8S95K_Trg-Dz-169" target="tFzAAHaU8S95K_Trg-Dz-179">
          <mxGeometry width="50" height="50" relative="1" as="geometry">
            <mxPoint x="253" y="831" as="sourcePoint" />
            <mxPoint x="295" y="839" as="targetPoint" />
          </mxGeometry>
        </mxCell>
        <mxCell id="tFzAAHaU8S95K_Trg-Dz-183" value="Dequeue" style="text;strokeColor=none;align=center;fillColor=none;html=1;verticalAlign=middle;whiteSpace=wrap;rounded=0;" vertex="1" parent="1">
          <mxGeometry x="229" y="751" width="60" height="30" as="geometry" />
        </mxCell>
        <mxCell id="tFzAAHaU8S95K_Trg-Dz-184" value="Dequeue" style="text;strokeColor=none;align=center;fillColor=none;html=1;verticalAlign=middle;whiteSpace=wrap;rounded=0;" vertex="1" parent="1">
          <mxGeometry x="241" y="806" width="60" height="30" as="geometry" />
        </mxCell>
        <mxCell id="tFzAAHaU8S95K_Trg-Dz-185" value="Dequeue" style="text;strokeColor=none;align=center;fillColor=none;html=1;verticalAlign=middle;whiteSpace=wrap;rounded=0;" vertex="1" parent="1">
          <mxGeometry x="229" y="875" width="60" height="30" as="geometry" />
        </mxCell>
        <mxCell id="tFzAAHaU8S95K_Trg-Dz-186" value="" style="endArrow=none;html=1;rounded=0;exitX=1;exitY=1;exitDx=0;exitDy=0;entryX=1;entryY=0;entryDx=0;entryDy=0;strokeWidth=6;strokeColor=#FF3333;" edge="1" parent="1">
          <mxGeometry width="50" height="50" relative="1" as="geometry">
            <mxPoint x="382.5" y="931" as="sourcePoint" />
            <mxPoint x="382.5" y="730" as="targetPoint" />
          </mxGeometry>
        </mxCell>
        <mxCell id="tFzAAHaU8S95K_Trg-Dz-187" value="&lt;font color=&quot;#ff3333&quot; style=&quot;font-size: 16px;&quot;&gt;Barrier&lt;/font&gt;" style="text;strokeColor=none;align=center;fillColor=none;html=1;verticalAlign=middle;whiteSpace=wrap;rounded=0;" vertex="1" parent="1">
          <mxGeometry x="352" y="689" width="60" height="30" as="geometry" />
        </mxCell>
        <mxCell id="tFzAAHaU8S95K_Trg-Dz-188" value="&lt;font style=&quot;font-size: 20px;&quot;&gt;Shared Queue&lt;br&gt;&lt;/font&gt;" style="rounded=0;whiteSpace=wrap;html=1;" vertex="1" parent="1">
          <mxGeometry x="457" y="800" width="117" height="58" as="geometry" />
        </mxCell>
        <mxCell id="tFzAAHaU8S95K_Trg-Dz-189" value="&lt;font style=&quot;font-size: 20px;&quot;&gt;....&lt;/font&gt;" style="text;strokeColor=none;align=center;fillColor=none;html=1;verticalAlign=middle;whiteSpace=wrap;rounded=0;" vertex="1" parent="1">
          <mxGeometry x="312.75" y="946" width="60" height="30" as="geometry" />
        </mxCell>
        <mxCell id="tFzAAHaU8S95K_Trg-Dz-190" value="" style="endArrow=classic;html=1;rounded=0;entryX=0;entryY=0.5;entryDx=0;entryDy=0;exitX=1;exitY=0.5;exitDx=0;exitDy=0;" edge="1" parent="1" source="tFzAAHaU8S95K_Trg-Dz-177" target="tFzAAHaU8S95K_Trg-Dz-188">
          <mxGeometry width="50" height="50" relative="1" as="geometry">
            <mxPoint x="484" y="745" as="sourcePoint" />
            <mxPoint x="313" y="761" as="targetPoint" />
          </mxGeometry>
        </mxCell>
        <mxCell id="tFzAAHaU8S95K_Trg-Dz-191" value="" style="endArrow=classic;html=1;rounded=0;entryX=0;entryY=0.5;entryDx=0;entryDy=0;exitX=1;exitY=0.5;exitDx=0;exitDy=0;" edge="1" parent="1" source="tFzAAHaU8S95K_Trg-Dz-194" target="tFzAAHaU8S95K_Trg-Dz-188">
          <mxGeometry width="50" height="50" relative="1" as="geometry">
            <mxPoint x="393" y="761" as="sourcePoint" />
            <mxPoint x="464" y="839" as="targetPoint" />
          </mxGeometry>
        </mxCell>
        <mxCell id="tFzAAHaU8S95K_Trg-Dz-192" value="" style="endArrow=classic;html=1;rounded=0;exitX=1;exitY=0.5;exitDx=0;exitDy=0;entryX=0;entryY=0.5;entryDx=0;entryDy=0;" edge="1" parent="1" source="tFzAAHaU8S95K_Trg-Dz-179" target="tFzAAHaU8S95K_Trg-Dz-188">
          <mxGeometry width="50" height="50" relative="1" as="geometry">
            <mxPoint x="393" y="839" as="sourcePoint" />
            <mxPoint x="469" y="936" as="targetPoint" />
          </mxGeometry>
        </mxCell>
        <mxCell id="tFzAAHaU8S95K_Trg-Dz-193" value="Enqueue" style="text;strokeColor=none;align=center;fillColor=none;html=1;verticalAlign=middle;whiteSpace=wrap;rounded=0;" vertex="1" parent="1">
          <mxGeometry x="403" y="753" width="60" height="30" as="geometry" />
        </mxCell>
        <mxCell id="tFzAAHaU8S95K_Trg-Dz-195" value="" style="endArrow=classic;html=1;rounded=0;entryX=0;entryY=0.5;entryDx=0;entryDy=0;exitX=1;exitY=0.5;exitDx=0;exitDy=0;" edge="1" parent="1" source="tFzAAHaU8S95K_Trg-Dz-178" target="tFzAAHaU8S95K_Trg-Dz-194">
          <mxGeometry width="50" height="50" relative="1" as="geometry">
            <mxPoint x="383" y="829" as="sourcePoint" />
            <mxPoint x="457" y="829" as="targetPoint" />
          </mxGeometry>
        </mxCell>
        <mxCell id="tFzAAHaU8S95K_Trg-Dz-194" value="Enqueue" style="text;strokeColor=none;align=center;fillColor=none;html=1;verticalAlign=middle;whiteSpace=wrap;rounded=0;" vertex="1" parent="1">
          <mxGeometry x="382.5" y="806" width="60" height="30" as="geometry" />
        </mxCell>
        <mxCell id="tFzAAHaU8S95K_Trg-Dz-196" value="Enqueue" style="text;strokeColor=none;align=center;fillColor=none;html=1;verticalAlign=middle;whiteSpace=wrap;rounded=0;" vertex="1" parent="1">
          <mxGeometry x="403" y="875" width="60" height="30" as="geometry" />
        </mxCell>
        <mxCell id="tFzAAHaU8S95K_Trg-Dz-200" value="" style="endArrow=classic;html=1;rounded=0;exitX=1;exitY=0.5;exitDx=0;exitDy=0;entryX=0;entryY=0.5;entryDx=0;entryDy=0;" edge="1" parent="1">
          <mxGeometry width="50" height="50" relative="1" as="geometry">
            <mxPoint x="574" y="831" as="sourcePoint" />
            <mxPoint x="642" y="753" as="targetPoint" />
          </mxGeometry>
        </mxCell>
        <mxCell id="tFzAAHaU8S95K_Trg-Dz-201" value="" style="endArrow=classic;html=1;rounded=0;exitX=1;exitY=0.5;exitDx=0;exitDy=0;entryX=0;entryY=0.5;entryDx=0;entryDy=0;" edge="1" parent="1">
          <mxGeometry width="50" height="50" relative="1" as="geometry">
            <mxPoint x="574" y="831" as="sourcePoint" />
            <mxPoint x="642" y="831" as="targetPoint" />
          </mxGeometry>
        </mxCell>
        <mxCell id="tFzAAHaU8S95K_Trg-Dz-202" value="" style="endArrow=classic;html=1;rounded=0;exitX=1;exitY=0.5;exitDx=0;exitDy=0;entryX=0;entryY=0.5;entryDx=0;entryDy=0;" edge="1" parent="1">
          <mxGeometry width="50" height="50" relative="1" as="geometry">
            <mxPoint x="574" y="831" as="sourcePoint" />
            <mxPoint x="642" y="912" as="targetPoint" />
          </mxGeometry>
        </mxCell>
        <mxCell id="tFzAAHaU8S95K_Trg-Dz-206" value="&lt;font style=&quot;font-size: 20px;&quot;&gt;....&lt;/font&gt;" style="text;strokeColor=none;align=center;fillColor=none;html=1;verticalAlign=middle;whiteSpace=wrap;rounded=0;" vertex="1" parent="1">
          <mxGeometry x="650" y="814" width="60" height="30" as="geometry" />
        </mxCell>
        <mxCell id="tFzAAHaU8S95K_Trg-Dz-207" value="" style="rounded=0;whiteSpace=wrap;html=1;fillColor=none;strokeColor=none;" vertex="1" parent="1">
          <mxGeometry x="92" y="382" width="616" height="610" as="geometry" />
        </mxCell>
        <mxCell id="tFzAAHaU8S95K_Trg-Dz-209" value="188" style="whiteSpace=wrap;html=1;aspect=fixed;fontSize=16;fillColor=#fff2cc;strokeColor=#d6b656;" vertex="1" parent="1">
          <mxGeometry x="920" y="141" width="39" height="39" as="geometry" />
        </mxCell>
        <mxCell id="tFzAAHaU8S95K_Trg-Dz-226" value="187" style="whiteSpace=wrap;html=1;aspect=fixed;fontSize=16;fillColor=#1ba1e2;fontColor=#ffffff;strokeColor=#006EAF;" vertex="1" parent="1">
          <mxGeometry x="959" y="141" width="39" height="39" as="geometry" />
        </mxCell>
        <mxCell id="tFzAAHaU8S95K_Trg-Dz-227" value="186" style="whiteSpace=wrap;html=1;aspect=fixed;fontSize=16;fillColor=#1ba1e2;fontColor=#ffffff;strokeColor=#006EAF;" vertex="1" parent="1">
          <mxGeometry x="998" y="141" width="39" height="39" as="geometry" />
        </mxCell>
        <mxCell id="tFzAAHaU8S95K_Trg-Dz-228" value="&lt;div&gt;188&lt;/div&gt;" style="whiteSpace=wrap;html=1;aspect=fixed;fontSize=16;fillColor=#1ba1e2;fontColor=#ffffff;strokeColor=#006EAF;" vertex="1" parent="1">
          <mxGeometry x="1037" y="141" width="39" height="39" as="geometry" />
        </mxCell>
        <mxCell id="tFzAAHaU8S95K_Trg-Dz-229" value="0" style="whiteSpace=wrap;html=1;aspect=fixed;fontSize=16;fillColor=#fff2cc;strokeColor=#d6b656;" vertex="1" parent="1">
          <mxGeometry x="920" y="180" width="39" height="39" as="geometry" />
        </mxCell>
        <mxCell id="tFzAAHaU8S95K_Trg-Dz-230" value="0" style="whiteSpace=wrap;html=1;aspect=fixed;fontSize=16;" vertex="1" parent="1">
          <mxGeometry x="959" y="180" width="39" height="39" as="geometry" />
        </mxCell>
        <mxCell id="tFzAAHaU8S95K_Trg-Dz-231" value="0" style="whiteSpace=wrap;html=1;aspect=fixed;fontSize=16;" vertex="1" parent="1">
          <mxGeometry x="998" y="180" width="39" height="39" as="geometry" />
        </mxCell>
        <mxCell id="tFzAAHaU8S95K_Trg-Dz-232" value="166" style="whiteSpace=wrap;html=1;aspect=fixed;fontSize=16;" vertex="1" parent="1">
          <mxGeometry x="1037" y="180" width="39" height="39" as="geometry" />
        </mxCell>
        <mxCell id="tFzAAHaU8S95K_Trg-Dz-233" value="0" style="whiteSpace=wrap;html=1;aspect=fixed;fontSize=16;fillColor=#fff2cc;strokeColor=#d6b656;" vertex="1" parent="1">
          <mxGeometry x="920" y="217.5" width="39" height="39" as="geometry" />
        </mxCell>
        <mxCell id="tFzAAHaU8S95K_Trg-Dz-234" value="237" style="whiteSpace=wrap;html=1;aspect=fixed;fontSize=16;fillColor=#e51400;fontColor=#ffffff;strokeColor=#B20000;" vertex="1" parent="1">
          <mxGeometry x="959" y="217.5" width="39" height="39" as="geometry" />
        </mxCell>
        <mxCell id="tFzAAHaU8S95K_Trg-Dz-235" value="187" style="whiteSpace=wrap;html=1;aspect=fixed;fontSize=16;fillColor=#1ba1e2;fontColor=#ffffff;strokeColor=#006EAF;" vertex="1" parent="1">
          <mxGeometry x="998" y="217.5" width="39" height="39" as="geometry" />
        </mxCell>
        <mxCell id="tFzAAHaU8S95K_Trg-Dz-236" value="199" style="whiteSpace=wrap;html=1;aspect=fixed;fontSize=16;fillColor=#1ba1e2;fontColor=#ffffff;strokeColor=#006EAF;" vertex="1" parent="1">
          <mxGeometry x="1037" y="217.5" width="39" height="39" as="geometry" />
        </mxCell>
        <mxCell id="tFzAAHaU8S95K_Trg-Dz-237" value="0" style="whiteSpace=wrap;html=1;aspect=fixed;fontSize=16;fillColor=#fff2cc;strokeColor=#d6b656;" vertex="1" parent="1">
          <mxGeometry x="920" y="256.5" width="39" height="39" as="geometry" />
        </mxCell>
        <mxCell id="tFzAAHaU8S95K_Trg-Dz-238" value="122" style="whiteSpace=wrap;html=1;aspect=fixed;fontSize=16;fillColor=#fff2cc;strokeColor=#d6b656;" vertex="1" parent="1">
          <mxGeometry x="959" y="256.5" width="39" height="39" as="geometry" />
        </mxCell>
        <mxCell id="tFzAAHaU8S95K_Trg-Dz-239" value="125" style="whiteSpace=wrap;html=1;aspect=fixed;fontSize=16;fillColor=#fff2cc;strokeColor=#d6b656;" vertex="1" parent="1">
          <mxGeometry x="998" y="256.5" width="39" height="39" as="geometry" />
        </mxCell>
        <mxCell id="tFzAAHaU8S95K_Trg-Dz-240" value="143" style="whiteSpace=wrap;html=1;aspect=fixed;fontSize=16;fillColor=#fff2cc;strokeColor=#d6b656;" vertex="1" parent="1">
          <mxGeometry x="1037" y="256.5" width="39" height="39" as="geometry" />
        </mxCell>
        <mxCell id="tFzAAHaU8S95K_Trg-Dz-241" value="0" style="whiteSpace=wrap;html=1;aspect=fixed;fontSize=16;fillColor=#fff2cc;strokeColor=#d6b656;" vertex="1" parent="1">
          <mxGeometry x="920" y="102" width="39" height="39" as="geometry" />
        </mxCell>
        <mxCell id="tFzAAHaU8S95K_Trg-Dz-242" value="0" style="whiteSpace=wrap;html=1;aspect=fixed;fontSize=16;fillColor=#fff2cc;strokeColor=#d6b656;" vertex="1" parent="1">
          <mxGeometry x="959" y="102" width="39" height="39" as="geometry" />
        </mxCell>
        <mxCell id="tFzAAHaU8S95K_Trg-Dz-243" value="0" style="whiteSpace=wrap;html=1;aspect=fixed;fontSize=16;fillColor=#fff2cc;strokeColor=#d6b656;" vertex="1" parent="1">
          <mxGeometry x="998" y="102" width="39" height="39" as="geometry" />
        </mxCell>
        <mxCell id="tFzAAHaU8S95K_Trg-Dz-244" value="0" style="whiteSpace=wrap;html=1;aspect=fixed;fontSize=16;fillColor=#fff2cc;strokeColor=#d6b656;" vertex="1" parent="1">
          <mxGeometry x="1037" y="102" width="39" height="39" as="geometry" />
        </mxCell>
        <mxCell id="tFzAAHaU8S95K_Trg-Dz-250" value="199" style="whiteSpace=wrap;html=1;aspect=fixed;fontSize=16;fillColor=#fff2cc;strokeColor=#d6b656;" vertex="1" parent="1">
          <mxGeometry x="1076" y="141" width="39" height="39" as="geometry" />
        </mxCell>
        <mxCell id="tFzAAHaU8S95K_Trg-Dz-251" value="166" style="whiteSpace=wrap;html=1;aspect=fixed;fontSize=16;fillColor=#fff2cc;strokeColor=#d6b656;" vertex="1" parent="1">
          <mxGeometry x="1076" y="180" width="39" height="39" as="geometry" />
        </mxCell>
        <mxCell id="tFzAAHaU8S95K_Trg-Dz-252" value="199" style="whiteSpace=wrap;html=1;aspect=fixed;fontSize=16;fillColor=#fff2cc;strokeColor=#d6b656;" vertex="1" parent="1">
          <mxGeometry x="1076" y="217.5" width="39" height="39" as="geometry" />
        </mxCell>
        <mxCell id="tFzAAHaU8S95K_Trg-Dz-253" value="188" style="whiteSpace=wrap;html=1;aspect=fixed;fontSize=16;fillColor=#fff2cc;strokeColor=#d6b656;" vertex="1" parent="1">
          <mxGeometry x="1076" y="256.5" width="39" height="39" as="geometry" />
        </mxCell>
        <mxCell id="tFzAAHaU8S95K_Trg-Dz-254" value="78" style="whiteSpace=wrap;html=1;aspect=fixed;fontSize=16;fillColor=#fff2cc;strokeColor=#d6b656;" vertex="1" parent="1">
          <mxGeometry x="1076" y="102" width="39" height="39" as="geometry" />
        </mxCell>
        <mxCell id="tFzAAHaU8S95K_Trg-Dz-260" value="-1" style="whiteSpace=wrap;html=1;aspect=fixed;fontSize=16;fillColor=#fff2cc;strokeColor=#d6b656;" vertex="1" parent="1">
          <mxGeometry x="1215" y="141" width="39" height="39" as="geometry" />
        </mxCell>
        <mxCell id="tFzAAHaU8S95K_Trg-Dz-261" value="-1" style="whiteSpace=wrap;html=1;aspect=fixed;fontSize=16;fillColor=#1ba1e2;fontColor=#ffffff;strokeColor=#006EAF;" vertex="1" parent="1">
          <mxGeometry x="1254" y="141" width="39" height="39" as="geometry" />
        </mxCell>
        <mxCell id="tFzAAHaU8S95K_Trg-Dz-262" value="-1" style="whiteSpace=wrap;html=1;aspect=fixed;fontSize=16;fillColor=#1ba1e2;fontColor=#ffffff;strokeColor=#006EAF;" vertex="1" parent="1">
          <mxGeometry x="1293" y="141" width="39" height="39" as="geometry" />
        </mxCell>
        <mxCell id="tFzAAHaU8S95K_Trg-Dz-263" value="-1" style="whiteSpace=wrap;html=1;aspect=fixed;fontSize=16;fillColor=#1ba1e2;fontColor=#ffffff;strokeColor=#006EAF;" vertex="1" parent="1">
          <mxGeometry x="1332" y="141" width="39" height="39" as="geometry" />
        </mxCell>
        <mxCell id="tFzAAHaU8S95K_Trg-Dz-264" value="0" style="whiteSpace=wrap;html=1;aspect=fixed;fontSize=16;fillColor=#fff2cc;strokeColor=#d6b656;" vertex="1" parent="1">
          <mxGeometry x="1215" y="180" width="39" height="39" as="geometry" />
        </mxCell>
        <mxCell id="tFzAAHaU8S95K_Trg-Dz-265" value="0" style="whiteSpace=wrap;html=1;aspect=fixed;fontSize=16;" vertex="1" parent="1">
          <mxGeometry x="1254" y="180" width="39" height="39" as="geometry" />
        </mxCell>
        <mxCell id="tFzAAHaU8S95K_Trg-Dz-266" value="0" style="whiteSpace=wrap;html=1;aspect=fixed;fontSize=16;" vertex="1" parent="1">
          <mxGeometry x="1293" y="180" width="39" height="39" as="geometry" />
        </mxCell>
        <mxCell id="tFzAAHaU8S95K_Trg-Dz-267" value="0" style="whiteSpace=wrap;html=1;aspect=fixed;fontSize=16;" vertex="1" parent="1">
          <mxGeometry x="1332" y="180" width="39" height="39" as="geometry" />
        </mxCell>
        <mxCell id="tFzAAHaU8S95K_Trg-Dz-268" value="0" style="whiteSpace=wrap;html=1;aspect=fixed;fontSize=16;fillColor=#fff2cc;strokeColor=#d6b656;" vertex="1" parent="1">
          <mxGeometry x="1215" y="217.5" width="39" height="39" as="geometry" />
        </mxCell>
        <mxCell id="tFzAAHaU8S95K_Trg-Dz-269" value="-2" style="whiteSpace=wrap;html=1;aspect=fixed;fontSize=16;fillColor=#e51400;fontColor=#ffffff;strokeColor=#B20000;" vertex="1" parent="1">
          <mxGeometry x="1254" y="217.5" width="39" height="39" as="geometry" />
        </mxCell>
        <mxCell id="tFzAAHaU8S95K_Trg-Dz-270" value="-1" style="whiteSpace=wrap;html=1;aspect=fixed;fontSize=16;fillColor=#1ba1e2;fontColor=#ffffff;strokeColor=#006EAF;" vertex="1" parent="1">
          <mxGeometry x="1293" y="217.5" width="39" height="39" as="geometry" />
        </mxCell>
        <mxCell id="tFzAAHaU8S95K_Trg-Dz-271" value="-1" style="whiteSpace=wrap;html=1;aspect=fixed;fontSize=16;fillColor=#1ba1e2;fontColor=#ffffff;strokeColor=#006EAF;" vertex="1" parent="1">
          <mxGeometry x="1332" y="217.5" width="39" height="39" as="geometry" />
        </mxCell>
        <mxCell id="tFzAAHaU8S95K_Trg-Dz-272" value="0" style="whiteSpace=wrap;html=1;aspect=fixed;fontSize=16;fillColor=#fff2cc;strokeColor=#d6b656;" vertex="1" parent="1">
          <mxGeometry x="1215" y="256.5" width="39" height="39" as="geometry" />
        </mxCell>
        <mxCell id="tFzAAHaU8S95K_Trg-Dz-273" value="0" style="whiteSpace=wrap;html=1;aspect=fixed;fontSize=16;fillColor=#fff2cc;strokeColor=#d6b656;" vertex="1" parent="1">
          <mxGeometry x="1254" y="256.5" width="39" height="39" as="geometry" />
        </mxCell>
        <mxCell id="tFzAAHaU8S95K_Trg-Dz-274" value="0" style="whiteSpace=wrap;html=1;aspect=fixed;fontSize=16;fillColor=#fff2cc;strokeColor=#d6b656;" vertex="1" parent="1">
          <mxGeometry x="1293" y="256.5" width="39" height="39" as="geometry" />
        </mxCell>
        <mxCell id="tFzAAHaU8S95K_Trg-Dz-275" value="0" style="whiteSpace=wrap;html=1;aspect=fixed;fontSize=16;fillColor=#fff2cc;strokeColor=#d6b656;" vertex="1" parent="1">
          <mxGeometry x="1332" y="256.5" width="39" height="39" as="geometry" />
        </mxCell>
        <mxCell id="tFzAAHaU8S95K_Trg-Dz-276" value="0" style="whiteSpace=wrap;html=1;aspect=fixed;fontSize=16;fillColor=#fff2cc;strokeColor=#d6b656;" vertex="1" parent="1">
          <mxGeometry x="1215" y="102" width="39" height="39" as="geometry" />
        </mxCell>
        <mxCell id="tFzAAHaU8S95K_Trg-Dz-277" value="0" style="whiteSpace=wrap;html=1;aspect=fixed;fontSize=16;fillColor=#fff2cc;strokeColor=#d6b656;" vertex="1" parent="1">
          <mxGeometry x="1254" y="102" width="39" height="39" as="geometry" />
        </mxCell>
        <mxCell id="tFzAAHaU8S95K_Trg-Dz-278" value="0" style="whiteSpace=wrap;html=1;aspect=fixed;fontSize=16;fillColor=#fff2cc;strokeColor=#d6b656;" vertex="1" parent="1">
          <mxGeometry x="1293" y="102" width="39" height="39" as="geometry" />
        </mxCell>
        <mxCell id="tFzAAHaU8S95K_Trg-Dz-279" value="0" style="whiteSpace=wrap;html=1;aspect=fixed;fontSize=16;fillColor=#fff2cc;strokeColor=#d6b656;" vertex="1" parent="1">
          <mxGeometry x="1332" y="102" width="39" height="39" as="geometry" />
        </mxCell>
        <mxCell id="tFzAAHaU8S95K_Trg-Dz-280" value="-1" style="whiteSpace=wrap;html=1;aspect=fixed;fontSize=16;fillColor=#fff2cc;strokeColor=#d6b656;" vertex="1" parent="1">
          <mxGeometry x="1371" y="141" width="39" height="39" as="geometry" />
        </mxCell>
        <mxCell id="tFzAAHaU8S95K_Trg-Dz-281" value="0" style="whiteSpace=wrap;html=1;aspect=fixed;fontSize=16;fillColor=#fff2cc;strokeColor=#d6b656;" vertex="1" parent="1">
          <mxGeometry x="1371" y="180" width="39" height="39" as="geometry" />
        </mxCell>
        <mxCell id="tFzAAHaU8S95K_Trg-Dz-282" value="-1" style="whiteSpace=wrap;html=1;aspect=fixed;fontSize=16;fillColor=#fff2cc;strokeColor=#d6b656;" vertex="1" parent="1">
          <mxGeometry x="1371" y="217.5" width="39" height="39" as="geometry" />
        </mxCell>
        <mxCell id="tFzAAHaU8S95K_Trg-Dz-283" value="-1" style="whiteSpace=wrap;html=1;aspect=fixed;fontSize=16;fillColor=#fff2cc;strokeColor=#d6b656;" vertex="1" parent="1">
          <mxGeometry x="1371" y="256.5" width="39" height="39" as="geometry" />
        </mxCell>
        <mxCell id="tFzAAHaU8S95K_Trg-Dz-284" value="0" style="whiteSpace=wrap;html=1;aspect=fixed;fontSize=16;fillColor=#fff2cc;strokeColor=#d6b656;" vertex="1" parent="1">
          <mxGeometry x="1371" y="102" width="39" height="39" as="geometry" />
        </mxCell>
        <mxCell id="tFzAAHaU8S95K_Trg-Dz-285" value="" style="endArrow=classic;html=1;rounded=0;exitX=1;exitY=0.5;exitDx=0;exitDy=0;entryX=0;entryY=0.5;entryDx=0;entryDy=0;" edge="1" parent="1" source="tFzAAHaU8S95K_Trg-Dz-251" target="tFzAAHaU8S95K_Trg-Dz-264">
          <mxGeometry width="50" height="50" relative="1" as="geometry">
            <mxPoint x="1125" y="274" as="sourcePoint" />
            <mxPoint x="1175" y="224" as="targetPoint" />
          </mxGeometry>
        </mxCell>
        <mxCell id="tFzAAHaU8S95K_Trg-Dz-286" value="-1" style="whiteSpace=wrap;html=1;aspect=fixed;fontSize=16;fillColor=#fff2cc;strokeColor=#d6b656;" vertex="1" parent="1">
          <mxGeometry x="920" y="389.5" width="39" height="39" as="geometry" />
        </mxCell>
        <mxCell id="tFzAAHaU8S95K_Trg-Dz-287" value="-1" style="whiteSpace=wrap;html=1;aspect=fixed;fontSize=16;fillColor=#1ba1e2;fontColor=#ffffff;strokeColor=#006EAF;" vertex="1" parent="1">
          <mxGeometry x="959" y="389.5" width="39" height="39" as="geometry" />
        </mxCell>
        <mxCell id="tFzAAHaU8S95K_Trg-Dz-288" value="-1" style="whiteSpace=wrap;html=1;aspect=fixed;fontSize=16;fillColor=#1ba1e2;fontColor=#ffffff;strokeColor=#006EAF;" vertex="1" parent="1">
          <mxGeometry x="998" y="389.5" width="39" height="39" as="geometry" />
        </mxCell>
        <mxCell id="tFzAAHaU8S95K_Trg-Dz-289" value="-1" style="whiteSpace=wrap;html=1;aspect=fixed;fontSize=16;fillColor=#1ba1e2;fontColor=#ffffff;strokeColor=#006EAF;" vertex="1" parent="1">
          <mxGeometry x="1037" y="389.5" width="39" height="39" as="geometry" />
        </mxCell>
        <mxCell id="tFzAAHaU8S95K_Trg-Dz-290" value="0" style="whiteSpace=wrap;html=1;aspect=fixed;fontSize=16;fillColor=#fff2cc;strokeColor=#d6b656;" vertex="1" parent="1">
          <mxGeometry x="920" y="428.5" width="39" height="39" as="geometry" />
        </mxCell>
        <mxCell id="tFzAAHaU8S95K_Trg-Dz-291" value="0" style="whiteSpace=wrap;html=1;aspect=fixed;fontSize=16;" vertex="1" parent="1">
          <mxGeometry x="959" y="428.5" width="39" height="39" as="geometry" />
        </mxCell>
        <mxCell id="tFzAAHaU8S95K_Trg-Dz-292" value="0" style="whiteSpace=wrap;html=1;aspect=fixed;fontSize=16;" vertex="1" parent="1">
          <mxGeometry x="998" y="428.5" width="39" height="39" as="geometry" />
        </mxCell>
        <mxCell id="tFzAAHaU8S95K_Trg-Dz-293" value="0" style="whiteSpace=wrap;html=1;aspect=fixed;fontSize=16;" vertex="1" parent="1">
          <mxGeometry x="1037" y="428.5" width="39" height="39" as="geometry" />
        </mxCell>
        <mxCell id="tFzAAHaU8S95K_Trg-Dz-294" value="0" style="whiteSpace=wrap;html=1;aspect=fixed;fontSize=16;fillColor=#fff2cc;strokeColor=#d6b656;" vertex="1" parent="1">
          <mxGeometry x="920" y="466" width="39" height="39" as="geometry" />
        </mxCell>
        <mxCell id="tFzAAHaU8S95K_Trg-Dz-295" value="-2" style="whiteSpace=wrap;html=1;aspect=fixed;fontSize=16;fillColor=#e51400;fontColor=#ffffff;strokeColor=#B20000;" vertex="1" parent="1">
          <mxGeometry x="959" y="466" width="39" height="39" as="geometry" />
        </mxCell>
        <mxCell id="tFzAAHaU8S95K_Trg-Dz-296" value="-1" style="whiteSpace=wrap;html=1;aspect=fixed;fontSize=16;fillColor=#1ba1e2;fontColor=#ffffff;strokeColor=#006EAF;" vertex="1" parent="1">
          <mxGeometry x="998" y="466" width="39" height="39" as="geometry" />
        </mxCell>
        <mxCell id="tFzAAHaU8S95K_Trg-Dz-297" value="-1" style="whiteSpace=wrap;html=1;aspect=fixed;fontSize=16;fillColor=#1ba1e2;fontColor=#ffffff;strokeColor=#006EAF;" vertex="1" parent="1">
          <mxGeometry x="1037" y="466" width="39" height="39" as="geometry" />
        </mxCell>
        <mxCell id="tFzAAHaU8S95K_Trg-Dz-298" value="0" style="whiteSpace=wrap;html=1;aspect=fixed;fontSize=16;fillColor=#fff2cc;strokeColor=#d6b656;" vertex="1" parent="1">
          <mxGeometry x="920" y="505" width="39" height="39" as="geometry" />
        </mxCell>
        <mxCell id="tFzAAHaU8S95K_Trg-Dz-299" value="0" style="whiteSpace=wrap;html=1;aspect=fixed;fontSize=16;fillColor=#fff2cc;strokeColor=#d6b656;" vertex="1" parent="1">
          <mxGeometry x="959" y="505" width="39" height="39" as="geometry" />
        </mxCell>
        <mxCell id="tFzAAHaU8S95K_Trg-Dz-300" value="0" style="whiteSpace=wrap;html=1;aspect=fixed;fontSize=16;fillColor=#fff2cc;strokeColor=#d6b656;" vertex="1" parent="1">
          <mxGeometry x="998" y="505" width="39" height="39" as="geometry" />
        </mxCell>
        <mxCell id="tFzAAHaU8S95K_Trg-Dz-301" value="0" style="whiteSpace=wrap;html=1;aspect=fixed;fontSize=16;fillColor=#fff2cc;strokeColor=#d6b656;" vertex="1" parent="1">
          <mxGeometry x="1037" y="505" width="39" height="39" as="geometry" />
        </mxCell>
        <mxCell id="tFzAAHaU8S95K_Trg-Dz-302" value="0" style="whiteSpace=wrap;html=1;aspect=fixed;fontSize=16;fillColor=#fff2cc;strokeColor=#d6b656;" vertex="1" parent="1">
          <mxGeometry x="920" y="350.5" width="39" height="39" as="geometry" />
        </mxCell>
        <mxCell id="tFzAAHaU8S95K_Trg-Dz-303" value="0" style="whiteSpace=wrap;html=1;aspect=fixed;fontSize=16;fillColor=#fff2cc;strokeColor=#d6b656;" vertex="1" parent="1">
          <mxGeometry x="959" y="350.5" width="39" height="39" as="geometry" />
        </mxCell>
        <mxCell id="tFzAAHaU8S95K_Trg-Dz-304" value="0" style="whiteSpace=wrap;html=1;aspect=fixed;fontSize=16;fillColor=#fff2cc;strokeColor=#d6b656;" vertex="1" parent="1">
          <mxGeometry x="998" y="350.5" width="39" height="39" as="geometry" />
        </mxCell>
        <mxCell id="tFzAAHaU8S95K_Trg-Dz-305" value="0" style="whiteSpace=wrap;html=1;aspect=fixed;fontSize=16;fillColor=#fff2cc;strokeColor=#d6b656;" vertex="1" parent="1">
          <mxGeometry x="1037" y="350.5" width="39" height="39" as="geometry" />
        </mxCell>
        <mxCell id="tFzAAHaU8S95K_Trg-Dz-306" value="-1" style="whiteSpace=wrap;html=1;aspect=fixed;fontSize=16;fillColor=#fff2cc;strokeColor=#d6b656;" vertex="1" parent="1">
          <mxGeometry x="1076" y="389.5" width="39" height="39" as="geometry" />
        </mxCell>
        <mxCell id="tFzAAHaU8S95K_Trg-Dz-307" value="0" style="whiteSpace=wrap;html=1;aspect=fixed;fontSize=16;fillColor=#fff2cc;strokeColor=#d6b656;" vertex="1" parent="1">
          <mxGeometry x="1076" y="428.5" width="39" height="39" as="geometry" />
        </mxCell>
        <mxCell id="tFzAAHaU8S95K_Trg-Dz-308" value="-1" style="whiteSpace=wrap;html=1;aspect=fixed;fontSize=16;fillColor=#fff2cc;strokeColor=#d6b656;" vertex="1" parent="1">
          <mxGeometry x="1076" y="466" width="39" height="39" as="geometry" />
        </mxCell>
        <mxCell id="tFzAAHaU8S95K_Trg-Dz-309" value="-1" style="whiteSpace=wrap;html=1;aspect=fixed;fontSize=16;fillColor=#fff2cc;strokeColor=#d6b656;" vertex="1" parent="1">
          <mxGeometry x="1076" y="505" width="39" height="39" as="geometry" />
        </mxCell>
        <mxCell id="tFzAAHaU8S95K_Trg-Dz-310" value="0" style="whiteSpace=wrap;html=1;aspect=fixed;fontSize=16;fillColor=#fff2cc;strokeColor=#d6b656;" vertex="1" parent="1">
          <mxGeometry x="1076" y="350.5" width="39" height="39" as="geometry" />
        </mxCell>
        <mxCell id="tFzAAHaU8S95K_Trg-Dz-311" value="-1" style="whiteSpace=wrap;html=1;aspect=fixed;fontSize=16;fillColor=#fff2cc;strokeColor=#d6b656;" vertex="1" parent="1">
          <mxGeometry x="1215" y="390.25" width="39" height="39" as="geometry" />
        </mxCell>
        <mxCell id="tFzAAHaU8S95K_Trg-Dz-312" value="-1" style="whiteSpace=wrap;html=1;aspect=fixed;fontSize=16;fillColor=#1ba1e2;fontColor=#ffffff;strokeColor=#006EAF;" vertex="1" parent="1">
          <mxGeometry x="1254" y="390.25" width="39" height="39" as="geometry" />
        </mxCell>
        <mxCell id="tFzAAHaU8S95K_Trg-Dz-313" value="-1" style="whiteSpace=wrap;html=1;aspect=fixed;fontSize=16;fillColor=#1ba1e2;fontColor=#ffffff;strokeColor=#006EAF;" vertex="1" parent="1">
          <mxGeometry x="1293" y="390.25" width="39" height="39" as="geometry" />
        </mxCell>
        <mxCell id="tFzAAHaU8S95K_Trg-Dz-314" value="-1" style="whiteSpace=wrap;html=1;aspect=fixed;fontSize=16;fillColor=#1ba1e2;fontColor=#ffffff;strokeColor=#006EAF;" vertex="1" parent="1">
          <mxGeometry x="1332" y="390.25" width="39" height="39" as="geometry" />
        </mxCell>
        <mxCell id="tFzAAHaU8S95K_Trg-Dz-315" value="0" style="whiteSpace=wrap;html=1;aspect=fixed;fontSize=16;fillColor=#fff2cc;strokeColor=#d6b656;" vertex="1" parent="1">
          <mxGeometry x="1215" y="429.25" width="39" height="39" as="geometry" />
        </mxCell>
        <mxCell id="tFzAAHaU8S95K_Trg-Dz-316" value="0" style="whiteSpace=wrap;html=1;aspect=fixed;fontSize=16;" vertex="1" parent="1">
          <mxGeometry x="1254" y="429.25" width="39" height="39" as="geometry" />
        </mxCell>
        <mxCell id="tFzAAHaU8S95K_Trg-Dz-317" value="0" style="whiteSpace=wrap;html=1;aspect=fixed;fontSize=16;" vertex="1" parent="1">
          <mxGeometry x="1293" y="429.25" width="39" height="39" as="geometry" />
        </mxCell>
        <mxCell id="tFzAAHaU8S95K_Trg-Dz-318" value="0" style="whiteSpace=wrap;html=1;aspect=fixed;fontSize=16;" vertex="1" parent="1">
          <mxGeometry x="1332" y="429.25" width="39" height="39" as="geometry" />
        </mxCell>
        <mxCell id="tFzAAHaU8S95K_Trg-Dz-319" value="0" style="whiteSpace=wrap;html=1;aspect=fixed;fontSize=16;fillColor=#fff2cc;strokeColor=#d6b656;" vertex="1" parent="1">
          <mxGeometry x="1215" y="466.75" width="39" height="39" as="geometry" />
        </mxCell>
        <mxCell id="tFzAAHaU8S95K_Trg-Dz-320" value="-2" style="whiteSpace=wrap;html=1;aspect=fixed;fontSize=16;fillColor=#e51400;fontColor=#ffffff;strokeColor=#B20000;" vertex="1" parent="1">
          <mxGeometry x="1254" y="466.75" width="39" height="39" as="geometry" />
        </mxCell>
        <mxCell id="tFzAAHaU8S95K_Trg-Dz-321" value="-1" style="whiteSpace=wrap;html=1;aspect=fixed;fontSize=16;fillColor=#e51400;fontColor=#ffffff;strokeColor=#B20000;" vertex="1" parent="1">
          <mxGeometry x="1293" y="466.75" width="39" height="39" as="geometry" />
        </mxCell>
        <mxCell id="tFzAAHaU8S95K_Trg-Dz-322" value="-1" style="whiteSpace=wrap;html=1;aspect=fixed;fontSize=16;fillColor=#e51400;fontColor=#ffffff;strokeColor=#B20000;" vertex="1" parent="1">
          <mxGeometry x="1332" y="466.75" width="39" height="39" as="geometry" />
        </mxCell>
        <mxCell id="tFzAAHaU8S95K_Trg-Dz-323" value="0" style="whiteSpace=wrap;html=1;aspect=fixed;fontSize=16;fillColor=#fff2cc;strokeColor=#d6b656;" vertex="1" parent="1">
          <mxGeometry x="1215" y="505.75" width="39" height="39" as="geometry" />
        </mxCell>
        <mxCell id="tFzAAHaU8S95K_Trg-Dz-324" value="0" style="whiteSpace=wrap;html=1;aspect=fixed;fontSize=16;fillColor=#fff2cc;strokeColor=#d6b656;" vertex="1" parent="1">
          <mxGeometry x="1254" y="505.75" width="39" height="39" as="geometry" />
        </mxCell>
        <mxCell id="tFzAAHaU8S95K_Trg-Dz-325" value="0" style="whiteSpace=wrap;html=1;aspect=fixed;fontSize=16;fillColor=#fff2cc;strokeColor=#d6b656;" vertex="1" parent="1">
          <mxGeometry x="1293" y="505.75" width="39" height="39" as="geometry" />
        </mxCell>
        <mxCell id="tFzAAHaU8S95K_Trg-Dz-326" value="0" style="whiteSpace=wrap;html=1;aspect=fixed;fontSize=16;fillColor=#fff2cc;strokeColor=#d6b656;" vertex="1" parent="1">
          <mxGeometry x="1332" y="505.75" width="39" height="39" as="geometry" />
        </mxCell>
        <mxCell id="tFzAAHaU8S95K_Trg-Dz-327" value="0" style="whiteSpace=wrap;html=1;aspect=fixed;fontSize=16;fillColor=#fff2cc;strokeColor=#d6b656;" vertex="1" parent="1">
          <mxGeometry x="1215" y="351.25" width="39" height="39" as="geometry" />
        </mxCell>
        <mxCell id="tFzAAHaU8S95K_Trg-Dz-328" value="0" style="whiteSpace=wrap;html=1;aspect=fixed;fontSize=16;fillColor=#fff2cc;strokeColor=#d6b656;" vertex="1" parent="1">
          <mxGeometry x="1254" y="351.25" width="39" height="39" as="geometry" />
        </mxCell>
        <mxCell id="tFzAAHaU8S95K_Trg-Dz-329" value="0" style="whiteSpace=wrap;html=1;aspect=fixed;fontSize=16;fillColor=#fff2cc;strokeColor=#d6b656;" vertex="1" parent="1">
          <mxGeometry x="1293" y="351.25" width="39" height="39" as="geometry" />
        </mxCell>
        <mxCell id="tFzAAHaU8S95K_Trg-Dz-330" value="0" style="whiteSpace=wrap;html=1;aspect=fixed;fontSize=16;fillColor=#fff2cc;strokeColor=#d6b656;" vertex="1" parent="1">
          <mxGeometry x="1332" y="351.25" width="39" height="39" as="geometry" />
        </mxCell>
        <mxCell id="tFzAAHaU8S95K_Trg-Dz-331" value="-1" style="whiteSpace=wrap;html=1;aspect=fixed;fontSize=16;fillColor=#fff2cc;strokeColor=#d6b656;" vertex="1" parent="1">
          <mxGeometry x="1371" y="390.25" width="39" height="39" as="geometry" />
        </mxCell>
        <mxCell id="tFzAAHaU8S95K_Trg-Dz-332" value="0" style="whiteSpace=wrap;html=1;aspect=fixed;fontSize=16;fillColor=#fff2cc;strokeColor=#d6b656;" vertex="1" parent="1">
          <mxGeometry x="1371" y="429.25" width="39" height="39" as="geometry" />
        </mxCell>
        <mxCell id="tFzAAHaU8S95K_Trg-Dz-333" value="-1" style="whiteSpace=wrap;html=1;aspect=fixed;fontSize=16;fillColor=#fff2cc;strokeColor=#d6b656;" vertex="1" parent="1">
          <mxGeometry x="1371" y="466.75" width="39" height="39" as="geometry" />
        </mxCell>
        <mxCell id="tFzAAHaU8S95K_Trg-Dz-334" value="-1" style="whiteSpace=wrap;html=1;aspect=fixed;fontSize=16;fillColor=#fff2cc;strokeColor=#d6b656;" vertex="1" parent="1">
          <mxGeometry x="1371" y="505.75" width="39" height="39" as="geometry" />
        </mxCell>
        <mxCell id="tFzAAHaU8S95K_Trg-Dz-335" value="0" style="whiteSpace=wrap;html=1;aspect=fixed;fontSize=16;fillColor=#fff2cc;strokeColor=#d6b656;" vertex="1" parent="1">
          <mxGeometry x="1371" y="351.25" width="39" height="39" as="geometry" />
        </mxCell>
        <mxCell id="tFzAAHaU8S95K_Trg-Dz-336" value="" style="endArrow=classic;html=1;rounded=0;exitX=1;exitY=0.5;exitDx=0;exitDy=0;entryX=0;entryY=0.5;entryDx=0;entryDy=0;" edge="1" parent="1" source="tFzAAHaU8S95K_Trg-Dz-307" target="tFzAAHaU8S95K_Trg-Dz-315">
          <mxGeometry width="50" height="50" relative="1" as="geometry">
            <mxPoint x="1125" y="210" as="sourcePoint" />
            <mxPoint x="1190" y="475" as="targetPoint" />
          </mxGeometry>
        </mxCell>
        <mxCell id="tFzAAHaU8S95K_Trg-Dz-339" value="-1" style="whiteSpace=wrap;html=1;aspect=fixed;fontSize=16;fillColor=#fff2cc;strokeColor=#d6b656;" vertex="1" parent="1">
          <mxGeometry x="1027" y="1208.75" width="39" height="39" as="geometry" />
        </mxCell>
        <mxCell id="tFzAAHaU8S95K_Trg-Dz-340" value="-1" style="whiteSpace=wrap;html=1;aspect=fixed;fontSize=16;fillColor=#1ba1e2;fontColor=#ffffff;strokeColor=#006EAF;" vertex="1" parent="1">
          <mxGeometry x="1066" y="1208.75" width="39" height="39" as="geometry" />
        </mxCell>
        <mxCell id="tFzAAHaU8S95K_Trg-Dz-341" value="-1" style="whiteSpace=wrap;html=1;aspect=fixed;fontSize=16;fillColor=#1ba1e2;fontColor=#ffffff;strokeColor=#006EAF;" vertex="1" parent="1">
          <mxGeometry x="1105" y="1208.75" width="39" height="39" as="geometry" />
        </mxCell>
        <mxCell id="tFzAAHaU8S95K_Trg-Dz-342" value="-1" style="whiteSpace=wrap;html=1;aspect=fixed;fontSize=16;fillColor=#1ba1e2;fontColor=#ffffff;strokeColor=#006EAF;" vertex="1" parent="1">
          <mxGeometry x="1144" y="1208.75" width="39" height="39" as="geometry" />
        </mxCell>
        <mxCell id="tFzAAHaU8S95K_Trg-Dz-343" value="0" style="whiteSpace=wrap;html=1;aspect=fixed;fontSize=16;fillColor=#fff2cc;strokeColor=#d6b656;" vertex="1" parent="1">
          <mxGeometry x="1027" y="1247.75" width="39" height="39" as="geometry" />
        </mxCell>
        <mxCell id="tFzAAHaU8S95K_Trg-Dz-344" value="0" style="whiteSpace=wrap;html=1;aspect=fixed;fontSize=16;" vertex="1" parent="1">
          <mxGeometry x="1066" y="1247.75" width="39" height="39" as="geometry" />
        </mxCell>
        <mxCell id="tFzAAHaU8S95K_Trg-Dz-345" value="0" style="whiteSpace=wrap;html=1;aspect=fixed;fontSize=16;" vertex="1" parent="1">
          <mxGeometry x="1105" y="1247.75" width="39" height="39" as="geometry" />
        </mxCell>
        <mxCell id="tFzAAHaU8S95K_Trg-Dz-346" value="0" style="whiteSpace=wrap;html=1;aspect=fixed;fontSize=16;" vertex="1" parent="1">
          <mxGeometry x="1144" y="1247.75" width="39" height="39" as="geometry" />
        </mxCell>
        <mxCell id="tFzAAHaU8S95K_Trg-Dz-347" value="0" style="whiteSpace=wrap;html=1;aspect=fixed;fontSize=16;fillColor=#fff2cc;strokeColor=#d6b656;" vertex="1" parent="1">
          <mxGeometry x="1027" y="1285.25" width="39" height="39" as="geometry" />
        </mxCell>
        <mxCell id="tFzAAHaU8S95K_Trg-Dz-348" value="-2" style="whiteSpace=wrap;html=1;aspect=fixed;fontSize=16;fillColor=#e51400;fontColor=#ffffff;strokeColor=#B20000;" vertex="1" parent="1">
          <mxGeometry x="1066" y="1285.25" width="39" height="39" as="geometry" />
        </mxCell>
        <mxCell id="tFzAAHaU8S95K_Trg-Dz-349" value="-1" style="whiteSpace=wrap;html=1;aspect=fixed;fontSize=16;fillColor=#1ba1e2;fontColor=#ffffff;strokeColor=#006EAF;" vertex="1" parent="1">
          <mxGeometry x="1105" y="1285.25" width="39" height="39" as="geometry" />
        </mxCell>
        <mxCell id="tFzAAHaU8S95K_Trg-Dz-350" value="-1" style="whiteSpace=wrap;html=1;aspect=fixed;fontSize=16;fillColor=#1ba1e2;fontColor=#ffffff;strokeColor=#006EAF;" vertex="1" parent="1">
          <mxGeometry x="1144" y="1285.25" width="39" height="39" as="geometry" />
        </mxCell>
        <mxCell id="tFzAAHaU8S95K_Trg-Dz-351" value="0" style="whiteSpace=wrap;html=1;aspect=fixed;fontSize=16;fillColor=#fff2cc;strokeColor=#d6b656;" vertex="1" parent="1">
          <mxGeometry x="1027" y="1324.25" width="39" height="39" as="geometry" />
        </mxCell>
        <mxCell id="tFzAAHaU8S95K_Trg-Dz-352" value="0" style="whiteSpace=wrap;html=1;aspect=fixed;fontSize=16;fillColor=#fff2cc;strokeColor=#d6b656;" vertex="1" parent="1">
          <mxGeometry x="1066" y="1324.25" width="39" height="39" as="geometry" />
        </mxCell>
        <mxCell id="tFzAAHaU8S95K_Trg-Dz-353" value="0" style="whiteSpace=wrap;html=1;aspect=fixed;fontSize=16;fillColor=#fff2cc;strokeColor=#d6b656;" vertex="1" parent="1">
          <mxGeometry x="1105" y="1324.25" width="39" height="39" as="geometry" />
        </mxCell>
        <mxCell id="tFzAAHaU8S95K_Trg-Dz-354" value="-1" style="whiteSpace=wrap;html=1;aspect=fixed;fontSize=16;fillColor=#fff2cc;strokeColor=#d6b656;" vertex="1" parent="1">
          <mxGeometry x="1144" y="1324.25" width="39" height="39" as="geometry" />
        </mxCell>
        <mxCell id="tFzAAHaU8S95K_Trg-Dz-355" value="0" style="whiteSpace=wrap;html=1;aspect=fixed;fontSize=16;fillColor=#fff2cc;strokeColor=#d6b656;" vertex="1" parent="1">
          <mxGeometry x="1027" y="1169.75" width="39" height="39" as="geometry" />
        </mxCell>
        <mxCell id="tFzAAHaU8S95K_Trg-Dz-356" value="0" style="whiteSpace=wrap;html=1;aspect=fixed;fontSize=16;fillColor=#fff2cc;strokeColor=#d6b656;" vertex="1" parent="1">
          <mxGeometry x="1066" y="1169.75" width="39" height="39" as="geometry" />
        </mxCell>
        <mxCell id="tFzAAHaU8S95K_Trg-Dz-357" value="0" style="whiteSpace=wrap;html=1;aspect=fixed;fontSize=16;fillColor=#fff2cc;strokeColor=#d6b656;" vertex="1" parent="1">
          <mxGeometry x="1105" y="1169.75" width="39" height="39" as="geometry" />
        </mxCell>
        <mxCell id="tFzAAHaU8S95K_Trg-Dz-358" value="0" style="whiteSpace=wrap;html=1;aspect=fixed;fontSize=16;fillColor=#fff2cc;strokeColor=#d6b656;" vertex="1" parent="1">
          <mxGeometry x="1144" y="1169.75" width="39" height="39" as="geometry" />
        </mxCell>
        <mxCell id="tFzAAHaU8S95K_Trg-Dz-359" value="-1" style="whiteSpace=wrap;html=1;aspect=fixed;fontSize=16;fillColor=#fff2cc;strokeColor=#d6b656;" vertex="1" parent="1">
          <mxGeometry x="1183" y="1208.75" width="39" height="39" as="geometry" />
        </mxCell>
        <mxCell id="tFzAAHaU8S95K_Trg-Dz-360" value="0" style="whiteSpace=wrap;html=1;aspect=fixed;fontSize=16;fillColor=#fff2cc;strokeColor=#d6b656;" vertex="1" parent="1">
          <mxGeometry x="1183" y="1247.75" width="39" height="39" as="geometry" />
        </mxCell>
        <mxCell id="tFzAAHaU8S95K_Trg-Dz-361" value="-1" style="whiteSpace=wrap;html=1;aspect=fixed;fontSize=16;fillColor=#fff2cc;strokeColor=#d6b656;" vertex="1" parent="1">
          <mxGeometry x="1183" y="1285.25" width="39" height="39" as="geometry" />
        </mxCell>
        <mxCell id="tFzAAHaU8S95K_Trg-Dz-362" value="0" style="whiteSpace=wrap;html=1;aspect=fixed;fontSize=16;fillColor=#fff2cc;strokeColor=#d6b656;" vertex="1" parent="1">
          <mxGeometry x="1183" y="1324.25" width="39" height="39" as="geometry" />
        </mxCell>
        <mxCell id="tFzAAHaU8S95K_Trg-Dz-363" value="0" style="whiteSpace=wrap;html=1;aspect=fixed;fontSize=16;fillColor=#fff2cc;strokeColor=#d6b656;" vertex="1" parent="1">
          <mxGeometry x="1183" y="1169.75" width="39" height="39" as="geometry" />
        </mxCell>
        <mxCell id="tFzAAHaU8S95K_Trg-Dz-364" value="-1" style="whiteSpace=wrap;html=1;aspect=fixed;fontSize=16;fillColor=#fff2cc;strokeColor=#d6b656;" vertex="1" parent="1">
          <mxGeometry x="1320" y="1208" width="39" height="39" as="geometry" />
        </mxCell>
        <mxCell id="tFzAAHaU8S95K_Trg-Dz-365" value="-1" style="whiteSpace=wrap;html=1;aspect=fixed;fontSize=16;fillColor=#1ba1e2;fontColor=#ffffff;strokeColor=#006EAF;" vertex="1" parent="1">
          <mxGeometry x="1359" y="1208" width="39" height="39" as="geometry" />
        </mxCell>
        <mxCell id="tFzAAHaU8S95K_Trg-Dz-366" value="-1" style="whiteSpace=wrap;html=1;aspect=fixed;fontSize=16;fillColor=#1ba1e2;fontColor=#ffffff;strokeColor=#006EAF;" vertex="1" parent="1">
          <mxGeometry x="1398" y="1208" width="39" height="39" as="geometry" />
        </mxCell>
        <mxCell id="tFzAAHaU8S95K_Trg-Dz-367" value="-2" style="whiteSpace=wrap;html=1;aspect=fixed;fontSize=16;fillColor=#e51400;fontColor=#ffffff;strokeColor=#B20000;" vertex="1" parent="1">
          <mxGeometry x="1437" y="1208" width="39" height="39" as="geometry" />
        </mxCell>
        <mxCell id="tFzAAHaU8S95K_Trg-Dz-368" value="0" style="whiteSpace=wrap;html=1;aspect=fixed;fontSize=16;fillColor=#fff2cc;strokeColor=#d6b656;" vertex="1" parent="1">
          <mxGeometry x="1320" y="1247" width="39" height="39" as="geometry" />
        </mxCell>
        <mxCell id="tFzAAHaU8S95K_Trg-Dz-369" value="0" style="whiteSpace=wrap;html=1;aspect=fixed;fontSize=16;" vertex="1" parent="1">
          <mxGeometry x="1359" y="1247" width="39" height="39" as="geometry" />
        </mxCell>
        <mxCell id="tFzAAHaU8S95K_Trg-Dz-370" value="0" style="whiteSpace=wrap;html=1;aspect=fixed;fontSize=16;" vertex="1" parent="1">
          <mxGeometry x="1398" y="1247" width="39" height="39" as="geometry" />
        </mxCell>
        <mxCell id="tFzAAHaU8S95K_Trg-Dz-371" value="0" style="whiteSpace=wrap;html=1;aspect=fixed;fontSize=16;" vertex="1" parent="1">
          <mxGeometry x="1437" y="1247" width="39" height="39" as="geometry" />
        </mxCell>
        <mxCell id="tFzAAHaU8S95K_Trg-Dz-372" value="-1" style="whiteSpace=wrap;html=1;aspect=fixed;fontSize=16;fillColor=#fff2cc;strokeColor=#d6b656;" vertex="1" parent="1">
          <mxGeometry x="1320" y="1284.5" width="39" height="39" as="geometry" />
        </mxCell>
        <mxCell id="tFzAAHaU8S95K_Trg-Dz-373" value="-1" style="whiteSpace=wrap;html=1;aspect=fixed;fontSize=16;fillColor=#1ba1e2;fontColor=#ffffff;strokeColor=#006EAF;" vertex="1" parent="1">
          <mxGeometry x="1359" y="1284.5" width="39" height="39" as="geometry" />
        </mxCell>
        <mxCell id="tFzAAHaU8S95K_Trg-Dz-374" value="0" style="whiteSpace=wrap;html=1;aspect=fixed;fontSize=16;" vertex="1" parent="1">
          <mxGeometry x="1398" y="1284.5" width="39" height="39" as="geometry" />
        </mxCell>
        <mxCell id="tFzAAHaU8S95K_Trg-Dz-375" value="0" style="whiteSpace=wrap;html=1;aspect=fixed;fontSize=16;" vertex="1" parent="1">
          <mxGeometry x="1437" y="1284.5" width="39" height="39" as="geometry" />
        </mxCell>
        <mxCell id="tFzAAHaU8S95K_Trg-Dz-376" value="-1" style="whiteSpace=wrap;html=1;aspect=fixed;fontSize=16;fillColor=#fff2cc;strokeColor=#d6b656;" vertex="1" parent="1">
          <mxGeometry x="1320" y="1323.5" width="39" height="39" as="geometry" />
        </mxCell>
        <mxCell id="tFzAAHaU8S95K_Trg-Dz-377" value="0" style="whiteSpace=wrap;html=1;aspect=fixed;fontSize=16;fillColor=#fff2cc;strokeColor=#d6b656;" vertex="1" parent="1">
          <mxGeometry x="1359" y="1323.5" width="39" height="39" as="geometry" />
        </mxCell>
        <mxCell id="tFzAAHaU8S95K_Trg-Dz-378" value="0" style="whiteSpace=wrap;html=1;aspect=fixed;fontSize=16;fillColor=#fff2cc;strokeColor=#d6b656;" vertex="1" parent="1">
          <mxGeometry x="1398" y="1323.5" width="39" height="39" as="geometry" />
        </mxCell>
        <mxCell id="tFzAAHaU8S95K_Trg-Dz-379" value="0" style="whiteSpace=wrap;html=1;aspect=fixed;fontSize=16;fillColor=#fff2cc;strokeColor=#d6b656;" vertex="1" parent="1">
          <mxGeometry x="1437" y="1323.5" width="39" height="39" as="geometry" />
        </mxCell>
        <mxCell id="tFzAAHaU8S95K_Trg-Dz-380" value="0" style="whiteSpace=wrap;html=1;aspect=fixed;fontSize=16;fillColor=#fff2cc;strokeColor=#d6b656;" vertex="1" parent="1">
          <mxGeometry x="1320" y="1169" width="39" height="39" as="geometry" />
        </mxCell>
        <mxCell id="tFzAAHaU8S95K_Trg-Dz-381" value="0" style="whiteSpace=wrap;html=1;aspect=fixed;fontSize=16;fillColor=#fff2cc;strokeColor=#d6b656;" vertex="1" parent="1">
          <mxGeometry x="1359" y="1169" width="39" height="39" as="geometry" />
        </mxCell>
        <mxCell id="tFzAAHaU8S95K_Trg-Dz-382" value="0" style="whiteSpace=wrap;html=1;aspect=fixed;fontSize=16;fillColor=#fff2cc;strokeColor=#d6b656;" vertex="1" parent="1">
          <mxGeometry x="1398" y="1169" width="39" height="39" as="geometry" />
        </mxCell>
        <mxCell id="tFzAAHaU8S95K_Trg-Dz-383" value="0" style="whiteSpace=wrap;html=1;aspect=fixed;fontSize=16;fillColor=#fff2cc;strokeColor=#d6b656;" vertex="1" parent="1">
          <mxGeometry x="1437" y="1169" width="39" height="39" as="geometry" />
        </mxCell>
        <mxCell id="tFzAAHaU8S95K_Trg-Dz-384" value="-1" style="whiteSpace=wrap;html=1;aspect=fixed;fontSize=16;fillColor=#fff2cc;strokeColor=#d6b656;" vertex="1" parent="1">
          <mxGeometry x="1476" y="1208" width="39" height="39" as="geometry" />
        </mxCell>
        <mxCell id="tFzAAHaU8S95K_Trg-Dz-385" value="0" style="whiteSpace=wrap;html=1;aspect=fixed;fontSize=16;fillColor=#fff2cc;strokeColor=#d6b656;" vertex="1" parent="1">
          <mxGeometry x="1476" y="1247" width="39" height="39" as="geometry" />
        </mxCell>
        <mxCell id="tFzAAHaU8S95K_Trg-Dz-386" value="-1" style="whiteSpace=wrap;html=1;aspect=fixed;fontSize=16;fillColor=#fff2cc;strokeColor=#d6b656;" vertex="1" parent="1">
          <mxGeometry x="1476" y="1284.5" width="39" height="39" as="geometry" />
        </mxCell>
        <mxCell id="tFzAAHaU8S95K_Trg-Dz-387" value="-1" style="whiteSpace=wrap;html=1;aspect=fixed;fontSize=16;fillColor=#fff2cc;strokeColor=#d6b656;" vertex="1" parent="1">
          <mxGeometry x="1476" y="1323.5" width="39" height="39" as="geometry" />
        </mxCell>
        <mxCell id="tFzAAHaU8S95K_Trg-Dz-388" value="0" style="whiteSpace=wrap;html=1;aspect=fixed;fontSize=16;fillColor=#fff2cc;strokeColor=#d6b656;" vertex="1" parent="1">
          <mxGeometry x="1476" y="1169" width="39" height="39" as="geometry" />
        </mxCell>
        <mxCell id="tFzAAHaU8S95K_Trg-Dz-389" value="-1" style="whiteSpace=wrap;html=1;aspect=fixed;fontSize=16;fillColor=#fff2cc;strokeColor=#d6b656;" vertex="1" parent="1">
          <mxGeometry x="1027" y="1437.75" width="39" height="39" as="geometry" />
        </mxCell>
        <mxCell id="tFzAAHaU8S95K_Trg-Dz-390" value="-1" style="whiteSpace=wrap;html=1;aspect=fixed;fontSize=16;fillColor=#1ba1e2;fontColor=#ffffff;strokeColor=#006EAF;" vertex="1" parent="1">
          <mxGeometry x="1066" y="1437.75" width="39" height="39" as="geometry" />
        </mxCell>
        <mxCell id="tFzAAHaU8S95K_Trg-Dz-391" value="-1" style="whiteSpace=wrap;html=1;aspect=fixed;fontSize=16;fillColor=#1ba1e2;fontColor=#ffffff;strokeColor=#006EAF;" vertex="1" parent="1">
          <mxGeometry x="1105" y="1437.75" width="39" height="39" as="geometry" />
        </mxCell>
        <mxCell id="tFzAAHaU8S95K_Trg-Dz-392" value="-1" style="whiteSpace=wrap;html=1;aspect=fixed;fontSize=16;fillColor=#1ba1e2;fontColor=#ffffff;strokeColor=#006EAF;" vertex="1" parent="1">
          <mxGeometry x="1144" y="1437.75" width="39" height="39" as="geometry" />
        </mxCell>
        <mxCell id="tFzAAHaU8S95K_Trg-Dz-393" value="0" style="whiteSpace=wrap;html=1;aspect=fixed;fontSize=16;fillColor=#fff2cc;strokeColor=#d6b656;" vertex="1" parent="1">
          <mxGeometry x="1027" y="1476.75" width="39" height="39" as="geometry" />
        </mxCell>
        <mxCell id="tFzAAHaU8S95K_Trg-Dz-394" value="0" style="whiteSpace=wrap;html=1;aspect=fixed;fontSize=16;" vertex="1" parent="1">
          <mxGeometry x="1066" y="1476.75" width="39" height="39" as="geometry" />
        </mxCell>
        <mxCell id="tFzAAHaU8S95K_Trg-Dz-395" value="0" style="whiteSpace=wrap;html=1;aspect=fixed;fontSize=16;" vertex="1" parent="1">
          <mxGeometry x="1105" y="1476.75" width="39" height="39" as="geometry" />
        </mxCell>
        <mxCell id="tFzAAHaU8S95K_Trg-Dz-396" value="0" style="whiteSpace=wrap;html=1;aspect=fixed;fontSize=16;" vertex="1" parent="1">
          <mxGeometry x="1144" y="1476.75" width="39" height="39" as="geometry" />
        </mxCell>
        <mxCell id="tFzAAHaU8S95K_Trg-Dz-397" value="0" style="whiteSpace=wrap;html=1;aspect=fixed;fontSize=16;fillColor=#fff2cc;strokeColor=#d6b656;" vertex="1" parent="1">
          <mxGeometry x="1027" y="1514.25" width="39" height="39" as="geometry" />
        </mxCell>
        <mxCell id="tFzAAHaU8S95K_Trg-Dz-398" value="-2" style="whiteSpace=wrap;html=1;aspect=fixed;fontSize=16;fillColor=#e51400;fontColor=#ffffff;strokeColor=#B20000;" vertex="1" parent="1">
          <mxGeometry x="1066" y="1514.25" width="39" height="39" as="geometry" />
        </mxCell>
        <mxCell id="tFzAAHaU8S95K_Trg-Dz-399" value="-2" style="whiteSpace=wrap;html=1;aspect=fixed;fontSize=16;fillColor=#e51400;fontColor=#ffffff;strokeColor=#B20000;" vertex="1" parent="1">
          <mxGeometry x="1105" y="1514.25" width="39" height="39" as="geometry" />
        </mxCell>
        <mxCell id="tFzAAHaU8S95K_Trg-Dz-400" value="-2" style="whiteSpace=wrap;html=1;aspect=fixed;fontSize=16;fillColor=#e51400;fontColor=#ffffff;strokeColor=#B20000;" vertex="1" parent="1">
          <mxGeometry x="1144" y="1514.25" width="39" height="39" as="geometry" />
        </mxCell>
        <mxCell id="tFzAAHaU8S95K_Trg-Dz-401" value="0" style="whiteSpace=wrap;html=1;aspect=fixed;fontSize=16;fillColor=#fff2cc;strokeColor=#d6b656;" vertex="1" parent="1">
          <mxGeometry x="1027" y="1553.25" width="39" height="39" as="geometry" />
        </mxCell>
        <mxCell id="tFzAAHaU8S95K_Trg-Dz-402" value="0" style="whiteSpace=wrap;html=1;aspect=fixed;fontSize=16;fillColor=#fff2cc;strokeColor=#d6b656;" vertex="1" parent="1">
          <mxGeometry x="1066" y="1553.25" width="39" height="39" as="geometry" />
        </mxCell>
        <mxCell id="tFzAAHaU8S95K_Trg-Dz-403" value="0" style="whiteSpace=wrap;html=1;aspect=fixed;fontSize=16;fillColor=#fff2cc;strokeColor=#d6b656;" vertex="1" parent="1">
          <mxGeometry x="1105" y="1553.25" width="39" height="39" as="geometry" />
        </mxCell>
        <mxCell id="tFzAAHaU8S95K_Trg-Dz-404" value="-1" style="whiteSpace=wrap;html=1;aspect=fixed;fontSize=16;fillColor=#fff2cc;strokeColor=#d6b656;" vertex="1" parent="1">
          <mxGeometry x="1144" y="1553.25" width="39" height="39" as="geometry" />
        </mxCell>
        <mxCell id="tFzAAHaU8S95K_Trg-Dz-405" value="0" style="whiteSpace=wrap;html=1;aspect=fixed;fontSize=16;fillColor=#fff2cc;strokeColor=#d6b656;" vertex="1" parent="1">
          <mxGeometry x="1027" y="1398.75" width="39" height="39" as="geometry" />
        </mxCell>
        <mxCell id="tFzAAHaU8S95K_Trg-Dz-406" value="0" style="whiteSpace=wrap;html=1;aspect=fixed;fontSize=16;fillColor=#fff2cc;strokeColor=#d6b656;" vertex="1" parent="1">
          <mxGeometry x="1066" y="1398.75" width="39" height="39" as="geometry" />
        </mxCell>
        <mxCell id="tFzAAHaU8S95K_Trg-Dz-407" value="0" style="whiteSpace=wrap;html=1;aspect=fixed;fontSize=16;fillColor=#fff2cc;strokeColor=#d6b656;" vertex="1" parent="1">
          <mxGeometry x="1105" y="1398.75" width="39" height="39" as="geometry" />
        </mxCell>
        <mxCell id="tFzAAHaU8S95K_Trg-Dz-408" value="0" style="whiteSpace=wrap;html=1;aspect=fixed;fontSize=16;fillColor=#fff2cc;strokeColor=#d6b656;" vertex="1" parent="1">
          <mxGeometry x="1144" y="1398.75" width="39" height="39" as="geometry" />
        </mxCell>
        <mxCell id="tFzAAHaU8S95K_Trg-Dz-409" value="-1" style="whiteSpace=wrap;html=1;aspect=fixed;fontSize=16;fillColor=#fff2cc;strokeColor=#d6b656;" vertex="1" parent="1">
          <mxGeometry x="1183" y="1437.75" width="39" height="39" as="geometry" />
        </mxCell>
        <mxCell id="tFzAAHaU8S95K_Trg-Dz-410" value="0" style="whiteSpace=wrap;html=1;aspect=fixed;fontSize=16;fillColor=#fff2cc;strokeColor=#d6b656;" vertex="1" parent="1">
          <mxGeometry x="1183" y="1476.75" width="39" height="39" as="geometry" />
        </mxCell>
        <mxCell id="tFzAAHaU8S95K_Trg-Dz-411" value="-1" style="whiteSpace=wrap;html=1;aspect=fixed;fontSize=16;fillColor=#fff2cc;strokeColor=#d6b656;" vertex="1" parent="1">
          <mxGeometry x="1183" y="1514.25" width="39" height="39" as="geometry" />
        </mxCell>
        <mxCell id="tFzAAHaU8S95K_Trg-Dz-412" value="0" style="whiteSpace=wrap;html=1;aspect=fixed;fontSize=16;fillColor=#fff2cc;strokeColor=#d6b656;" vertex="1" parent="1">
          <mxGeometry x="1183" y="1553.25" width="39" height="39" as="geometry" />
        </mxCell>
        <mxCell id="tFzAAHaU8S95K_Trg-Dz-413" value="0" style="whiteSpace=wrap;html=1;aspect=fixed;fontSize=16;fillColor=#fff2cc;strokeColor=#d6b656;" vertex="1" parent="1">
          <mxGeometry x="1183" y="1398.75" width="39" height="39" as="geometry" />
        </mxCell>
        <mxCell id="tFzAAHaU8S95K_Trg-Dz-414" value="-1" style="whiteSpace=wrap;html=1;aspect=fixed;fontSize=16;fillColor=#fff2cc;strokeColor=#d6b656;" vertex="1" parent="1">
          <mxGeometry x="1320" y="1437" width="39" height="39" as="geometry" />
        </mxCell>
        <mxCell id="tFzAAHaU8S95K_Trg-Dz-415" value="-2" style="whiteSpace=wrap;html=1;aspect=fixed;fontSize=16;fillColor=#e51400;fontColor=#ffffff;strokeColor=#B20000;" vertex="1" parent="1">
          <mxGeometry x="1359" y="1437" width="39" height="39" as="geometry" />
        </mxCell>
        <mxCell id="tFzAAHaU8S95K_Trg-Dz-416" value="-2" style="whiteSpace=wrap;html=1;aspect=fixed;fontSize=16;fillColor=#e51400;fontColor=#ffffff;strokeColor=#B20000;" vertex="1" parent="1">
          <mxGeometry x="1398" y="1437" width="39" height="39" as="geometry" />
        </mxCell>
        <mxCell id="tFzAAHaU8S95K_Trg-Dz-417" value="-2" style="whiteSpace=wrap;html=1;aspect=fixed;fontSize=16;fillColor=#e51400;fontColor=#ffffff;strokeColor=#B20000;" vertex="1" parent="1">
          <mxGeometry x="1437" y="1437" width="39" height="39" as="geometry" />
        </mxCell>
        <mxCell id="tFzAAHaU8S95K_Trg-Dz-418" value="0" style="whiteSpace=wrap;html=1;aspect=fixed;fontSize=16;fillColor=#fff2cc;strokeColor=#d6b656;" vertex="1" parent="1">
          <mxGeometry x="1320" y="1476" width="39" height="39" as="geometry" />
        </mxCell>
        <mxCell id="tFzAAHaU8S95K_Trg-Dz-419" value="0" style="whiteSpace=wrap;html=1;aspect=fixed;fontSize=16;" vertex="1" parent="1">
          <mxGeometry x="1359" y="1476" width="39" height="39" as="geometry" />
        </mxCell>
        <mxCell id="tFzAAHaU8S95K_Trg-Dz-420" value="0" style="whiteSpace=wrap;html=1;aspect=fixed;fontSize=16;" vertex="1" parent="1">
          <mxGeometry x="1398" y="1476" width="39" height="39" as="geometry" />
        </mxCell>
        <mxCell id="tFzAAHaU8S95K_Trg-Dz-421" value="0" style="whiteSpace=wrap;html=1;aspect=fixed;fontSize=16;" vertex="1" parent="1">
          <mxGeometry x="1437" y="1476" width="39" height="39" as="geometry" />
        </mxCell>
        <mxCell id="tFzAAHaU8S95K_Trg-Dz-422" value="-1" style="whiteSpace=wrap;html=1;aspect=fixed;fontSize=16;fillColor=#fff2cc;strokeColor=#d6b656;" vertex="1" parent="1">
          <mxGeometry x="1320" y="1513.5" width="39" height="39" as="geometry" />
        </mxCell>
        <mxCell id="tFzAAHaU8S95K_Trg-Dz-423" value="-1" style="whiteSpace=wrap;html=1;aspect=fixed;fontSize=16;fillColor=#1ba1e2;fontColor=#ffffff;strokeColor=#006EAF;" vertex="1" parent="1">
          <mxGeometry x="1359" y="1513.5" width="39" height="39" as="geometry" />
        </mxCell>
        <mxCell id="tFzAAHaU8S95K_Trg-Dz-424" value="0" style="whiteSpace=wrap;html=1;aspect=fixed;fontSize=16;" vertex="1" parent="1">
          <mxGeometry x="1398" y="1513.5" width="39" height="39" as="geometry" />
        </mxCell>
        <mxCell id="tFzAAHaU8S95K_Trg-Dz-425" value="0" style="whiteSpace=wrap;html=1;aspect=fixed;fontSize=16;" vertex="1" parent="1">
          <mxGeometry x="1437" y="1513.5" width="39" height="39" as="geometry" />
        </mxCell>
        <mxCell id="tFzAAHaU8S95K_Trg-Dz-426" value="-1" style="whiteSpace=wrap;html=1;aspect=fixed;fontSize=16;fillColor=#fff2cc;strokeColor=#d6b656;" vertex="1" parent="1">
          <mxGeometry x="1320" y="1552.5" width="39" height="39" as="geometry" />
        </mxCell>
        <mxCell id="tFzAAHaU8S95K_Trg-Dz-427" value="0" style="whiteSpace=wrap;html=1;aspect=fixed;fontSize=16;fillColor=#fff2cc;strokeColor=#d6b656;" vertex="1" parent="1">
          <mxGeometry x="1359" y="1552.5" width="39" height="39" as="geometry" />
        </mxCell>
        <mxCell id="tFzAAHaU8S95K_Trg-Dz-428" value="0" style="whiteSpace=wrap;html=1;aspect=fixed;fontSize=16;fillColor=#fff2cc;strokeColor=#d6b656;" vertex="1" parent="1">
          <mxGeometry x="1398" y="1552.5" width="39" height="39" as="geometry" />
        </mxCell>
        <mxCell id="tFzAAHaU8S95K_Trg-Dz-429" value="0" style="whiteSpace=wrap;html=1;aspect=fixed;fontSize=16;fillColor=#fff2cc;strokeColor=#d6b656;" vertex="1" parent="1">
          <mxGeometry x="1437" y="1552.5" width="39" height="39" as="geometry" />
        </mxCell>
        <mxCell id="tFzAAHaU8S95K_Trg-Dz-430" value="0" style="whiteSpace=wrap;html=1;aspect=fixed;fontSize=16;fillColor=#fff2cc;strokeColor=#d6b656;" vertex="1" parent="1">
          <mxGeometry x="1320" y="1398" width="39" height="39" as="geometry" />
        </mxCell>
        <mxCell id="tFzAAHaU8S95K_Trg-Dz-431" value="0" style="whiteSpace=wrap;html=1;aspect=fixed;fontSize=16;fillColor=#fff2cc;strokeColor=#d6b656;" vertex="1" parent="1">
          <mxGeometry x="1359" y="1398" width="39" height="39" as="geometry" />
        </mxCell>
        <mxCell id="tFzAAHaU8S95K_Trg-Dz-432" value="0" style="whiteSpace=wrap;html=1;aspect=fixed;fontSize=16;fillColor=#fff2cc;strokeColor=#d6b656;" vertex="1" parent="1">
          <mxGeometry x="1398" y="1398" width="39" height="39" as="geometry" />
        </mxCell>
        <mxCell id="tFzAAHaU8S95K_Trg-Dz-433" value="0" style="whiteSpace=wrap;html=1;aspect=fixed;fontSize=16;fillColor=#fff2cc;strokeColor=#d6b656;" vertex="1" parent="1">
          <mxGeometry x="1437" y="1398" width="39" height="39" as="geometry" />
        </mxCell>
        <mxCell id="tFzAAHaU8S95K_Trg-Dz-434" value="-1" style="whiteSpace=wrap;html=1;aspect=fixed;fontSize=16;fillColor=#fff2cc;strokeColor=#d6b656;" vertex="1" parent="1">
          <mxGeometry x="1476" y="1437" width="39" height="39" as="geometry" />
        </mxCell>
        <mxCell id="tFzAAHaU8S95K_Trg-Dz-435" value="0" style="whiteSpace=wrap;html=1;aspect=fixed;fontSize=16;fillColor=#fff2cc;strokeColor=#d6b656;" vertex="1" parent="1">
          <mxGeometry x="1476" y="1476" width="39" height="39" as="geometry" />
        </mxCell>
        <mxCell id="tFzAAHaU8S95K_Trg-Dz-436" value="-1" style="whiteSpace=wrap;html=1;aspect=fixed;fontSize=16;fillColor=#fff2cc;strokeColor=#d6b656;" vertex="1" parent="1">
          <mxGeometry x="1476" y="1513.5" width="39" height="39" as="geometry" />
        </mxCell>
        <mxCell id="tFzAAHaU8S95K_Trg-Dz-437" value="-1" style="whiteSpace=wrap;html=1;aspect=fixed;fontSize=16;fillColor=#fff2cc;strokeColor=#d6b656;" vertex="1" parent="1">
          <mxGeometry x="1476" y="1552.5" width="39" height="39" as="geometry" />
        </mxCell>
        <mxCell id="tFzAAHaU8S95K_Trg-Dz-438" value="0" style="whiteSpace=wrap;html=1;aspect=fixed;fontSize=16;fillColor=#fff2cc;strokeColor=#d6b656;" vertex="1" parent="1">
          <mxGeometry x="1476" y="1398" width="39" height="39" as="geometry" />
        </mxCell>
        <mxCell id="tFzAAHaU8S95K_Trg-Dz-439" value="-1" style="whiteSpace=wrap;html=1;aspect=fixed;fontSize=16;fillColor=#fff2cc;strokeColor=#d6b656;" vertex="1" parent="1">
          <mxGeometry x="1027" y="1687.75" width="39" height="39" as="geometry" />
        </mxCell>
        <mxCell id="tFzAAHaU8S95K_Trg-Dz-440" value="-1" style="whiteSpace=wrap;html=1;aspect=fixed;fontSize=16;fillColor=#1ba1e2;fontColor=#ffffff;strokeColor=#006EAF;" vertex="1" parent="1">
          <mxGeometry x="1066" y="1687.75" width="39" height="39" as="geometry" />
        </mxCell>
        <mxCell id="tFzAAHaU8S95K_Trg-Dz-441" value="-1" style="whiteSpace=wrap;html=1;aspect=fixed;fontSize=16;fillColor=#1ba1e2;fontColor=#ffffff;strokeColor=#006EAF;" vertex="1" parent="1">
          <mxGeometry x="1105" y="1687.75" width="39" height="39" as="geometry" />
        </mxCell>
        <mxCell id="tFzAAHaU8S95K_Trg-Dz-442" value="-1" style="whiteSpace=wrap;html=1;aspect=fixed;fontSize=16;fillColor=#1ba1e2;fontColor=#ffffff;strokeColor=#006EAF;" vertex="1" parent="1">
          <mxGeometry x="1144" y="1687.75" width="39" height="39" as="geometry" />
        </mxCell>
        <mxCell id="tFzAAHaU8S95K_Trg-Dz-443" value="0" style="whiteSpace=wrap;html=1;aspect=fixed;fontSize=16;fillColor=#fff2cc;strokeColor=#d6b656;" vertex="1" parent="1">
          <mxGeometry x="1027" y="1726.75" width="39" height="39" as="geometry" />
        </mxCell>
        <mxCell id="tFzAAHaU8S95K_Trg-Dz-444" value="0" style="whiteSpace=wrap;html=1;aspect=fixed;fontSize=16;" vertex="1" parent="1">
          <mxGeometry x="1066" y="1726.75" width="39" height="39" as="geometry" />
        </mxCell>
        <mxCell id="tFzAAHaU8S95K_Trg-Dz-445" value="0" style="whiteSpace=wrap;html=1;aspect=fixed;fontSize=16;" vertex="1" parent="1">
          <mxGeometry x="1105" y="1726.75" width="39" height="39" as="geometry" />
        </mxCell>
        <mxCell id="tFzAAHaU8S95K_Trg-Dz-446" value="0" style="whiteSpace=wrap;html=1;aspect=fixed;fontSize=16;" vertex="1" parent="1">
          <mxGeometry x="1144" y="1726.75" width="39" height="39" as="geometry" />
        </mxCell>
        <mxCell id="tFzAAHaU8S95K_Trg-Dz-447" value="0" style="whiteSpace=wrap;html=1;aspect=fixed;fontSize=16;fillColor=#fff2cc;strokeColor=#d6b656;" vertex="1" parent="1">
          <mxGeometry x="1027" y="1764.25" width="39" height="39" as="geometry" />
        </mxCell>
        <mxCell id="tFzAAHaU8S95K_Trg-Dz-448" value="-2" style="whiteSpace=wrap;html=1;aspect=fixed;fontSize=16;fillColor=#e51400;fontColor=#ffffff;strokeColor=#B20000;" vertex="1" parent="1">
          <mxGeometry x="1066" y="1764.25" width="39" height="39" as="geometry" />
        </mxCell>
        <mxCell id="tFzAAHaU8S95K_Trg-Dz-449" value="-2" style="whiteSpace=wrap;html=1;aspect=fixed;fontSize=16;fillColor=#e51400;fontColor=#ffffff;strokeColor=#B20000;" vertex="1" parent="1">
          <mxGeometry x="1105" y="1764.25" width="39" height="39" as="geometry" />
        </mxCell>
        <mxCell id="tFzAAHaU8S95K_Trg-Dz-450" value="-2" style="whiteSpace=wrap;html=1;aspect=fixed;fontSize=16;fillColor=#e51400;fontColor=#ffffff;strokeColor=#B20000;" vertex="1" parent="1">
          <mxGeometry x="1144" y="1764.25" width="39" height="39" as="geometry" />
        </mxCell>
        <mxCell id="tFzAAHaU8S95K_Trg-Dz-451" value="0" style="whiteSpace=wrap;html=1;aspect=fixed;fontSize=16;fillColor=#fff2cc;strokeColor=#d6b656;" vertex="1" parent="1">
          <mxGeometry x="1027" y="1803.25" width="39" height="39" as="geometry" />
        </mxCell>
        <mxCell id="tFzAAHaU8S95K_Trg-Dz-452" value="0" style="whiteSpace=wrap;html=1;aspect=fixed;fontSize=16;fillColor=#fff2cc;strokeColor=#d6b656;" vertex="1" parent="1">
          <mxGeometry x="1066" y="1803.25" width="39" height="39" as="geometry" />
        </mxCell>
        <mxCell id="tFzAAHaU8S95K_Trg-Dz-453" value="0" style="whiteSpace=wrap;html=1;aspect=fixed;fontSize=16;fillColor=#fff2cc;strokeColor=#d6b656;" vertex="1" parent="1">
          <mxGeometry x="1105" y="1803.25" width="39" height="39" as="geometry" />
        </mxCell>
        <mxCell id="tFzAAHaU8S95K_Trg-Dz-454" value="-1" style="whiteSpace=wrap;html=1;aspect=fixed;fontSize=16;fillColor=#fff2cc;strokeColor=#d6b656;" vertex="1" parent="1">
          <mxGeometry x="1144" y="1803.25" width="39" height="39" as="geometry" />
        </mxCell>
        <mxCell id="tFzAAHaU8S95K_Trg-Dz-455" value="0" style="whiteSpace=wrap;html=1;aspect=fixed;fontSize=16;fillColor=#fff2cc;strokeColor=#d6b656;" vertex="1" parent="1">
          <mxGeometry x="1027" y="1648.75" width="39" height="39" as="geometry" />
        </mxCell>
        <mxCell id="tFzAAHaU8S95K_Trg-Dz-456" value="0" style="whiteSpace=wrap;html=1;aspect=fixed;fontSize=16;fillColor=#fff2cc;strokeColor=#d6b656;" vertex="1" parent="1">
          <mxGeometry x="1066" y="1648.75" width="39" height="39" as="geometry" />
        </mxCell>
        <mxCell id="tFzAAHaU8S95K_Trg-Dz-457" value="0" style="whiteSpace=wrap;html=1;aspect=fixed;fontSize=16;fillColor=#fff2cc;strokeColor=#d6b656;" vertex="1" parent="1">
          <mxGeometry x="1105" y="1648.75" width="39" height="39" as="geometry" />
        </mxCell>
        <mxCell id="tFzAAHaU8S95K_Trg-Dz-458" value="0" style="whiteSpace=wrap;html=1;aspect=fixed;fontSize=16;fillColor=#fff2cc;strokeColor=#d6b656;" vertex="1" parent="1">
          <mxGeometry x="1144" y="1648.75" width="39" height="39" as="geometry" />
        </mxCell>
        <mxCell id="tFzAAHaU8S95K_Trg-Dz-459" value="-2" style="whiteSpace=wrap;html=1;aspect=fixed;fontSize=16;fillColor=#e51400;strokeColor=#B20000;fontColor=#ffffff;" vertex="1" parent="1">
          <mxGeometry x="1183" y="1687.75" width="39" height="39" as="geometry" />
        </mxCell>
        <mxCell id="tFzAAHaU8S95K_Trg-Dz-460" value="0" style="whiteSpace=wrap;html=1;aspect=fixed;fontSize=16;fillColor=#fff2cc;strokeColor=#d6b656;" vertex="1" parent="1">
          <mxGeometry x="1183" y="1726.75" width="39" height="39" as="geometry" />
        </mxCell>
        <mxCell id="tFzAAHaU8S95K_Trg-Dz-461" value="-1" style="whiteSpace=wrap;html=1;aspect=fixed;fontSize=16;fillColor=#fff2cc;strokeColor=#d6b656;" vertex="1" parent="1">
          <mxGeometry x="1183" y="1764.25" width="39" height="39" as="geometry" />
        </mxCell>
        <mxCell id="tFzAAHaU8S95K_Trg-Dz-462" value="0" style="whiteSpace=wrap;html=1;aspect=fixed;fontSize=16;fillColor=#fff2cc;strokeColor=#d6b656;" vertex="1" parent="1">
          <mxGeometry x="1183" y="1803.25" width="39" height="39" as="geometry" />
        </mxCell>
        <mxCell id="tFzAAHaU8S95K_Trg-Dz-463" value="0" style="whiteSpace=wrap;html=1;aspect=fixed;fontSize=16;fillColor=#fff2cc;strokeColor=#d6b656;" vertex="1" parent="1">
          <mxGeometry x="1183" y="1648.75" width="39" height="39" as="geometry" />
        </mxCell>
        <mxCell id="tFzAAHaU8S95K_Trg-Dz-464" value="-1" style="whiteSpace=wrap;html=1;aspect=fixed;fontSize=16;fillColor=#fff2cc;strokeColor=#d6b656;" vertex="1" parent="1">
          <mxGeometry x="1320" y="1687" width="39" height="39" as="geometry" />
        </mxCell>
        <mxCell id="tFzAAHaU8S95K_Trg-Dz-465" value="-2" style="whiteSpace=wrap;html=1;aspect=fixed;fontSize=16;fillColor=#e51400;fontColor=#ffffff;strokeColor=#B20000;" vertex="1" parent="1">
          <mxGeometry x="1359" y="1687" width="39" height="39" as="geometry" />
        </mxCell>
        <mxCell id="tFzAAHaU8S95K_Trg-Dz-466" value="-2" style="whiteSpace=wrap;html=1;aspect=fixed;fontSize=16;fillColor=#e51400;fontColor=#ffffff;strokeColor=#B20000;" vertex="1" parent="1">
          <mxGeometry x="1398" y="1687" width="39" height="39" as="geometry" />
        </mxCell>
        <mxCell id="tFzAAHaU8S95K_Trg-Dz-467" value="-2" style="whiteSpace=wrap;html=1;aspect=fixed;fontSize=16;fillColor=#e51400;fontColor=#ffffff;strokeColor=#B20000;" vertex="1" parent="1">
          <mxGeometry x="1437" y="1687" width="39" height="39" as="geometry" />
        </mxCell>
        <mxCell id="tFzAAHaU8S95K_Trg-Dz-468" value="0" style="whiteSpace=wrap;html=1;aspect=fixed;fontSize=16;fillColor=#fff2cc;strokeColor=#d6b656;" vertex="1" parent="1">
          <mxGeometry x="1320" y="1726" width="39" height="39" as="geometry" />
        </mxCell>
        <mxCell id="tFzAAHaU8S95K_Trg-Dz-469" value="0" style="whiteSpace=wrap;html=1;aspect=fixed;fontSize=16;" vertex="1" parent="1">
          <mxGeometry x="1359" y="1726" width="39" height="39" as="geometry" />
        </mxCell>
        <mxCell id="tFzAAHaU8S95K_Trg-Dz-470" value="0" style="whiteSpace=wrap;html=1;aspect=fixed;fontSize=16;" vertex="1" parent="1">
          <mxGeometry x="1398" y="1726" width="39" height="39" as="geometry" />
        </mxCell>
        <mxCell id="tFzAAHaU8S95K_Trg-Dz-471" value="0" style="whiteSpace=wrap;html=1;aspect=fixed;fontSize=16;" vertex="1" parent="1">
          <mxGeometry x="1437" y="1726" width="39" height="39" as="geometry" />
        </mxCell>
        <mxCell id="tFzAAHaU8S95K_Trg-Dz-472" value="-2" style="whiteSpace=wrap;html=1;aspect=fixed;fontSize=16;fillColor=#e51400;strokeColor=#B20000;fontColor=#ffffff;" vertex="1" parent="1">
          <mxGeometry x="1320" y="1763.5" width="39" height="39" as="geometry" />
        </mxCell>
        <mxCell id="tFzAAHaU8S95K_Trg-Dz-473" value="-1" style="whiteSpace=wrap;html=1;aspect=fixed;fontSize=16;fillColor=#1ba1e2;fontColor=#ffffff;strokeColor=#006EAF;" vertex="1" parent="1">
          <mxGeometry x="1359" y="1763.5" width="39" height="39" as="geometry" />
        </mxCell>
        <mxCell id="tFzAAHaU8S95K_Trg-Dz-474" value="0" style="whiteSpace=wrap;html=1;aspect=fixed;fontSize=16;" vertex="1" parent="1">
          <mxGeometry x="1398" y="1763.5" width="39" height="39" as="geometry" />
        </mxCell>
        <mxCell id="tFzAAHaU8S95K_Trg-Dz-475" value="0" style="whiteSpace=wrap;html=1;aspect=fixed;fontSize=16;" vertex="1" parent="1">
          <mxGeometry x="1437" y="1763.5" width="39" height="39" as="geometry" />
        </mxCell>
        <mxCell id="tFzAAHaU8S95K_Trg-Dz-476" value="-1" style="whiteSpace=wrap;html=1;aspect=fixed;fontSize=16;fillColor=#fff2cc;strokeColor=#d6b656;" vertex="1" parent="1">
          <mxGeometry x="1320" y="1802.5" width="39" height="39" as="geometry" />
        </mxCell>
        <mxCell id="tFzAAHaU8S95K_Trg-Dz-477" value="0" style="whiteSpace=wrap;html=1;aspect=fixed;fontSize=16;fillColor=#fff2cc;strokeColor=#d6b656;" vertex="1" parent="1">
          <mxGeometry x="1359" y="1802.5" width="39" height="39" as="geometry" />
        </mxCell>
        <mxCell id="tFzAAHaU8S95K_Trg-Dz-478" value="0" style="whiteSpace=wrap;html=1;aspect=fixed;fontSize=16;fillColor=#fff2cc;strokeColor=#d6b656;" vertex="1" parent="1">
          <mxGeometry x="1398" y="1802.5" width="39" height="39" as="geometry" />
        </mxCell>
        <mxCell id="tFzAAHaU8S95K_Trg-Dz-479" value="0" style="whiteSpace=wrap;html=1;aspect=fixed;fontSize=16;fillColor=#fff2cc;strokeColor=#d6b656;" vertex="1" parent="1">
          <mxGeometry x="1437" y="1802.5" width="39" height="39" as="geometry" />
        </mxCell>
        <mxCell id="tFzAAHaU8S95K_Trg-Dz-480" value="0" style="whiteSpace=wrap;html=1;aspect=fixed;fontSize=16;fillColor=#fff2cc;strokeColor=#d6b656;" vertex="1" parent="1">
          <mxGeometry x="1320" y="1648" width="39" height="39" as="geometry" />
        </mxCell>
        <mxCell id="tFzAAHaU8S95K_Trg-Dz-481" value="0" style="whiteSpace=wrap;html=1;aspect=fixed;fontSize=16;fillColor=#fff2cc;strokeColor=#d6b656;" vertex="1" parent="1">
          <mxGeometry x="1359" y="1648" width="39" height="39" as="geometry" />
        </mxCell>
        <mxCell id="tFzAAHaU8S95K_Trg-Dz-482" value="0" style="whiteSpace=wrap;html=1;aspect=fixed;fontSize=16;fillColor=#fff2cc;strokeColor=#d6b656;" vertex="1" parent="1">
          <mxGeometry x="1398" y="1648" width="39" height="39" as="geometry" />
        </mxCell>
        <mxCell id="tFzAAHaU8S95K_Trg-Dz-483" value="0" style="whiteSpace=wrap;html=1;aspect=fixed;fontSize=16;fillColor=#fff2cc;strokeColor=#d6b656;" vertex="1" parent="1">
          <mxGeometry x="1437" y="1648" width="39" height="39" as="geometry" />
        </mxCell>
        <mxCell id="tFzAAHaU8S95K_Trg-Dz-484" value="-1" style="whiteSpace=wrap;html=1;aspect=fixed;fontSize=16;fillColor=#fff2cc;strokeColor=#d6b656;" vertex="1" parent="1">
          <mxGeometry x="1476" y="1687" width="39" height="39" as="geometry" />
        </mxCell>
        <mxCell id="tFzAAHaU8S95K_Trg-Dz-485" value="0" style="whiteSpace=wrap;html=1;aspect=fixed;fontSize=16;fillColor=#fff2cc;strokeColor=#d6b656;" vertex="1" parent="1">
          <mxGeometry x="1476" y="1726" width="39" height="39" as="geometry" />
        </mxCell>
        <mxCell id="tFzAAHaU8S95K_Trg-Dz-486" value="-1" style="whiteSpace=wrap;html=1;aspect=fixed;fontSize=16;fillColor=#fff2cc;strokeColor=#d6b656;" vertex="1" parent="1">
          <mxGeometry x="1476" y="1763.5" width="39" height="39" as="geometry" />
        </mxCell>
        <mxCell id="tFzAAHaU8S95K_Trg-Dz-487" value="-1" style="whiteSpace=wrap;html=1;aspect=fixed;fontSize=16;fillColor=#fff2cc;strokeColor=#d6b656;" vertex="1" parent="1">
          <mxGeometry x="1476" y="1802.5" width="39" height="39" as="geometry" />
        </mxCell>
        <mxCell id="tFzAAHaU8S95K_Trg-Dz-488" value="0" style="whiteSpace=wrap;html=1;aspect=fixed;fontSize=16;fillColor=#fff2cc;strokeColor=#d6b656;" vertex="1" parent="1">
          <mxGeometry x="1476" y="1648" width="39" height="39" as="geometry" />
        </mxCell>
        <mxCell id="tFzAAHaU8S95K_Trg-Dz-489" value="-1" style="whiteSpace=wrap;html=1;aspect=fixed;fontSize=16;fillColor=#fff2cc;strokeColor=#d6b656;" vertex="1" parent="1">
          <mxGeometry x="1027" y="1922.75" width="39" height="39" as="geometry" />
        </mxCell>
        <mxCell id="tFzAAHaU8S95K_Trg-Dz-490" value="-2" style="whiteSpace=wrap;html=1;aspect=fixed;fontSize=16;fillColor=#e51400;fontColor=#ffffff;strokeColor=#B20000;" vertex="1" parent="1">
          <mxGeometry x="1066" y="1922.75" width="39" height="39" as="geometry" />
        </mxCell>
        <mxCell id="tFzAAHaU8S95K_Trg-Dz-491" value="-2" style="whiteSpace=wrap;html=1;aspect=fixed;fontSize=16;fillColor=#e51400;fontColor=#ffffff;strokeColor=#B20000;" vertex="1" parent="1">
          <mxGeometry x="1105" y="1922.75" width="39" height="39" as="geometry" />
        </mxCell>
        <mxCell id="tFzAAHaU8S95K_Trg-Dz-492" value="-2" style="whiteSpace=wrap;html=1;aspect=fixed;fontSize=16;fillColor=#e51400;fontColor=#ffffff;strokeColor=#B20000;" vertex="1" parent="1">
          <mxGeometry x="1144" y="1922.75" width="39" height="39" as="geometry" />
        </mxCell>
        <mxCell id="tFzAAHaU8S95K_Trg-Dz-493" value="0" style="whiteSpace=wrap;html=1;aspect=fixed;fontSize=16;fillColor=#fff2cc;strokeColor=#d6b656;" vertex="1" parent="1">
          <mxGeometry x="1027" y="1961.75" width="39" height="39" as="geometry" />
        </mxCell>
        <mxCell id="tFzAAHaU8S95K_Trg-Dz-494" value="0" style="whiteSpace=wrap;html=1;aspect=fixed;fontSize=16;" vertex="1" parent="1">
          <mxGeometry x="1066" y="1961.75" width="39" height="39" as="geometry" />
        </mxCell>
        <mxCell id="tFzAAHaU8S95K_Trg-Dz-495" value="0" style="whiteSpace=wrap;html=1;aspect=fixed;fontSize=16;" vertex="1" parent="1">
          <mxGeometry x="1105" y="1961.75" width="39" height="39" as="geometry" />
        </mxCell>
        <mxCell id="tFzAAHaU8S95K_Trg-Dz-496" value="0" style="whiteSpace=wrap;html=1;aspect=fixed;fontSize=16;" vertex="1" parent="1">
          <mxGeometry x="1144" y="1961.75" width="39" height="39" as="geometry" />
        </mxCell>
        <mxCell id="tFzAAHaU8S95K_Trg-Dz-497" value="0" style="whiteSpace=wrap;html=1;aspect=fixed;fontSize=16;fillColor=#fff2cc;strokeColor=#d6b656;" vertex="1" parent="1">
          <mxGeometry x="1027" y="1999.25" width="39" height="39" as="geometry" />
        </mxCell>
        <mxCell id="tFzAAHaU8S95K_Trg-Dz-498" value="-2" style="whiteSpace=wrap;html=1;aspect=fixed;fontSize=16;fillColor=#e51400;fontColor=#ffffff;strokeColor=#B20000;" vertex="1" parent="1">
          <mxGeometry x="1066" y="1999.25" width="39" height="39" as="geometry" />
        </mxCell>
        <mxCell id="tFzAAHaU8S95K_Trg-Dz-499" value="-2" style="whiteSpace=wrap;html=1;aspect=fixed;fontSize=16;fillColor=#e51400;fontColor=#ffffff;strokeColor=#B20000;" vertex="1" parent="1">
          <mxGeometry x="1105" y="1999.25" width="39" height="39" as="geometry" />
        </mxCell>
        <mxCell id="tFzAAHaU8S95K_Trg-Dz-500" value="-2" style="whiteSpace=wrap;html=1;aspect=fixed;fontSize=16;fillColor=#e51400;fontColor=#ffffff;strokeColor=#B20000;" vertex="1" parent="1">
          <mxGeometry x="1144" y="1999.25" width="39" height="39" as="geometry" />
        </mxCell>
        <mxCell id="tFzAAHaU8S95K_Trg-Dz-501" value="0" style="whiteSpace=wrap;html=1;aspect=fixed;fontSize=16;fillColor=#fff2cc;strokeColor=#d6b656;" vertex="1" parent="1">
          <mxGeometry x="1027" y="2038.25" width="39" height="39" as="geometry" />
        </mxCell>
        <mxCell id="tFzAAHaU8S95K_Trg-Dz-502" value="0" style="whiteSpace=wrap;html=1;aspect=fixed;fontSize=16;fillColor=#fff2cc;strokeColor=#d6b656;" vertex="1" parent="1">
          <mxGeometry x="1066" y="2038.25" width="39" height="39" as="geometry" />
        </mxCell>
        <mxCell id="tFzAAHaU8S95K_Trg-Dz-503" value="0" style="whiteSpace=wrap;html=1;aspect=fixed;fontSize=16;fillColor=#fff2cc;strokeColor=#d6b656;" vertex="1" parent="1">
          <mxGeometry x="1105" y="2038.25" width="39" height="39" as="geometry" />
        </mxCell>
        <mxCell id="tFzAAHaU8S95K_Trg-Dz-504" value="-1" style="whiteSpace=wrap;html=1;aspect=fixed;fontSize=16;fillColor=#fff2cc;strokeColor=#d6b656;" vertex="1" parent="1">
          <mxGeometry x="1144" y="2038.25" width="39" height="39" as="geometry" />
        </mxCell>
        <mxCell id="tFzAAHaU8S95K_Trg-Dz-505" value="0" style="whiteSpace=wrap;html=1;aspect=fixed;fontSize=16;fillColor=#fff2cc;strokeColor=#d6b656;" vertex="1" parent="1">
          <mxGeometry x="1027" y="1883.75" width="39" height="39" as="geometry" />
        </mxCell>
        <mxCell id="tFzAAHaU8S95K_Trg-Dz-506" value="0" style="whiteSpace=wrap;html=1;aspect=fixed;fontSize=16;fillColor=#fff2cc;strokeColor=#d6b656;" vertex="1" parent="1">
          <mxGeometry x="1066" y="1883.75" width="39" height="39" as="geometry" />
        </mxCell>
        <mxCell id="tFzAAHaU8S95K_Trg-Dz-507" value="0" style="whiteSpace=wrap;html=1;aspect=fixed;fontSize=16;fillColor=#fff2cc;strokeColor=#d6b656;" vertex="1" parent="1">
          <mxGeometry x="1105" y="1883.75" width="39" height="39" as="geometry" />
        </mxCell>
        <mxCell id="tFzAAHaU8S95K_Trg-Dz-508" value="0" style="whiteSpace=wrap;html=1;aspect=fixed;fontSize=16;fillColor=#fff2cc;strokeColor=#d6b656;" vertex="1" parent="1">
          <mxGeometry x="1144" y="1883.75" width="39" height="39" as="geometry" />
        </mxCell>
        <mxCell id="tFzAAHaU8S95K_Trg-Dz-509" value="-2" style="whiteSpace=wrap;html=1;aspect=fixed;fontSize=16;fillColor=#e51400;strokeColor=#B20000;fontColor=#ffffff;" vertex="1" parent="1">
          <mxGeometry x="1183" y="1922.75" width="39" height="39" as="geometry" />
        </mxCell>
        <mxCell id="tFzAAHaU8S95K_Trg-Dz-510" value="0" style="whiteSpace=wrap;html=1;aspect=fixed;fontSize=16;fillColor=#fff2cc;strokeColor=#d6b656;" vertex="1" parent="1">
          <mxGeometry x="1183" y="1961.75" width="39" height="39" as="geometry" />
        </mxCell>
        <mxCell id="tFzAAHaU8S95K_Trg-Dz-511" value="-1" style="whiteSpace=wrap;html=1;aspect=fixed;fontSize=16;fillColor=#fff2cc;strokeColor=#d6b656;" vertex="1" parent="1">
          <mxGeometry x="1183" y="1999.25" width="39" height="39" as="geometry" />
        </mxCell>
        <mxCell id="tFzAAHaU8S95K_Trg-Dz-512" value="0" style="whiteSpace=wrap;html=1;aspect=fixed;fontSize=16;fillColor=#fff2cc;strokeColor=#d6b656;" vertex="1" parent="1">
          <mxGeometry x="1183" y="2038.25" width="39" height="39" as="geometry" />
        </mxCell>
        <mxCell id="tFzAAHaU8S95K_Trg-Dz-513" value="0" style="whiteSpace=wrap;html=1;aspect=fixed;fontSize=16;fillColor=#fff2cc;strokeColor=#d6b656;" vertex="1" parent="1">
          <mxGeometry x="1183" y="1883.75" width="39" height="39" as="geometry" />
        </mxCell>
        <mxCell id="tFzAAHaU8S95K_Trg-Dz-514" value="-1" style="whiteSpace=wrap;html=1;aspect=fixed;fontSize=16;fillColor=#fff2cc;strokeColor=#d6b656;" vertex="1" parent="1">
          <mxGeometry x="1320" y="1922" width="39" height="39" as="geometry" />
        </mxCell>
        <mxCell id="tFzAAHaU8S95K_Trg-Dz-515" value="-2" style="whiteSpace=wrap;html=1;aspect=fixed;fontSize=16;fillColor=#e51400;fontColor=#ffffff;strokeColor=#B20000;" vertex="1" parent="1">
          <mxGeometry x="1359" y="1922" width="39" height="39" as="geometry" />
        </mxCell>
        <mxCell id="tFzAAHaU8S95K_Trg-Dz-516" value="-2" style="whiteSpace=wrap;html=1;aspect=fixed;fontSize=16;fillColor=#e51400;fontColor=#ffffff;strokeColor=#B20000;" vertex="1" parent="1">
          <mxGeometry x="1398" y="1922" width="39" height="39" as="geometry" />
        </mxCell>
        <mxCell id="tFzAAHaU8S95K_Trg-Dz-517" value="-2" style="whiteSpace=wrap;html=1;aspect=fixed;fontSize=16;fillColor=#e51400;fontColor=#ffffff;strokeColor=#B20000;" vertex="1" parent="1">
          <mxGeometry x="1437" y="1922" width="39" height="39" as="geometry" />
        </mxCell>
        <mxCell id="tFzAAHaU8S95K_Trg-Dz-518" value="0" style="whiteSpace=wrap;html=1;aspect=fixed;fontSize=16;fillColor=#fff2cc;strokeColor=#d6b656;" vertex="1" parent="1">
          <mxGeometry x="1320" y="1961" width="39" height="39" as="geometry" />
        </mxCell>
        <mxCell id="tFzAAHaU8S95K_Trg-Dz-519" value="0" style="whiteSpace=wrap;html=1;aspect=fixed;fontSize=16;" vertex="1" parent="1">
          <mxGeometry x="1359" y="1961" width="39" height="39" as="geometry" />
        </mxCell>
        <mxCell id="tFzAAHaU8S95K_Trg-Dz-520" value="0" style="whiteSpace=wrap;html=1;aspect=fixed;fontSize=16;" vertex="1" parent="1">
          <mxGeometry x="1398" y="1961" width="39" height="39" as="geometry" />
        </mxCell>
        <mxCell id="tFzAAHaU8S95K_Trg-Dz-521" value="0" style="whiteSpace=wrap;html=1;aspect=fixed;fontSize=16;" vertex="1" parent="1">
          <mxGeometry x="1437" y="1961" width="39" height="39" as="geometry" />
        </mxCell>
        <mxCell id="tFzAAHaU8S95K_Trg-Dz-522" value="-2" style="whiteSpace=wrap;html=1;aspect=fixed;fontSize=16;fillColor=#e51400;strokeColor=#B20000;fontColor=#ffffff;" vertex="1" parent="1">
          <mxGeometry x="1320" y="1998.5" width="39" height="39" as="geometry" />
        </mxCell>
        <mxCell id="tFzAAHaU8S95K_Trg-Dz-523" value="-2" style="whiteSpace=wrap;html=1;aspect=fixed;fontSize=16;fillColor=#e51400;fontColor=#ffffff;strokeColor=#B20000;" vertex="1" parent="1">
          <mxGeometry x="1359" y="1998.5" width="39" height="39" as="geometry" />
        </mxCell>
        <mxCell id="tFzAAHaU8S95K_Trg-Dz-524" value="0" style="whiteSpace=wrap;html=1;aspect=fixed;fontSize=16;" vertex="1" parent="1">
          <mxGeometry x="1398" y="1998.5" width="39" height="39" as="geometry" />
        </mxCell>
        <mxCell id="tFzAAHaU8S95K_Trg-Dz-525" value="0" style="whiteSpace=wrap;html=1;aspect=fixed;fontSize=16;" vertex="1" parent="1">
          <mxGeometry x="1437" y="1998.5" width="39" height="39" as="geometry" />
        </mxCell>
        <mxCell id="tFzAAHaU8S95K_Trg-Dz-526" value="-1" style="whiteSpace=wrap;html=1;aspect=fixed;fontSize=16;fillColor=#fff2cc;strokeColor=#d6b656;" vertex="1" parent="1">
          <mxGeometry x="1320" y="2037.5" width="39" height="39" as="geometry" />
        </mxCell>
        <mxCell id="tFzAAHaU8S95K_Trg-Dz-527" value="0" style="whiteSpace=wrap;html=1;aspect=fixed;fontSize=16;fillColor=#fff2cc;strokeColor=#d6b656;" vertex="1" parent="1">
          <mxGeometry x="1359" y="2037.5" width="39" height="39" as="geometry" />
        </mxCell>
        <mxCell id="tFzAAHaU8S95K_Trg-Dz-528" value="0" style="whiteSpace=wrap;html=1;aspect=fixed;fontSize=16;fillColor=#fff2cc;strokeColor=#d6b656;" vertex="1" parent="1">
          <mxGeometry x="1398" y="2037.5" width="39" height="39" as="geometry" />
        </mxCell>
        <mxCell id="tFzAAHaU8S95K_Trg-Dz-529" value="0" style="whiteSpace=wrap;html=1;aspect=fixed;fontSize=16;fillColor=#fff2cc;strokeColor=#d6b656;" vertex="1" parent="1">
          <mxGeometry x="1437" y="2037.5" width="39" height="39" as="geometry" />
        </mxCell>
        <mxCell id="tFzAAHaU8S95K_Trg-Dz-530" value="0" style="whiteSpace=wrap;html=1;aspect=fixed;fontSize=16;fillColor=#fff2cc;strokeColor=#d6b656;" vertex="1" parent="1">
          <mxGeometry x="1320" y="1883" width="39" height="39" as="geometry" />
        </mxCell>
        <mxCell id="tFzAAHaU8S95K_Trg-Dz-531" value="0" style="whiteSpace=wrap;html=1;aspect=fixed;fontSize=16;fillColor=#fff2cc;strokeColor=#d6b656;" vertex="1" parent="1">
          <mxGeometry x="1359" y="1883" width="39" height="39" as="geometry" />
        </mxCell>
        <mxCell id="tFzAAHaU8S95K_Trg-Dz-532" value="0" style="whiteSpace=wrap;html=1;aspect=fixed;fontSize=16;fillColor=#fff2cc;strokeColor=#d6b656;" vertex="1" parent="1">
          <mxGeometry x="1398" y="1883" width="39" height="39" as="geometry" />
        </mxCell>
        <mxCell id="tFzAAHaU8S95K_Trg-Dz-533" value="0" style="whiteSpace=wrap;html=1;aspect=fixed;fontSize=16;fillColor=#fff2cc;strokeColor=#d6b656;" vertex="1" parent="1">
          <mxGeometry x="1437" y="1883" width="39" height="39" as="geometry" />
        </mxCell>
        <mxCell id="tFzAAHaU8S95K_Trg-Dz-534" value="-1" style="whiteSpace=wrap;html=1;aspect=fixed;fontSize=16;fillColor=#fff2cc;strokeColor=#d6b656;" vertex="1" parent="1">
          <mxGeometry x="1476" y="1922" width="39" height="39" as="geometry" />
        </mxCell>
        <mxCell id="tFzAAHaU8S95K_Trg-Dz-535" value="0" style="whiteSpace=wrap;html=1;aspect=fixed;fontSize=16;fillColor=#fff2cc;strokeColor=#d6b656;" vertex="1" parent="1">
          <mxGeometry x="1476" y="1961" width="39" height="39" as="geometry" />
        </mxCell>
        <mxCell id="tFzAAHaU8S95K_Trg-Dz-536" value="-1" style="whiteSpace=wrap;html=1;aspect=fixed;fontSize=16;fillColor=#fff2cc;strokeColor=#d6b656;" vertex="1" parent="1">
          <mxGeometry x="1476" y="1998.5" width="39" height="39" as="geometry" />
        </mxCell>
        <mxCell id="tFzAAHaU8S95K_Trg-Dz-537" value="-1" style="whiteSpace=wrap;html=1;aspect=fixed;fontSize=16;fillColor=#fff2cc;strokeColor=#d6b656;" vertex="1" parent="1">
          <mxGeometry x="1476" y="2037.5" width="39" height="39" as="geometry" />
        </mxCell>
        <mxCell id="tFzAAHaU8S95K_Trg-Dz-538" value="0" style="whiteSpace=wrap;html=1;aspect=fixed;fontSize=16;fillColor=#fff2cc;strokeColor=#d6b656;" vertex="1" parent="1">
          <mxGeometry x="1476" y="1883" width="39" height="39" as="geometry" />
        </mxCell>
        <mxCell id="tFzAAHaU8S95K_Trg-Dz-539" value="&lt;div style=&quot;font-size: 20px;&quot;&gt;&lt;font style=&quot;font-size: 20px;&quot;&gt;Iter#1&lt;/font&gt;&lt;/div&gt;&lt;div style=&quot;font-size: 20px;&quot;&gt;&lt;font style=&quot;font-size: 20px;&quot;&gt;Preprocessing&lt;font style=&quot;font-size: 20px;&quot;&gt;&lt;br&gt;&lt;/font&gt;&lt;/font&gt;&lt;/div&gt;" style="text;strokeColor=none;align=center;fillColor=none;html=1;verticalAlign=middle;whiteSpace=wrap;rounded=0;" vertex="1" parent="1">
          <mxGeometry x="884" y="1244" width="97" height="30" as="geometry" />
        </mxCell>
        <mxCell id="tFzAAHaU8S95K_Trg-Dz-540" value="&lt;div style=&quot;font-size: 20px;&quot;&gt;&lt;font style=&quot;font-size: 20px;&quot;&gt;Iter#2&lt;/font&gt;&lt;/div&gt;&lt;div style=&quot;font-size: 20px;&quot;&gt;&lt;font style=&quot;font-size: 20px;&quot;&gt;Preprocessing&lt;font style=&quot;font-size: 20px;&quot;&gt;&lt;br&gt;&lt;/font&gt;&lt;/font&gt;&lt;/div&gt;" style="text;strokeColor=none;align=center;fillColor=none;html=1;verticalAlign=middle;whiteSpace=wrap;rounded=0;" vertex="1" parent="1">
          <mxGeometry x="884" y="1726" width="97" height="30" as="geometry" />
        </mxCell>
        <mxCell id="tFzAAHaU8S95K_Trg-Dz-541" value="&lt;div style=&quot;font-size: 20px;&quot;&gt;&lt;font style=&quot;font-size: 20px;&quot;&gt;Iter#2&lt;/font&gt;&lt;/div&gt;&lt;font style=&quot;font-size: 20px;&quot;&gt;BFS&lt;/font&gt;" style="text;strokeColor=none;align=center;fillColor=none;html=1;verticalAlign=middle;whiteSpace=wrap;rounded=0;" vertex="1" parent="1">
          <mxGeometry x="884" y="1961" width="97" height="30" as="geometry" />
        </mxCell>
        <mxCell id="tFzAAHaU8S95K_Trg-Dz-543" value="&lt;div style=&quot;font-size: 20px;&quot;&gt;&lt;font style=&quot;font-size: 20px;&quot;&gt;Iter#1&lt;/font&gt;&lt;/div&gt;&lt;font style=&quot;font-size: 20px;&quot;&gt;BFS&lt;/font&gt;" style="text;strokeColor=none;align=center;fillColor=none;html=1;verticalAlign=middle;whiteSpace=wrap;rounded=0;" vertex="1" parent="1">
          <mxGeometry x="884" y="1480.5" width="97" height="30" as="geometry" />
        </mxCell>
        <mxCell id="tFzAAHaU8S95K_Trg-Dz-572" value="189" style="whiteSpace=wrap;html=1;aspect=fixed;fontSize=16;fillColor=#1ba1e2;fontColor=#ffffff;strokeColor=#006EAF;" vertex="1" parent="1">
          <mxGeometry x="1258" y="651" width="39" height="39" as="geometry" />
        </mxCell>
        <mxCell id="tFzAAHaU8S95K_Trg-Dz-573" value="199" style="whiteSpace=wrap;html=1;aspect=fixed;fontSize=16;fillColor=#1ba1e2;fontColor=#ffffff;strokeColor=#006EAF;" vertex="1" parent="1">
          <mxGeometry x="1297" y="651" width="39" height="39" as="geometry" />
        </mxCell>
        <mxCell id="tFzAAHaU8S95K_Trg-Dz-574" value="210" style="whiteSpace=wrap;html=1;aspect=fixed;fontSize=16;fillColor=#e51400;fontColor=#ffffff;strokeColor=#B20000;" vertex="1" parent="1">
          <mxGeometry x="1336" y="651" width="39" height="39" as="geometry" />
        </mxCell>
        <mxCell id="tFzAAHaU8S95K_Trg-Dz-576" value="0" style="whiteSpace=wrap;html=1;aspect=fixed;fontSize=16;" vertex="1" parent="1">
          <mxGeometry x="1258" y="690" width="39" height="39" as="geometry" />
        </mxCell>
        <mxCell id="tFzAAHaU8S95K_Trg-Dz-577" value="0" style="whiteSpace=wrap;html=1;aspect=fixed;fontSize=16;" vertex="1" parent="1">
          <mxGeometry x="1297" y="690" width="39" height="39" as="geometry" />
        </mxCell>
        <mxCell id="tFzAAHaU8S95K_Trg-Dz-578" value="0" style="whiteSpace=wrap;html=1;aspect=fixed;fontSize=16;" vertex="1" parent="1">
          <mxGeometry x="1336" y="690" width="39" height="39" as="geometry" />
        </mxCell>
        <mxCell id="tFzAAHaU8S95K_Trg-Dz-580" value="180" style="whiteSpace=wrap;html=1;aspect=fixed;fontSize=16;fillColor=#1ba1e2;fontColor=#ffffff;strokeColor=#006EAF;" vertex="1" parent="1">
          <mxGeometry x="1258" y="727.5" width="39" height="39" as="geometry" />
        </mxCell>
        <mxCell id="tFzAAHaU8S95K_Trg-Dz-581" value="0" style="whiteSpace=wrap;html=1;aspect=fixed;fontSize=16;" vertex="1" parent="1">
          <mxGeometry x="1297" y="727.5" width="39" height="39" as="geometry" />
        </mxCell>
        <mxCell id="tFzAAHaU8S95K_Trg-Dz-582" value="0" style="whiteSpace=wrap;html=1;aspect=fixed;fontSize=16;" vertex="1" parent="1">
          <mxGeometry x="1336" y="727.5" width="39" height="39" as="geometry" />
        </mxCell>
        <mxCell id="tFzAAHaU8S95K_Trg-Dz-584" value="0" style="whiteSpace=wrap;html=1;aspect=fixed;fontSize=16;fillColor=#fff2cc;strokeColor=#d6b656;" vertex="1" parent="1">
          <mxGeometry x="1258" y="766.5" width="39" height="39" as="geometry" />
        </mxCell>
        <mxCell id="tFzAAHaU8S95K_Trg-Dz-585" value="0" style="whiteSpace=wrap;html=1;aspect=fixed;fontSize=16;fillColor=#fff2cc;strokeColor=#d6b656;" vertex="1" parent="1">
          <mxGeometry x="1297" y="766.5" width="39" height="39" as="geometry" />
        </mxCell>
        <mxCell id="tFzAAHaU8S95K_Trg-Dz-586" value="0" style="whiteSpace=wrap;html=1;aspect=fixed;fontSize=16;fillColor=#fff2cc;strokeColor=#d6b656;" vertex="1" parent="1">
          <mxGeometry x="1336" y="766.5" width="39" height="39" as="geometry" />
        </mxCell>
        <mxCell id="tFzAAHaU8S95K_Trg-Dz-588" value="0" style="whiteSpace=wrap;html=1;aspect=fixed;fontSize=16;fillColor=#fff2cc;strokeColor=#d6b656;" vertex="1" parent="1">
          <mxGeometry x="1258" y="612" width="39" height="39" as="geometry" />
        </mxCell>
        <mxCell id="tFzAAHaU8S95K_Trg-Dz-589" value="0" style="whiteSpace=wrap;html=1;aspect=fixed;fontSize=16;fillColor=#fff2cc;strokeColor=#d6b656;" vertex="1" parent="1">
          <mxGeometry x="1297" y="612" width="39" height="39" as="geometry" />
        </mxCell>
        <mxCell id="tFzAAHaU8S95K_Trg-Dz-590" value="0" style="whiteSpace=wrap;html=1;aspect=fixed;fontSize=16;fillColor=#fff2cc;strokeColor=#d6b656;" vertex="1" parent="1">
          <mxGeometry x="1336" y="612" width="39" height="39" as="geometry" />
        </mxCell>
        <mxCell id="tFzAAHaU8S95K_Trg-Dz-591" value="190" style="whiteSpace=wrap;html=1;aspect=fixed;fontSize=16;fillColor=#fff2cc;strokeColor=#d6b656;" vertex="1" parent="1">
          <mxGeometry x="1375" y="651" width="39" height="39" as="geometry" />
        </mxCell>
        <mxCell id="tFzAAHaU8S95K_Trg-Dz-592" value="0" style="whiteSpace=wrap;html=1;aspect=fixed;fontSize=16;fillColor=#fff2cc;strokeColor=#d6b656;" vertex="1" parent="1">
          <mxGeometry x="1375" y="690" width="39" height="39" as="geometry" />
        </mxCell>
        <mxCell id="tFzAAHaU8S95K_Trg-Dz-593" value="191" style="whiteSpace=wrap;html=1;aspect=fixed;fontSize=16;fillColor=#fff2cc;strokeColor=#d6b656;" vertex="1" parent="1">
          <mxGeometry x="1375" y="727.5" width="39" height="39" as="geometry" />
        </mxCell>
        <mxCell id="tFzAAHaU8S95K_Trg-Dz-594" value="193" style="whiteSpace=wrap;html=1;aspect=fixed;fontSize=16;fillColor=#fff2cc;strokeColor=#d6b656;" vertex="1" parent="1">
          <mxGeometry x="1375" y="766.5" width="39" height="39" as="geometry" />
        </mxCell>
        <mxCell id="tFzAAHaU8S95K_Trg-Dz-595" value="0" style="whiteSpace=wrap;html=1;aspect=fixed;fontSize=16;fillColor=#fff2cc;strokeColor=#d6b656;" vertex="1" parent="1">
          <mxGeometry x="1375" y="612" width="39" height="39" as="geometry" />
        </mxCell>
        <mxCell id="tFzAAHaU8S95K_Trg-Dz-596" value="188" style="whiteSpace=wrap;html=1;aspect=fixed;fontSize=16;fillColor=#fff2cc;strokeColor=#d6b656;" vertex="1" parent="1">
          <mxGeometry x="1102" y="651" width="39" height="39" as="geometry" />
        </mxCell>
        <mxCell id="tFzAAHaU8S95K_Trg-Dz-597" value="187" style="whiteSpace=wrap;html=1;aspect=fixed;fontSize=16;fillColor=#1ba1e2;fontColor=#ffffff;strokeColor=#006EAF;" vertex="1" parent="1">
          <mxGeometry x="1141" y="651" width="39" height="39" as="geometry" />
        </mxCell>
        <mxCell id="tFzAAHaU8S95K_Trg-Dz-598" value="186" style="whiteSpace=wrap;html=1;aspect=fixed;fontSize=16;fillColor=#1ba1e2;fontColor=#ffffff;strokeColor=#006EAF;" vertex="1" parent="1">
          <mxGeometry x="1180" y="651" width="39" height="39" as="geometry" />
        </mxCell>
        <mxCell id="tFzAAHaU8S95K_Trg-Dz-599" value="&lt;div&gt;188&lt;/div&gt;" style="whiteSpace=wrap;html=1;aspect=fixed;fontSize=16;fillColor=#1ba1e2;fontColor=#ffffff;strokeColor=#006EAF;" vertex="1" parent="1">
          <mxGeometry x="1219" y="651" width="39" height="39" as="geometry" />
        </mxCell>
        <mxCell id="tFzAAHaU8S95K_Trg-Dz-600" value="0" style="whiteSpace=wrap;html=1;aspect=fixed;fontSize=16;fillColor=#fff2cc;strokeColor=#d6b656;" vertex="1" parent="1">
          <mxGeometry x="1102" y="690" width="39" height="39" as="geometry" />
        </mxCell>
        <mxCell id="tFzAAHaU8S95K_Trg-Dz-601" value="0" style="whiteSpace=wrap;html=1;aspect=fixed;fontSize=16;" vertex="1" parent="1">
          <mxGeometry x="1141" y="690" width="39" height="39" as="geometry" />
        </mxCell>
        <mxCell id="tFzAAHaU8S95K_Trg-Dz-602" value="0" style="whiteSpace=wrap;html=1;aspect=fixed;fontSize=16;" vertex="1" parent="1">
          <mxGeometry x="1180" y="690" width="39" height="39" as="geometry" />
        </mxCell>
        <mxCell id="tFzAAHaU8S95K_Trg-Dz-603" value="166" style="whiteSpace=wrap;html=1;aspect=fixed;fontSize=16;" vertex="1" parent="1">
          <mxGeometry x="1219" y="690" width="39" height="39" as="geometry" />
        </mxCell>
        <mxCell id="tFzAAHaU8S95K_Trg-Dz-604" value="0" style="whiteSpace=wrap;html=1;aspect=fixed;fontSize=16;fillColor=#fff2cc;strokeColor=#d6b656;" vertex="1" parent="1">
          <mxGeometry x="1102" y="727.5" width="39" height="39" as="geometry" />
        </mxCell>
        <mxCell id="tFzAAHaU8S95K_Trg-Dz-605" value="237" style="whiteSpace=wrap;html=1;aspect=fixed;fontSize=16;fillColor=#e51400;fontColor=#ffffff;strokeColor=#B20000;" vertex="1" parent="1">
          <mxGeometry x="1141" y="727.5" width="39" height="39" as="geometry" />
        </mxCell>
        <mxCell id="tFzAAHaU8S95K_Trg-Dz-606" value="187" style="whiteSpace=wrap;html=1;aspect=fixed;fontSize=16;fillColor=#1ba1e2;fontColor=#ffffff;strokeColor=#006EAF;" vertex="1" parent="1">
          <mxGeometry x="1180" y="727.5" width="39" height="39" as="geometry" />
        </mxCell>
        <mxCell id="tFzAAHaU8S95K_Trg-Dz-607" value="199" style="whiteSpace=wrap;html=1;aspect=fixed;fontSize=16;fillColor=#1ba1e2;fontColor=#ffffff;strokeColor=#006EAF;" vertex="1" parent="1">
          <mxGeometry x="1219" y="727.5" width="39" height="39" as="geometry" />
        </mxCell>
        <mxCell id="tFzAAHaU8S95K_Trg-Dz-608" value="0" style="whiteSpace=wrap;html=1;aspect=fixed;fontSize=16;fillColor=#fff2cc;strokeColor=#d6b656;" vertex="1" parent="1">
          <mxGeometry x="1102" y="766.5" width="39" height="39" as="geometry" />
        </mxCell>
        <mxCell id="tFzAAHaU8S95K_Trg-Dz-609" value="122" style="whiteSpace=wrap;html=1;aspect=fixed;fontSize=16;fillColor=#fff2cc;strokeColor=#d6b656;" vertex="1" parent="1">
          <mxGeometry x="1141" y="766.5" width="39" height="39" as="geometry" />
        </mxCell>
        <mxCell id="tFzAAHaU8S95K_Trg-Dz-610" value="125" style="whiteSpace=wrap;html=1;aspect=fixed;fontSize=16;fillColor=#fff2cc;strokeColor=#d6b656;" vertex="1" parent="1">
          <mxGeometry x="1180" y="766.5" width="39" height="39" as="geometry" />
        </mxCell>
        <mxCell id="tFzAAHaU8S95K_Trg-Dz-611" value="187" style="whiteSpace=wrap;html=1;aspect=fixed;fontSize=16;fillColor=#fff2cc;strokeColor=#d6b656;" vertex="1" parent="1">
          <mxGeometry x="1219" y="766.5" width="39" height="39" as="geometry" />
        </mxCell>
        <mxCell id="tFzAAHaU8S95K_Trg-Dz-612" value="0" style="whiteSpace=wrap;html=1;aspect=fixed;fontSize=16;fillColor=#fff2cc;strokeColor=#d6b656;" vertex="1" parent="1">
          <mxGeometry x="1102" y="612" width="39" height="39" as="geometry" />
        </mxCell>
        <mxCell id="tFzAAHaU8S95K_Trg-Dz-613" value="0" style="whiteSpace=wrap;html=1;aspect=fixed;fontSize=16;fillColor=#fff2cc;strokeColor=#d6b656;" vertex="1" parent="1">
          <mxGeometry x="1141" y="612" width="39" height="39" as="geometry" />
        </mxCell>
        <mxCell id="tFzAAHaU8S95K_Trg-Dz-614" value="0" style="whiteSpace=wrap;html=1;aspect=fixed;fontSize=16;fillColor=#fff2cc;strokeColor=#d6b656;" vertex="1" parent="1">
          <mxGeometry x="1180" y="612" width="39" height="39" as="geometry" />
        </mxCell>
        <mxCell id="tFzAAHaU8S95K_Trg-Dz-615" value="0" style="whiteSpace=wrap;html=1;aspect=fixed;fontSize=16;fillColor=#fff2cc;strokeColor=#d6b656;" vertex="1" parent="1">
          <mxGeometry x="1219" y="612" width="39" height="39" as="geometry" />
        </mxCell>
        <mxCell id="tFzAAHaU8S95K_Trg-Dz-671" value="" style="rounded=0;whiteSpace=wrap;html=1;fillColor=none;fontColor=#ffffff;strokeColor=#B20000;strokeWidth=7;" vertex="1" parent="1">
          <mxGeometry x="1102" y="611" width="196" height="195" as="geometry" />
        </mxCell>
        <mxCell id="tFzAAHaU8S95K_Trg-Dz-672" value="" style="rounded=0;whiteSpace=wrap;html=1;fillColor=none;fontColor=#ffffff;strokeColor=#3333FF;strokeWidth=7;" vertex="1" parent="1">
          <mxGeometry x="1219" y="610.5" width="196" height="195" as="geometry" />
        </mxCell>
        <mxCell id="tFzAAHaU8S95K_Trg-Dz-673" value="189" style="whiteSpace=wrap;html=1;aspect=fixed;fontSize=16;fillColor=#fff2cc;strokeColor=#d6b656;" vertex="1" parent="1">
          <mxGeometry x="1186" y="961.5" width="39" height="39" as="geometry" />
        </mxCell>
        <mxCell id="tFzAAHaU8S95K_Trg-Dz-674" value="0" style="whiteSpace=wrap;html=1;aspect=fixed;fontSize=16;fillColor=#fff2cc;strokeColor=#d6b656;" vertex="1" parent="1">
          <mxGeometry x="1186" y="1000.5" width="39" height="39" as="geometry" />
        </mxCell>
        <mxCell id="tFzAAHaU8S95K_Trg-Dz-675" value="180" style="whiteSpace=wrap;html=1;aspect=fixed;fontSize=16;fillColor=#fff2cc;strokeColor=#d6b656;" vertex="1" parent="1">
          <mxGeometry x="1186" y="1038" width="39" height="39" as="geometry" />
        </mxCell>
        <mxCell id="tFzAAHaU8S95K_Trg-Dz-676" value="0" style="whiteSpace=wrap;html=1;aspect=fixed;fontSize=16;fillColor=#fff2cc;strokeColor=#d6b656;" vertex="1" parent="1">
          <mxGeometry x="1186" y="1077" width="39" height="39" as="geometry" />
        </mxCell>
        <mxCell id="tFzAAHaU8S95K_Trg-Dz-677" value="0" style="whiteSpace=wrap;html=1;aspect=fixed;fontSize=16;fillColor=#fff2cc;strokeColor=#d6b656;" vertex="1" parent="1">
          <mxGeometry x="1186" y="922.5" width="39" height="39" as="geometry" />
        </mxCell>
        <mxCell id="tFzAAHaU8S95K_Trg-Dz-678" value="188" style="whiteSpace=wrap;html=1;aspect=fixed;fontSize=16;fillColor=#fff2cc;strokeColor=#d6b656;" vertex="1" parent="1">
          <mxGeometry x="1030" y="961.5" width="39" height="39" as="geometry" />
        </mxCell>
        <mxCell id="tFzAAHaU8S95K_Trg-Dz-679" value="187" style="whiteSpace=wrap;html=1;aspect=fixed;fontSize=16;fillColor=#1ba1e2;fontColor=#ffffff;strokeColor=#006EAF;" vertex="1" parent="1">
          <mxGeometry x="1069" y="961.5" width="39" height="39" as="geometry" />
        </mxCell>
        <mxCell id="tFzAAHaU8S95K_Trg-Dz-680" value="186" style="whiteSpace=wrap;html=1;aspect=fixed;fontSize=16;fillColor=#1ba1e2;fontColor=#ffffff;strokeColor=#006EAF;" vertex="1" parent="1">
          <mxGeometry x="1108" y="961.5" width="39" height="39" as="geometry" />
        </mxCell>
        <mxCell id="tFzAAHaU8S95K_Trg-Dz-681" value="&lt;div&gt;188&lt;/div&gt;" style="whiteSpace=wrap;html=1;aspect=fixed;fontSize=16;fillColor=#1ba1e2;fontColor=#ffffff;strokeColor=#006EAF;" vertex="1" parent="1">
          <mxGeometry x="1147" y="961.5" width="39" height="39" as="geometry" />
        </mxCell>
        <mxCell id="tFzAAHaU8S95K_Trg-Dz-682" value="0" style="whiteSpace=wrap;html=1;aspect=fixed;fontSize=16;fillColor=#fff2cc;strokeColor=#d6b656;" vertex="1" parent="1">
          <mxGeometry x="1030" y="1000.5" width="39" height="39" as="geometry" />
        </mxCell>
        <mxCell id="tFzAAHaU8S95K_Trg-Dz-683" value="0" style="whiteSpace=wrap;html=1;aspect=fixed;fontSize=16;" vertex="1" parent="1">
          <mxGeometry x="1069" y="1000.5" width="39" height="39" as="geometry" />
        </mxCell>
        <mxCell id="tFzAAHaU8S95K_Trg-Dz-684" value="0" style="whiteSpace=wrap;html=1;aspect=fixed;fontSize=16;" vertex="1" parent="1">
          <mxGeometry x="1108" y="1000.5" width="39" height="39" as="geometry" />
        </mxCell>
        <mxCell id="tFzAAHaU8S95K_Trg-Dz-685" value="166" style="whiteSpace=wrap;html=1;aspect=fixed;fontSize=16;" vertex="1" parent="1">
          <mxGeometry x="1147" y="1000.5" width="39" height="39" as="geometry" />
        </mxCell>
        <mxCell id="tFzAAHaU8S95K_Trg-Dz-686" value="0" style="whiteSpace=wrap;html=1;aspect=fixed;fontSize=16;fillColor=#fff2cc;strokeColor=#d6b656;" vertex="1" parent="1">
          <mxGeometry x="1030" y="1038" width="39" height="39" as="geometry" />
        </mxCell>
        <mxCell id="tFzAAHaU8S95K_Trg-Dz-687" value="237" style="whiteSpace=wrap;html=1;aspect=fixed;fontSize=16;fillColor=#e51400;fontColor=#ffffff;strokeColor=#B20000;" vertex="1" parent="1">
          <mxGeometry x="1069" y="1038" width="39" height="39" as="geometry" />
        </mxCell>
        <mxCell id="tFzAAHaU8S95K_Trg-Dz-688" value="187" style="whiteSpace=wrap;html=1;aspect=fixed;fontSize=16;fillColor=#1ba1e2;fontColor=#ffffff;strokeColor=#006EAF;" vertex="1" parent="1">
          <mxGeometry x="1108" y="1038" width="39" height="39" as="geometry" />
        </mxCell>
        <mxCell id="tFzAAHaU8S95K_Trg-Dz-689" value="199" style="whiteSpace=wrap;html=1;aspect=fixed;fontSize=16;fillColor=#1ba1e2;fontColor=#ffffff;strokeColor=#006EAF;" vertex="1" parent="1">
          <mxGeometry x="1147" y="1038" width="39" height="39" as="geometry" />
        </mxCell>
        <mxCell id="tFzAAHaU8S95K_Trg-Dz-690" value="0" style="whiteSpace=wrap;html=1;aspect=fixed;fontSize=16;fillColor=#fff2cc;strokeColor=#d6b656;" vertex="1" parent="1">
          <mxGeometry x="1030" y="1077" width="39" height="39" as="geometry" />
        </mxCell>
        <mxCell id="tFzAAHaU8S95K_Trg-Dz-691" value="122" style="whiteSpace=wrap;html=1;aspect=fixed;fontSize=16;fillColor=#fff2cc;strokeColor=#d6b656;" vertex="1" parent="1">
          <mxGeometry x="1069" y="1077" width="39" height="39" as="geometry" />
        </mxCell>
        <mxCell id="tFzAAHaU8S95K_Trg-Dz-692" value="125" style="whiteSpace=wrap;html=1;aspect=fixed;fontSize=16;fillColor=#fff2cc;strokeColor=#d6b656;" vertex="1" parent="1">
          <mxGeometry x="1108" y="1077" width="39" height="39" as="geometry" />
        </mxCell>
        <mxCell id="tFzAAHaU8S95K_Trg-Dz-693" value="187" style="whiteSpace=wrap;html=1;aspect=fixed;fontSize=16;fillColor=#fff2cc;strokeColor=#d6b656;" vertex="1" parent="1">
          <mxGeometry x="1147" y="1077" width="39" height="39" as="geometry" />
        </mxCell>
        <mxCell id="tFzAAHaU8S95K_Trg-Dz-694" value="0" style="whiteSpace=wrap;html=1;aspect=fixed;fontSize=16;fillColor=#fff2cc;strokeColor=#d6b656;" vertex="1" parent="1">
          <mxGeometry x="1030" y="922.5" width="39" height="39" as="geometry" />
        </mxCell>
        <mxCell id="tFzAAHaU8S95K_Trg-Dz-695" value="0" style="whiteSpace=wrap;html=1;aspect=fixed;fontSize=16;fillColor=#fff2cc;strokeColor=#d6b656;" vertex="1" parent="1">
          <mxGeometry x="1069" y="922.5" width="39" height="39" as="geometry" />
        </mxCell>
        <mxCell id="tFzAAHaU8S95K_Trg-Dz-696" value="0" style="whiteSpace=wrap;html=1;aspect=fixed;fontSize=16;fillColor=#fff2cc;strokeColor=#d6b656;" vertex="1" parent="1">
          <mxGeometry x="1108" y="922.5" width="39" height="39" as="geometry" />
        </mxCell>
        <mxCell id="tFzAAHaU8S95K_Trg-Dz-697" value="0" style="whiteSpace=wrap;html=1;aspect=fixed;fontSize=16;fillColor=#fff2cc;strokeColor=#d6b656;" vertex="1" parent="1">
          <mxGeometry x="1147" y="922.5" width="39" height="39" as="geometry" />
        </mxCell>
        <mxCell id="tFzAAHaU8S95K_Trg-Dz-725" value="189" style="whiteSpace=wrap;html=1;aspect=fixed;fontSize=16;fillColor=#1ba1e2;fontColor=#ffffff;strokeColor=#006EAF;" vertex="1" parent="1">
          <mxGeometry x="1360" y="961.5" width="39" height="39" as="geometry" />
        </mxCell>
        <mxCell id="tFzAAHaU8S95K_Trg-Dz-726" value="199" style="whiteSpace=wrap;html=1;aspect=fixed;fontSize=16;fillColor=#1ba1e2;fontColor=#ffffff;strokeColor=#006EAF;" vertex="1" parent="1">
          <mxGeometry x="1399" y="961.5" width="39" height="39" as="geometry" />
        </mxCell>
        <mxCell id="tFzAAHaU8S95K_Trg-Dz-727" value="210" style="whiteSpace=wrap;html=1;aspect=fixed;fontSize=16;fillColor=#e51400;fontColor=#ffffff;strokeColor=#B20000;" vertex="1" parent="1">
          <mxGeometry x="1438" y="961.5" width="39" height="39" as="geometry" />
        </mxCell>
        <mxCell id="tFzAAHaU8S95K_Trg-Dz-728" value="0" style="whiteSpace=wrap;html=1;aspect=fixed;fontSize=16;" vertex="1" parent="1">
          <mxGeometry x="1360" y="1000.5" width="39" height="39" as="geometry" />
        </mxCell>
        <mxCell id="tFzAAHaU8S95K_Trg-Dz-729" value="0" style="whiteSpace=wrap;html=1;aspect=fixed;fontSize=16;" vertex="1" parent="1">
          <mxGeometry x="1399" y="1000.5" width="39" height="39" as="geometry" />
        </mxCell>
        <mxCell id="tFzAAHaU8S95K_Trg-Dz-730" value="0" style="whiteSpace=wrap;html=1;aspect=fixed;fontSize=16;" vertex="1" parent="1">
          <mxGeometry x="1438" y="1000.5" width="39" height="39" as="geometry" />
        </mxCell>
        <mxCell id="tFzAAHaU8S95K_Trg-Dz-731" value="180" style="whiteSpace=wrap;html=1;aspect=fixed;fontSize=16;fillColor=#1ba1e2;fontColor=#ffffff;strokeColor=#006EAF;" vertex="1" parent="1">
          <mxGeometry x="1360" y="1038" width="39" height="39" as="geometry" />
        </mxCell>
        <mxCell id="tFzAAHaU8S95K_Trg-Dz-732" value="0" style="whiteSpace=wrap;html=1;aspect=fixed;fontSize=16;" vertex="1" parent="1">
          <mxGeometry x="1399" y="1038" width="39" height="39" as="geometry" />
        </mxCell>
        <mxCell id="tFzAAHaU8S95K_Trg-Dz-733" value="0" style="whiteSpace=wrap;html=1;aspect=fixed;fontSize=16;" vertex="1" parent="1">
          <mxGeometry x="1438" y="1038" width="39" height="39" as="geometry" />
        </mxCell>
        <mxCell id="tFzAAHaU8S95K_Trg-Dz-734" value="0" style="whiteSpace=wrap;html=1;aspect=fixed;fontSize=16;fillColor=#fff2cc;strokeColor=#d6b656;" vertex="1" parent="1">
          <mxGeometry x="1360" y="1077" width="39" height="39" as="geometry" />
        </mxCell>
        <mxCell id="tFzAAHaU8S95K_Trg-Dz-735" value="0" style="whiteSpace=wrap;html=1;aspect=fixed;fontSize=16;fillColor=#fff2cc;strokeColor=#d6b656;" vertex="1" parent="1">
          <mxGeometry x="1399" y="1077" width="39" height="39" as="geometry" />
        </mxCell>
        <mxCell id="tFzAAHaU8S95K_Trg-Dz-736" value="0" style="whiteSpace=wrap;html=1;aspect=fixed;fontSize=16;fillColor=#fff2cc;strokeColor=#d6b656;" vertex="1" parent="1">
          <mxGeometry x="1438" y="1077" width="39" height="39" as="geometry" />
        </mxCell>
        <mxCell id="tFzAAHaU8S95K_Trg-Dz-737" value="0" style="whiteSpace=wrap;html=1;aspect=fixed;fontSize=16;fillColor=#fff2cc;strokeColor=#d6b656;" vertex="1" parent="1">
          <mxGeometry x="1360" y="922.5" width="39" height="39" as="geometry" />
        </mxCell>
        <mxCell id="tFzAAHaU8S95K_Trg-Dz-738" value="0" style="whiteSpace=wrap;html=1;aspect=fixed;fontSize=16;fillColor=#fff2cc;strokeColor=#d6b656;" vertex="1" parent="1">
          <mxGeometry x="1399" y="922.5" width="39" height="39" as="geometry" />
        </mxCell>
        <mxCell id="tFzAAHaU8S95K_Trg-Dz-739" value="0" style="whiteSpace=wrap;html=1;aspect=fixed;fontSize=16;fillColor=#fff2cc;strokeColor=#d6b656;" vertex="1" parent="1">
          <mxGeometry x="1438" y="922.5" width="39" height="39" as="geometry" />
        </mxCell>
        <mxCell id="tFzAAHaU8S95K_Trg-Dz-740" value="190" style="whiteSpace=wrap;html=1;aspect=fixed;fontSize=16;fillColor=#fff2cc;strokeColor=#d6b656;" vertex="1" parent="1">
          <mxGeometry x="1477" y="961.5" width="39" height="39" as="geometry" />
        </mxCell>
        <mxCell id="tFzAAHaU8S95K_Trg-Dz-741" value="0" style="whiteSpace=wrap;html=1;aspect=fixed;fontSize=16;fillColor=#fff2cc;strokeColor=#d6b656;" vertex="1" parent="1">
          <mxGeometry x="1477" y="1000.5" width="39" height="39" as="geometry" />
        </mxCell>
        <mxCell id="tFzAAHaU8S95K_Trg-Dz-742" value="191" style="whiteSpace=wrap;html=1;aspect=fixed;fontSize=16;fillColor=#fff2cc;strokeColor=#d6b656;" vertex="1" parent="1">
          <mxGeometry x="1477" y="1038" width="39" height="39" as="geometry" />
        </mxCell>
        <mxCell id="tFzAAHaU8S95K_Trg-Dz-743" value="193" style="whiteSpace=wrap;html=1;aspect=fixed;fontSize=16;fillColor=#fff2cc;strokeColor=#d6b656;" vertex="1" parent="1">
          <mxGeometry x="1477" y="1077" width="39" height="39" as="geometry" />
        </mxCell>
        <mxCell id="tFzAAHaU8S95K_Trg-Dz-744" value="0" style="whiteSpace=wrap;html=1;aspect=fixed;fontSize=16;fillColor=#fff2cc;strokeColor=#d6b656;" vertex="1" parent="1">
          <mxGeometry x="1477" y="922.5" width="39" height="39" as="geometry" />
        </mxCell>
        <mxCell id="tFzAAHaU8S95K_Trg-Dz-745" value="&lt;div&gt;188&lt;/div&gt;" style="whiteSpace=wrap;html=1;aspect=fixed;fontSize=16;fillColor=#ffe6cc;strokeColor=#d79b00;" vertex="1" parent="1">
          <mxGeometry x="1321" y="961.5" width="39" height="39" as="geometry" />
        </mxCell>
        <mxCell id="tFzAAHaU8S95K_Trg-Dz-746" value="166" style="whiteSpace=wrap;html=1;aspect=fixed;fontSize=16;fillColor=#ffe6cc;strokeColor=#d79b00;" vertex="1" parent="1">
          <mxGeometry x="1321" y="1000.5" width="39" height="39" as="geometry" />
        </mxCell>
        <mxCell id="tFzAAHaU8S95K_Trg-Dz-747" value="199" style="whiteSpace=wrap;html=1;aspect=fixed;fontSize=16;fillColor=#ffe6cc;strokeColor=#d79b00;" vertex="1" parent="1">
          <mxGeometry x="1321" y="1038" width="39" height="39" as="geometry" />
        </mxCell>
        <mxCell id="tFzAAHaU8S95K_Trg-Dz-748" value="187" style="whiteSpace=wrap;html=1;aspect=fixed;fontSize=16;fillColor=#fff2cc;strokeColor=#d6b656;" vertex="1" parent="1">
          <mxGeometry x="1321" y="1077" width="39" height="39" as="geometry" />
        </mxCell>
        <mxCell id="tFzAAHaU8S95K_Trg-Dz-749" value="0" style="whiteSpace=wrap;html=1;aspect=fixed;fontSize=16;fillColor=#fff2cc;strokeColor=#d6b656;" vertex="1" parent="1">
          <mxGeometry x="1321" y="922.5" width="39" height="39" as="geometry" />
        </mxCell>
        <mxCell id="tFzAAHaU8S95K_Trg-Dz-751" value="" style="endArrow=classic;html=1;rounded=0;exitX=0.5;exitY=1;exitDx=0;exitDy=0;entryX=0.5;entryY=0;entryDx=0;entryDy=0;" edge="1" parent="1" source="tFzAAHaU8S95K_Trg-Dz-671" target="tFzAAHaU8S95K_Trg-Dz-698">
          <mxGeometry width="50" height="50" relative="1" as="geometry">
            <mxPoint x="1108" y="1032" as="sourcePoint" />
            <mxPoint x="1158" y="982" as="targetPoint" />
          </mxGeometry>
        </mxCell>
        <mxCell id="tFzAAHaU8S95K_Trg-Dz-752" value="" style="endArrow=classic;html=1;rounded=0;exitX=0.5;exitY=1;exitDx=0;exitDy=0;entryX=0.5;entryY=0;entryDx=0;entryDy=0;" edge="1" parent="1" source="tFzAAHaU8S95K_Trg-Dz-672" target="tFzAAHaU8S95K_Trg-Dz-750">
          <mxGeometry width="50" height="50" relative="1" as="geometry">
            <mxPoint x="1210" y="816" as="sourcePoint" />
            <mxPoint x="1135" y="1085" as="targetPoint" />
          </mxGeometry>
        </mxCell>
        <mxCell id="tFzAAHaU8S95K_Trg-Dz-753" value="" style="rounded=0;whiteSpace=wrap;html=1;fillColor=none;strokeColor=none;" vertex="1" parent="1">
          <mxGeometry x="851" y="589" width="694" height="1510" as="geometry" />
        </mxCell>
        <mxCell id="tFzAAHaU8S95K_Trg-Dz-755" value="" style="rounded=0;whiteSpace=wrap;html=1;fillColor=none;strokeColor=none;" vertex="1" parent="1">
          <mxGeometry x="77" y="1268" width="438" height="632.5" as="geometry" />
        </mxCell>
        <mxCell id="tFzAAHaU8S95K_Trg-Dz-756" value="&lt;div&gt;MS&lt;/div&gt;" style="ellipse;whiteSpace=wrap;html=1;aspect=fixed;fontColor=#FFFFFF;fillColor=#000000;" vertex="1" parent="1">
          <mxGeometry x="296.5" y="1277" width="49" height="49" as="geometry" />
        </mxCell>
        <mxCell id="tFzAAHaU8S95K_Trg-Dz-757" value="&lt;div&gt;Th1&lt;/div&gt;" style="ellipse;whiteSpace=wrap;html=1;aspect=fixed;fillColor=none;strokeColor=#000000;fontColor=#000000;labelBackgroundColor=none;" vertex="1" parent="1">
          <mxGeometry x="194" y="1354" width="37" height="37" as="geometry" />
        </mxCell>
        <mxCell id="tFzAAHaU8S95K_Trg-Dz-758" value="" style="endArrow=classic;html=1;rounded=0;strokeColor=#000000;exitX=0.5;exitY=1;exitDx=0;exitDy=0;entryX=0.5;entryY=0;entryDx=0;entryDy=0;" edge="1" parent="1" source="tFzAAHaU8S95K_Trg-Dz-756" target="tFzAAHaU8S95K_Trg-Dz-757">
          <mxGeometry width="50" height="50" relative="1" as="geometry">
            <mxPoint x="145" y="1400" as="sourcePoint" />
            <mxPoint x="195" y="1350" as="targetPoint" />
          </mxGeometry>
        </mxCell>
        <mxCell id="tFzAAHaU8S95K_Trg-Dz-759" value="&lt;div&gt;Th2&lt;/div&gt;" style="ellipse;whiteSpace=wrap;html=1;aspect=fixed;fillColor=none;strokeColor=#000000;fontColor=#000000;labelBackgroundColor=none;" vertex="1" parent="1">
          <mxGeometry x="272" y="1354" width="37" height="37" as="geometry" />
        </mxCell>
        <mxCell id="tFzAAHaU8S95K_Trg-Dz-760" value="" style="endArrow=classic;html=1;rounded=0;strokeColor=#000000;exitX=0.5;exitY=1;exitDx=0;exitDy=0;entryX=0.5;entryY=0;entryDx=0;entryDy=0;" edge="1" parent="1" source="tFzAAHaU8S95K_Trg-Dz-756" target="tFzAAHaU8S95K_Trg-Dz-759">
          <mxGeometry width="50" height="50" relative="1" as="geometry">
            <mxPoint x="352" y="1333" as="sourcePoint" />
            <mxPoint x="237" y="1364" as="targetPoint" />
          </mxGeometry>
        </mxCell>
        <mxCell id="tFzAAHaU8S95K_Trg-Dz-761" value="&lt;div&gt;ThN&lt;/div&gt;" style="ellipse;whiteSpace=wrap;html=1;aspect=fixed;fillColor=none;strokeColor=#000000;fontColor=#000000;labelBackgroundColor=none;" vertex="1" parent="1">
          <mxGeometry x="406" y="1354" width="37" height="37" as="geometry" />
        </mxCell>
        <mxCell id="tFzAAHaU8S95K_Trg-Dz-762" value="" style="endArrow=classic;html=1;rounded=0;strokeColor=#000000;exitX=0.5;exitY=1;exitDx=0;exitDy=0;entryX=0.5;entryY=0;entryDx=0;entryDy=0;" edge="1" parent="1" source="tFzAAHaU8S95K_Trg-Dz-756" target="tFzAAHaU8S95K_Trg-Dz-761">
          <mxGeometry width="50" height="50" relative="1" as="geometry">
            <mxPoint x="352" y="1333" as="sourcePoint" />
            <mxPoint x="301" y="1364" as="targetPoint" />
          </mxGeometry>
        </mxCell>
        <mxCell id="tFzAAHaU8S95K_Trg-Dz-763" value="" style="endArrow=none;dashed=1;html=1;dashPattern=1 3;strokeWidth=2;rounded=0;strokeColor=#000000;exitX=1;exitY=0.5;exitDx=0;exitDy=0;entryX=0;entryY=0.5;entryDx=0;entryDy=0;fontColor=#000000;" edge="1" parent="1" source="tFzAAHaU8S95K_Trg-Dz-759" target="tFzAAHaU8S95K_Trg-Dz-761">
          <mxGeometry width="50" height="50" relative="1" as="geometry">
            <mxPoint x="322" y="1626" as="sourcePoint" />
            <mxPoint x="372" y="1576" as="targetPoint" />
          </mxGeometry>
        </mxCell>
        <mxCell id="tFzAAHaU8S95K_Trg-Dz-764" value="&lt;div&gt;MS&lt;/div&gt;" style="ellipse;whiteSpace=wrap;html=1;aspect=fixed;fillColor=#000000;fontColor=#FFFFFF;" vertex="1" parent="1">
          <mxGeometry x="296.5" y="1420" width="49" height="49" as="geometry" />
        </mxCell>
        <mxCell id="tFzAAHaU8S95K_Trg-Dz-765" value="" style="endArrow=classic;html=1;rounded=0;strokeColor=#000000;exitX=0.5;exitY=1;exitDx=0;exitDy=0;entryX=0.5;entryY=0;entryDx=0;entryDy=0;" edge="1" parent="1" source="tFzAAHaU8S95K_Trg-Dz-757" target="tFzAAHaU8S95K_Trg-Dz-764">
          <mxGeometry width="50" height="50" relative="1" as="geometry">
            <mxPoint x="334" y="1335" as="sourcePoint" />
            <mxPoint x="237" y="1364" as="targetPoint" />
          </mxGeometry>
        </mxCell>
        <mxCell id="tFzAAHaU8S95K_Trg-Dz-766" value="" style="endArrow=classic;html=1;rounded=0;strokeColor=#000000;exitX=0.5;exitY=1;exitDx=0;exitDy=0;entryX=0.5;entryY=0;entryDx=0;entryDy=0;" edge="1" parent="1" source="tFzAAHaU8S95K_Trg-Dz-759" target="tFzAAHaU8S95K_Trg-Dz-764">
          <mxGeometry width="50" height="50" relative="1" as="geometry">
            <mxPoint x="237" y="1401" as="sourcePoint" />
            <mxPoint x="334" y="1443" as="targetPoint" />
          </mxGeometry>
        </mxCell>
        <mxCell id="tFzAAHaU8S95K_Trg-Dz-767" value="" style="endArrow=classic;html=1;rounded=0;strokeColor=#000000;exitX=0.5;exitY=1;exitDx=0;exitDy=0;entryX=0.5;entryY=0;entryDx=0;entryDy=0;" edge="1" parent="1" source="tFzAAHaU8S95K_Trg-Dz-761" target="tFzAAHaU8S95K_Trg-Dz-764">
          <mxGeometry width="50" height="50" relative="1" as="geometry">
            <mxPoint x="301" y="1401" as="sourcePoint" />
            <mxPoint x="334" y="1443" as="targetPoint" />
          </mxGeometry>
        </mxCell>
        <mxCell id="tFzAAHaU8S95K_Trg-Dz-768" value="&lt;font style=&quot;font-size: 17px;&quot;&gt;Smoothing&lt;/font&gt;" style="rounded=0;whiteSpace=wrap;html=1;fillColor=none;fontColor=#000000;strokeColor=#FFFFFF;" vertex="1" parent="1">
          <mxGeometry x="93" y="1343.5" width="90" height="58" as="geometry" />
        </mxCell>
        <mxCell id="tFzAAHaU8S95K_Trg-Dz-769" value="&lt;div style=&quot;font-size: 17px;&quot;&gt;&lt;font style=&quot;font-size: 17px;&quot;&gt;Gaussian&lt;/font&gt;&lt;/div&gt;&lt;div style=&quot;font-size: 17px;&quot;&gt;&lt;font style=&quot;font-size: 17px;&quot;&gt;Computation&lt;font style=&quot;font-size: 17px;&quot;&gt;&lt;br&gt;&lt;/font&gt;&lt;/font&gt;&lt;/div&gt;" style="rounded=0;whiteSpace=wrap;html=1;fillColor=none;fontColor=#000000;strokeColor=#FFFFFF;" vertex="1" parent="1">
          <mxGeometry x="93" y="1486.5" width="90" height="58" as="geometry" />
        </mxCell>
        <mxCell id="tFzAAHaU8S95K_Trg-Dz-770" value="&lt;h2 style=&quot;font-size: 17px;&quot; aria-describedby=&quot;popover878596&quot; title=&quot;&quot; data-original-title=&quot;&quot; data-id=&quot;23-Nonmaxima-suppression&quot; id=&quot;23-Nonmaxima-suppression&quot; data-endline=&quot;65&quot; data-startline=&quot;65&quot; class=&quot;part in-view&quot;&gt;&lt;span style=&quot;font-weight: normal;&quot;&gt;Nonmaxima Suppression&lt;/span&gt;&lt;/h2&gt;" style="rounded=0;whiteSpace=wrap;html=1;fillColor=none;fontColor=#000000;strokeColor=#FFFFFF;" vertex="1" parent="1">
          <mxGeometry x="93" y="1633" width="90" height="58" as="geometry" />
        </mxCell>
        <mxCell id="tFzAAHaU8S95K_Trg-Dz-771" value="&lt;font style=&quot;font-size: 17px;&quot;&gt;Double Thresholding&lt;br&gt;&lt;/font&gt;" style="rounded=0;whiteSpace=wrap;html=1;fillColor=none;fontColor=#000000;strokeColor=#FFFFFF;" vertex="1" parent="1">
          <mxGeometry x="93" y="1775" width="90" height="58" as="geometry" />
        </mxCell>
        <mxCell id="tFzAAHaU8S95K_Trg-Dz-772" value="sub-img1" style="rounded=0;whiteSpace=wrap;html=1;fillColor=none;fontColor=#000000;strokeColor=#FFFFFF;" vertex="1" parent="1">
          <mxGeometry x="224" y="1354.38" width="57" height="0.5" as="geometry" />
        </mxCell>
        <mxCell id="tFzAAHaU8S95K_Trg-Dz-773" value="sub-img N" style="rounded=0;whiteSpace=wrap;html=1;fillColor=none;fontColor=#000000;strokeColor=#FFFFFF;" vertex="1" parent="1">
          <mxGeometry x="440" y="1352.75" width="63" height="3.75" as="geometry" />
        </mxCell>
        <mxCell id="tFzAAHaU8S95K_Trg-Dz-774" value="sub-img2" style="rounded=0;whiteSpace=wrap;html=1;fillColor=none;fontColor=#000000;strokeColor=#FFFFFF;" vertex="1" parent="1">
          <mxGeometry x="301.5" y="1352" width="56.5" height="4.5" as="geometry" />
        </mxCell>
        <mxCell id="tFzAAHaU8S95K_Trg-Dz-775" value="&lt;h3 style=&quot;font-size: 15px;&quot; data-id=&quot;Hysteresis-Edge-Linking&quot; id=&quot;Hysteresis-Edge-Linking&quot; data-endline=&quot;118&quot; data-startline=&quot;118&quot; class=&quot;part in-view&quot;&gt;&lt;font size=&quot;1&quot;&gt;&lt;span style=&quot;font-weight: normal; font-size: 17px;&quot;&gt;Hysteresis Edge Linking&lt;/span&gt;&lt;/font&gt;&lt;/h3&gt;" style="rounded=0;whiteSpace=wrap;html=1;fillColor=none;fontColor=#000000;strokeColor=#FFFFFF;" vertex="1" parent="1">
          <mxGeometry x="277" y="1948" width="113" height="58" as="geometry" />
        </mxCell>
        <mxCell id="tFzAAHaU8S95K_Trg-Dz-776" value="&lt;font style=&quot;font-size: 20px;&quot;&gt;&lt;b style=&quot;&quot;&gt;Sub-Image Parallelism&lt;/b&gt;&lt;font style=&quot;font-size: 20px;&quot;&gt;&lt;br&gt;&lt;/font&gt;&lt;/font&gt;" style="rounded=0;whiteSpace=wrap;html=1;fillColor=none;fontColor=#000000;strokeColor=#FFFFFF;" vertex="1" parent="1">
          <mxGeometry x="91" y="1259" width="110.5" height="60" as="geometry" />
        </mxCell>
        <mxCell id="tFzAAHaU8S95K_Trg-Dz-777" value="&lt;font style=&quot;font-size: 18px;&quot;&gt;&lt;b&gt;Data Decomposition&lt;br&gt;&lt;/b&gt;&lt;/font&gt;" style="rounded=0;whiteSpace=wrap;html=1;fillColor=none;fontColor=#000000;strokeColor=#FFFFFF;" vertex="1" parent="1">
          <mxGeometry x="39" y="2047" width="129" height="36" as="geometry" />
        </mxCell>
        <mxCell id="tFzAAHaU8S95K_Trg-Dz-778" value="&lt;div&gt;Th1&lt;/div&gt;" style="ellipse;whiteSpace=wrap;html=1;aspect=fixed;fillColor=none;strokeColor=#000000;fontColor=#000000;labelBackgroundColor=none;" vertex="1" parent="1">
          <mxGeometry x="389.5" y="1958.5" width="37" height="37" as="geometry" />
        </mxCell>
        <mxCell id="tFzAAHaU8S95K_Trg-Dz-779" value="" style="endArrow=classic;html=1;rounded=0;strokeColor=#000000;exitX=0.5;exitY=1;exitDx=0;exitDy=0;entryX=0.5;entryY=0;entryDx=0;entryDy=0;" edge="1" parent="1" target="tFzAAHaU8S95K_Trg-Dz-778">
          <mxGeometry width="50" height="50" relative="1" as="geometry">
            <mxPoint x="516.5" y="1912.5" as="sourcePoint" />
            <mxPoint x="390.5" y="1936.5" as="targetPoint" />
          </mxGeometry>
        </mxCell>
        <mxCell id="tFzAAHaU8S95K_Trg-Dz-780" value="&lt;div&gt;Th2&lt;/div&gt;" style="ellipse;whiteSpace=wrap;html=1;aspect=fixed;fillColor=none;strokeColor=#000000;fontColor=#000000;labelBackgroundColor=none;" vertex="1" parent="1">
          <mxGeometry x="467.5" y="1958.5" width="37" height="37" as="geometry" />
        </mxCell>
        <mxCell id="tFzAAHaU8S95K_Trg-Dz-781" value="" style="endArrow=classic;html=1;rounded=0;strokeColor=#000000;exitX=0.5;exitY=1;exitDx=0;exitDy=0;entryX=0.5;entryY=0;entryDx=0;entryDy=0;" edge="1" parent="1" target="tFzAAHaU8S95K_Trg-Dz-780">
          <mxGeometry width="50" height="50" relative="1" as="geometry">
            <mxPoint x="516.5" y="1912.5" as="sourcePoint" />
            <mxPoint x="432.5" y="1950.5" as="targetPoint" />
          </mxGeometry>
        </mxCell>
        <mxCell id="tFzAAHaU8S95K_Trg-Dz-782" value="&lt;div&gt;ThN&lt;/div&gt;" style="ellipse;whiteSpace=wrap;html=1;aspect=fixed;fillColor=none;strokeColor=#000000;fontColor=#000000;labelBackgroundColor=none;" vertex="1" parent="1">
          <mxGeometry x="601.5" y="1958.5" width="37" height="37" as="geometry" />
        </mxCell>
        <mxCell id="tFzAAHaU8S95K_Trg-Dz-783" value="" style="endArrow=classic;html=1;rounded=0;strokeColor=#000000;exitX=0.5;exitY=1;exitDx=0;exitDy=0;entryX=0.5;entryY=0;entryDx=0;entryDy=0;" edge="1" parent="1" target="tFzAAHaU8S95K_Trg-Dz-782">
          <mxGeometry width="50" height="50" relative="1" as="geometry">
            <mxPoint x="516.5" y="1912.5" as="sourcePoint" />
            <mxPoint x="496.5" y="1950.5" as="targetPoint" />
          </mxGeometry>
        </mxCell>
        <mxCell id="tFzAAHaU8S95K_Trg-Dz-784" value="" style="endArrow=none;dashed=1;html=1;dashPattern=1 3;strokeWidth=2;rounded=0;strokeColor=#000000;exitX=1;exitY=0.5;exitDx=0;exitDy=0;entryX=0;entryY=0.5;entryDx=0;entryDy=0;fontColor=#000000;" edge="1" parent="1" source="tFzAAHaU8S95K_Trg-Dz-780" target="tFzAAHaU8S95K_Trg-Dz-782">
          <mxGeometry width="50" height="50" relative="1" as="geometry">
            <mxPoint x="517.5" y="2212.5" as="sourcePoint" />
            <mxPoint x="567.5" y="2162.5" as="targetPoint" />
          </mxGeometry>
        </mxCell>
        <mxCell id="tFzAAHaU8S95K_Trg-Dz-785" value="&lt;div&gt;MS&lt;/div&gt;" style="ellipse;whiteSpace=wrap;html=1;aspect=fixed;fontColor=#FFFFFF;fillColor=#000000;" vertex="1" parent="1">
          <mxGeometry x="494.5" y="2027.5" width="49" height="49" as="geometry" />
        </mxCell>
        <mxCell id="tFzAAHaU8S95K_Trg-Dz-786" value="" style="endArrow=classic;html=1;rounded=0;strokeColor=#000000;exitX=0.5;exitY=1;exitDx=0;exitDy=0;entryX=0.5;entryY=0;entryDx=0;entryDy=0;" edge="1" parent="1" source="tFzAAHaU8S95K_Trg-Dz-778" target="tFzAAHaU8S95K_Trg-Dz-785">
          <mxGeometry width="50" height="50" relative="1" as="geometry">
            <mxPoint x="529.5" y="1921.5" as="sourcePoint" />
            <mxPoint x="432.5" y="1950.5" as="targetPoint" />
          </mxGeometry>
        </mxCell>
        <mxCell id="tFzAAHaU8S95K_Trg-Dz-787" value="" style="endArrow=classic;html=1;rounded=0;strokeColor=#000000;exitX=0.5;exitY=1;exitDx=0;exitDy=0;entryX=0.5;entryY=0;entryDx=0;entryDy=0;" edge="1" parent="1" source="tFzAAHaU8S95K_Trg-Dz-780" target="tFzAAHaU8S95K_Trg-Dz-785">
          <mxGeometry width="50" height="50" relative="1" as="geometry">
            <mxPoint x="432.5" y="1987.5" as="sourcePoint" />
            <mxPoint x="529.5" y="2029.5" as="targetPoint" />
          </mxGeometry>
        </mxCell>
        <mxCell id="tFzAAHaU8S95K_Trg-Dz-788" value="" style="endArrow=classic;html=1;rounded=0;strokeColor=#000000;exitX=0.5;exitY=1;exitDx=0;exitDy=0;entryX=0.5;entryY=0;entryDx=0;entryDy=0;" edge="1" parent="1" source="tFzAAHaU8S95K_Trg-Dz-782" target="tFzAAHaU8S95K_Trg-Dz-785">
          <mxGeometry width="50" height="50" relative="1" as="geometry">
            <mxPoint x="496.5" y="1987.5" as="sourcePoint" />
            <mxPoint x="529.5" y="2029.5" as="targetPoint" />
          </mxGeometry>
        </mxCell>
        <mxCell id="tFzAAHaU8S95K_Trg-Dz-789" value="sub-img1" style="rounded=0;whiteSpace=wrap;html=1;fillColor=none;fontColor=#000000;strokeColor=#FFFFFF;" vertex="1" parent="1">
          <mxGeometry x="421.5" y="1955.5" width="58" height="0.5" as="geometry" />
        </mxCell>
        <mxCell id="tFzAAHaU8S95K_Trg-Dz-790" value="sub-imgN" style="rounded=0;whiteSpace=wrap;html=1;fillColor=none;fontColor=#000000;strokeColor=#FFFFFF;" vertex="1" parent="1">
          <mxGeometry x="635.5" y="1958" width="63" height="3.75" as="geometry" />
        </mxCell>
        <mxCell id="tFzAAHaU8S95K_Trg-Dz-791" value="sub-img2" style="rounded=0;whiteSpace=wrap;html=1;fillColor=none;fontColor=#000000;strokeColor=#FFFFFF;" vertex="1" parent="1">
          <mxGeometry x="499.5" y="1953.5" width="59.5" height="4.5" as="geometry" />
        </mxCell>
        <mxCell id="tFzAAHaU8S95K_Trg-Dz-793" value="&lt;div&gt;Th1&lt;/div&gt;" style="ellipse;whiteSpace=wrap;html=1;aspect=fixed;fillColor=none;strokeColor=#000000;fontColor=#000000;labelBackgroundColor=none;" vertex="1" parent="1">
          <mxGeometry x="194" y="1497" width="37" height="37" as="geometry" />
        </mxCell>
        <mxCell id="tFzAAHaU8S95K_Trg-Dz-794" value="" style="endArrow=classic;html=1;rounded=0;strokeColor=#000000;exitX=0.5;exitY=1;exitDx=0;exitDy=0;entryX=0.5;entryY=0;entryDx=0;entryDy=0;" edge="1" parent="1" target="tFzAAHaU8S95K_Trg-Dz-793">
          <mxGeometry width="50" height="50" relative="1" as="geometry">
            <mxPoint x="321" y="1469" as="sourcePoint" />
            <mxPoint x="195" y="1493" as="targetPoint" />
          </mxGeometry>
        </mxCell>
        <mxCell id="tFzAAHaU8S95K_Trg-Dz-795" value="&lt;div&gt;Th2&lt;/div&gt;" style="ellipse;whiteSpace=wrap;html=1;aspect=fixed;fillColor=none;strokeColor=#000000;fontColor=#000000;labelBackgroundColor=none;" vertex="1" parent="1">
          <mxGeometry x="272" y="1497" width="37" height="37" as="geometry" />
        </mxCell>
        <mxCell id="tFzAAHaU8S95K_Trg-Dz-796" value="" style="endArrow=classic;html=1;rounded=0;strokeColor=#000000;exitX=0.5;exitY=1;exitDx=0;exitDy=0;entryX=0.5;entryY=0;entryDx=0;entryDy=0;" edge="1" parent="1" target="tFzAAHaU8S95K_Trg-Dz-795">
          <mxGeometry width="50" height="50" relative="1" as="geometry">
            <mxPoint x="321" y="1469" as="sourcePoint" />
            <mxPoint x="237" y="1507" as="targetPoint" />
          </mxGeometry>
        </mxCell>
        <mxCell id="tFzAAHaU8S95K_Trg-Dz-797" value="&lt;div&gt;ThN&lt;/div&gt;" style="ellipse;whiteSpace=wrap;html=1;aspect=fixed;fillColor=none;strokeColor=#000000;fontColor=#000000;labelBackgroundColor=none;" vertex="1" parent="1">
          <mxGeometry x="406" y="1497" width="37" height="37" as="geometry" />
        </mxCell>
        <mxCell id="tFzAAHaU8S95K_Trg-Dz-798" value="" style="endArrow=classic;html=1;rounded=0;strokeColor=#000000;exitX=0.5;exitY=1;exitDx=0;exitDy=0;entryX=0.5;entryY=0;entryDx=0;entryDy=0;" edge="1" parent="1" target="tFzAAHaU8S95K_Trg-Dz-797">
          <mxGeometry width="50" height="50" relative="1" as="geometry">
            <mxPoint x="321" y="1469" as="sourcePoint" />
            <mxPoint x="301" y="1507" as="targetPoint" />
          </mxGeometry>
        </mxCell>
        <mxCell id="tFzAAHaU8S95K_Trg-Dz-799" value="" style="endArrow=none;dashed=1;html=1;dashPattern=1 3;strokeWidth=2;rounded=0;strokeColor=#000000;exitX=1;exitY=0.5;exitDx=0;exitDy=0;entryX=0;entryY=0.5;entryDx=0;entryDy=0;fontColor=#000000;" edge="1" parent="1" source="tFzAAHaU8S95K_Trg-Dz-795" target="tFzAAHaU8S95K_Trg-Dz-797">
          <mxGeometry width="50" height="50" relative="1" as="geometry">
            <mxPoint x="322" y="1769" as="sourcePoint" />
            <mxPoint x="372" y="1719" as="targetPoint" />
          </mxGeometry>
        </mxCell>
        <mxCell id="tFzAAHaU8S95K_Trg-Dz-800" value="&lt;div&gt;MS&lt;/div&gt;" style="ellipse;whiteSpace=wrap;html=1;aspect=fixed;fillColor=#000000;fontColor=#FFFFFF;" vertex="1" parent="1">
          <mxGeometry x="296.5" y="1563" width="49" height="49" as="geometry" />
        </mxCell>
        <mxCell id="tFzAAHaU8S95K_Trg-Dz-801" value="" style="endArrow=classic;html=1;rounded=0;strokeColor=#000000;exitX=0.5;exitY=1;exitDx=0;exitDy=0;entryX=0.5;entryY=0;entryDx=0;entryDy=0;" edge="1" parent="1" source="tFzAAHaU8S95K_Trg-Dz-793" target="tFzAAHaU8S95K_Trg-Dz-800">
          <mxGeometry width="50" height="50" relative="1" as="geometry">
            <mxPoint x="334" y="1478" as="sourcePoint" />
            <mxPoint x="237" y="1507" as="targetPoint" />
          </mxGeometry>
        </mxCell>
        <mxCell id="tFzAAHaU8S95K_Trg-Dz-802" value="" style="endArrow=classic;html=1;rounded=0;strokeColor=#000000;exitX=0.5;exitY=1;exitDx=0;exitDy=0;entryX=0.5;entryY=0;entryDx=0;entryDy=0;" edge="1" parent="1" source="tFzAAHaU8S95K_Trg-Dz-795" target="tFzAAHaU8S95K_Trg-Dz-800">
          <mxGeometry width="50" height="50" relative="1" as="geometry">
            <mxPoint x="237" y="1544" as="sourcePoint" />
            <mxPoint x="334" y="1586" as="targetPoint" />
          </mxGeometry>
        </mxCell>
        <mxCell id="tFzAAHaU8S95K_Trg-Dz-803" value="" style="endArrow=classic;html=1;rounded=0;strokeColor=#000000;exitX=0.5;exitY=1;exitDx=0;exitDy=0;entryX=0.5;entryY=0;entryDx=0;entryDy=0;" edge="1" parent="1" source="tFzAAHaU8S95K_Trg-Dz-797" target="tFzAAHaU8S95K_Trg-Dz-800">
          <mxGeometry width="50" height="50" relative="1" as="geometry">
            <mxPoint x="301" y="1544" as="sourcePoint" />
            <mxPoint x="334" y="1586" as="targetPoint" />
          </mxGeometry>
        </mxCell>
        <mxCell id="tFzAAHaU8S95K_Trg-Dz-804" value="sub-img1" style="rounded=0;whiteSpace=wrap;html=1;fillColor=none;fontColor=#000000;strokeColor=#FFFFFF;" vertex="1" parent="1">
          <mxGeometry x="224" y="1497.38" width="57" height="0.5" as="geometry" />
        </mxCell>
        <mxCell id="tFzAAHaU8S95K_Trg-Dz-805" value="sub-img N" style="rounded=0;whiteSpace=wrap;html=1;fillColor=none;fontColor=#000000;strokeColor=#FFFFFF;" vertex="1" parent="1">
          <mxGeometry x="440" y="1495.75" width="63" height="3.75" as="geometry" />
        </mxCell>
        <mxCell id="tFzAAHaU8S95K_Trg-Dz-806" value="sub-img2" style="rounded=0;whiteSpace=wrap;html=1;fillColor=none;fontColor=#000000;strokeColor=#FFFFFF;" vertex="1" parent="1">
          <mxGeometry x="301.5" y="1495" width="56.5" height="4.5" as="geometry" />
        </mxCell>
        <mxCell id="tFzAAHaU8S95K_Trg-Dz-807" value="&lt;div&gt;Th1&lt;/div&gt;" style="ellipse;whiteSpace=wrap;html=1;aspect=fixed;fillColor=none;strokeColor=#000000;fontColor=#000000;labelBackgroundColor=none;" vertex="1" parent="1">
          <mxGeometry x="194" y="1640" width="37" height="37" as="geometry" />
        </mxCell>
        <mxCell id="tFzAAHaU8S95K_Trg-Dz-808" value="" style="endArrow=classic;html=1;rounded=0;strokeColor=#000000;exitX=0.5;exitY=1;exitDx=0;exitDy=0;entryX=0.5;entryY=0;entryDx=0;entryDy=0;" edge="1" parent="1" target="tFzAAHaU8S95K_Trg-Dz-807">
          <mxGeometry width="50" height="50" relative="1" as="geometry">
            <mxPoint x="321" y="1612" as="sourcePoint" />
            <mxPoint x="195" y="1636" as="targetPoint" />
          </mxGeometry>
        </mxCell>
        <mxCell id="tFzAAHaU8S95K_Trg-Dz-809" value="&lt;div&gt;Th2&lt;/div&gt;" style="ellipse;whiteSpace=wrap;html=1;aspect=fixed;fillColor=none;strokeColor=#000000;fontColor=#000000;labelBackgroundColor=none;" vertex="1" parent="1">
          <mxGeometry x="272" y="1640" width="37" height="37" as="geometry" />
        </mxCell>
        <mxCell id="tFzAAHaU8S95K_Trg-Dz-810" value="" style="endArrow=classic;html=1;rounded=0;strokeColor=#000000;exitX=0.5;exitY=1;exitDx=0;exitDy=0;entryX=0.5;entryY=0;entryDx=0;entryDy=0;" edge="1" parent="1" target="tFzAAHaU8S95K_Trg-Dz-809">
          <mxGeometry width="50" height="50" relative="1" as="geometry">
            <mxPoint x="321" y="1612" as="sourcePoint" />
            <mxPoint x="237" y="1650" as="targetPoint" />
          </mxGeometry>
        </mxCell>
        <mxCell id="tFzAAHaU8S95K_Trg-Dz-811" value="&lt;div&gt;ThN&lt;/div&gt;" style="ellipse;whiteSpace=wrap;html=1;aspect=fixed;fillColor=none;strokeColor=#000000;fontColor=#000000;labelBackgroundColor=none;" vertex="1" parent="1">
          <mxGeometry x="406" y="1640" width="37" height="37" as="geometry" />
        </mxCell>
        <mxCell id="tFzAAHaU8S95K_Trg-Dz-812" value="" style="endArrow=classic;html=1;rounded=0;strokeColor=#000000;exitX=0.5;exitY=1;exitDx=0;exitDy=0;entryX=0.5;entryY=0;entryDx=0;entryDy=0;" edge="1" parent="1" target="tFzAAHaU8S95K_Trg-Dz-811">
          <mxGeometry width="50" height="50" relative="1" as="geometry">
            <mxPoint x="321" y="1612" as="sourcePoint" />
            <mxPoint x="301" y="1650" as="targetPoint" />
          </mxGeometry>
        </mxCell>
        <mxCell id="tFzAAHaU8S95K_Trg-Dz-813" value="" style="endArrow=none;dashed=1;html=1;dashPattern=1 3;strokeWidth=2;rounded=0;strokeColor=#000000;exitX=1;exitY=0.5;exitDx=0;exitDy=0;entryX=0;entryY=0.5;entryDx=0;entryDy=0;fontColor=#000000;" edge="1" parent="1" source="tFzAAHaU8S95K_Trg-Dz-809" target="tFzAAHaU8S95K_Trg-Dz-811">
          <mxGeometry width="50" height="50" relative="1" as="geometry">
            <mxPoint x="322" y="1912" as="sourcePoint" />
            <mxPoint x="372" y="1862" as="targetPoint" />
          </mxGeometry>
        </mxCell>
        <mxCell id="tFzAAHaU8S95K_Trg-Dz-814" value="&lt;div&gt;MS&lt;/div&gt;" style="ellipse;whiteSpace=wrap;html=1;aspect=fixed;fillColor=#000000;fontColor=#FFFFFF;" vertex="1" parent="1">
          <mxGeometry x="296.5" y="1706" width="49" height="49" as="geometry" />
        </mxCell>
        <mxCell id="tFzAAHaU8S95K_Trg-Dz-815" value="" style="endArrow=classic;html=1;rounded=0;strokeColor=#000000;exitX=0.5;exitY=1;exitDx=0;exitDy=0;entryX=0.5;entryY=0;entryDx=0;entryDy=0;" edge="1" parent="1" source="tFzAAHaU8S95K_Trg-Dz-807" target="tFzAAHaU8S95K_Trg-Dz-814">
          <mxGeometry width="50" height="50" relative="1" as="geometry">
            <mxPoint x="334" y="1621" as="sourcePoint" />
            <mxPoint x="237" y="1650" as="targetPoint" />
          </mxGeometry>
        </mxCell>
        <mxCell id="tFzAAHaU8S95K_Trg-Dz-816" value="" style="endArrow=classic;html=1;rounded=0;strokeColor=#000000;exitX=0.5;exitY=1;exitDx=0;exitDy=0;entryX=0.5;entryY=0;entryDx=0;entryDy=0;" edge="1" parent="1" source="tFzAAHaU8S95K_Trg-Dz-809" target="tFzAAHaU8S95K_Trg-Dz-814">
          <mxGeometry width="50" height="50" relative="1" as="geometry">
            <mxPoint x="237" y="1687" as="sourcePoint" />
            <mxPoint x="334" y="1729" as="targetPoint" />
          </mxGeometry>
        </mxCell>
        <mxCell id="tFzAAHaU8S95K_Trg-Dz-817" value="" style="endArrow=classic;html=1;rounded=0;strokeColor=#000000;exitX=0.5;exitY=1;exitDx=0;exitDy=0;entryX=0.5;entryY=0;entryDx=0;entryDy=0;" edge="1" parent="1" source="tFzAAHaU8S95K_Trg-Dz-811" target="tFzAAHaU8S95K_Trg-Dz-814">
          <mxGeometry width="50" height="50" relative="1" as="geometry">
            <mxPoint x="301" y="1687" as="sourcePoint" />
            <mxPoint x="334" y="1729" as="targetPoint" />
          </mxGeometry>
        </mxCell>
        <mxCell id="tFzAAHaU8S95K_Trg-Dz-818" value="sub-img1" style="rounded=0;whiteSpace=wrap;html=1;fillColor=none;fontColor=#000000;strokeColor=#FFFFFF;" vertex="1" parent="1">
          <mxGeometry x="224" y="1640.38" width="57" height="0.5" as="geometry" />
        </mxCell>
        <mxCell id="tFzAAHaU8S95K_Trg-Dz-819" value="sub-img N" style="rounded=0;whiteSpace=wrap;html=1;fillColor=none;fontColor=#000000;strokeColor=#FFFFFF;" vertex="1" parent="1">
          <mxGeometry x="440" y="1638.75" width="63" height="3.75" as="geometry" />
        </mxCell>
        <mxCell id="tFzAAHaU8S95K_Trg-Dz-820" value="sub-img2" style="rounded=0;whiteSpace=wrap;html=1;fillColor=none;fontColor=#000000;strokeColor=#FFFFFF;" vertex="1" parent="1">
          <mxGeometry x="301.5" y="1638" width="56.5" height="4.5" as="geometry" />
        </mxCell>
        <mxCell id="tFzAAHaU8S95K_Trg-Dz-821" value="&lt;div&gt;Th1&lt;/div&gt;" style="ellipse;whiteSpace=wrap;html=1;aspect=fixed;fillColor=none;strokeColor=#000000;fontColor=#000000;labelBackgroundColor=none;" vertex="1" parent="1">
          <mxGeometry x="194" y="1783" width="37" height="37" as="geometry" />
        </mxCell>
        <mxCell id="tFzAAHaU8S95K_Trg-Dz-822" value="" style="endArrow=classic;html=1;rounded=0;strokeColor=#000000;exitX=0.5;exitY=1;exitDx=0;exitDy=0;entryX=0.5;entryY=0;entryDx=0;entryDy=0;" edge="1" parent="1" target="tFzAAHaU8S95K_Trg-Dz-821">
          <mxGeometry width="50" height="50" relative="1" as="geometry">
            <mxPoint x="321" y="1755" as="sourcePoint" />
            <mxPoint x="195" y="1779" as="targetPoint" />
          </mxGeometry>
        </mxCell>
        <mxCell id="tFzAAHaU8S95K_Trg-Dz-823" value="&lt;div&gt;Th2&lt;/div&gt;" style="ellipse;whiteSpace=wrap;html=1;aspect=fixed;fillColor=none;strokeColor=#000000;fontColor=#000000;labelBackgroundColor=none;" vertex="1" parent="1">
          <mxGeometry x="272" y="1783" width="37" height="37" as="geometry" />
        </mxCell>
        <mxCell id="tFzAAHaU8S95K_Trg-Dz-824" value="" style="endArrow=classic;html=1;rounded=0;strokeColor=#000000;exitX=0.5;exitY=1;exitDx=0;exitDy=0;entryX=0.5;entryY=0;entryDx=0;entryDy=0;" edge="1" parent="1" target="tFzAAHaU8S95K_Trg-Dz-823">
          <mxGeometry width="50" height="50" relative="1" as="geometry">
            <mxPoint x="321" y="1755" as="sourcePoint" />
            <mxPoint x="237" y="1793" as="targetPoint" />
          </mxGeometry>
        </mxCell>
        <mxCell id="tFzAAHaU8S95K_Trg-Dz-825" value="&lt;div&gt;ThN&lt;/div&gt;" style="ellipse;whiteSpace=wrap;html=1;aspect=fixed;fillColor=none;strokeColor=#000000;fontColor=#000000;labelBackgroundColor=none;" vertex="1" parent="1">
          <mxGeometry x="406" y="1783" width="37" height="37" as="geometry" />
        </mxCell>
        <mxCell id="tFzAAHaU8S95K_Trg-Dz-826" value="" style="endArrow=classic;html=1;rounded=0;strokeColor=#000000;exitX=0.5;exitY=1;exitDx=0;exitDy=0;entryX=0.5;entryY=0;entryDx=0;entryDy=0;" edge="1" parent="1" target="tFzAAHaU8S95K_Trg-Dz-825">
          <mxGeometry width="50" height="50" relative="1" as="geometry">
            <mxPoint x="321" y="1755" as="sourcePoint" />
            <mxPoint x="301" y="1793" as="targetPoint" />
          </mxGeometry>
        </mxCell>
        <mxCell id="tFzAAHaU8S95K_Trg-Dz-827" value="" style="endArrow=none;dashed=1;html=1;dashPattern=1 3;strokeWidth=2;rounded=0;strokeColor=#000000;exitX=1;exitY=0.5;exitDx=0;exitDy=0;entryX=0;entryY=0.5;entryDx=0;entryDy=0;fontColor=#000000;" edge="1" parent="1" source="tFzAAHaU8S95K_Trg-Dz-823" target="tFzAAHaU8S95K_Trg-Dz-825">
          <mxGeometry width="50" height="50" relative="1" as="geometry">
            <mxPoint x="322" y="2055" as="sourcePoint" />
            <mxPoint x="372" y="2005" as="targetPoint" />
          </mxGeometry>
        </mxCell>
        <mxCell id="tFzAAHaU8S95K_Trg-Dz-828" value="&lt;div&gt;MS&lt;/div&gt;" style="ellipse;whiteSpace=wrap;html=1;aspect=fixed;fillColor=#000000;fontColor=#FFFFFF;" vertex="1" parent="1">
          <mxGeometry x="296.5" y="1849" width="49" height="49" as="geometry" />
        </mxCell>
        <mxCell id="tFzAAHaU8S95K_Trg-Dz-829" value="" style="endArrow=classic;html=1;rounded=0;strokeColor=#000000;exitX=0.5;exitY=1;exitDx=0;exitDy=0;entryX=0.5;entryY=0;entryDx=0;entryDy=0;" edge="1" parent="1" source="tFzAAHaU8S95K_Trg-Dz-821" target="tFzAAHaU8S95K_Trg-Dz-828">
          <mxGeometry width="50" height="50" relative="1" as="geometry">
            <mxPoint x="334" y="1764" as="sourcePoint" />
            <mxPoint x="237" y="1793" as="targetPoint" />
          </mxGeometry>
        </mxCell>
        <mxCell id="tFzAAHaU8S95K_Trg-Dz-830" value="" style="endArrow=classic;html=1;rounded=0;strokeColor=#000000;exitX=0.5;exitY=1;exitDx=0;exitDy=0;entryX=0.5;entryY=0;entryDx=0;entryDy=0;" edge="1" parent="1" source="tFzAAHaU8S95K_Trg-Dz-823" target="tFzAAHaU8S95K_Trg-Dz-828">
          <mxGeometry width="50" height="50" relative="1" as="geometry">
            <mxPoint x="237" y="1830" as="sourcePoint" />
            <mxPoint x="334" y="1872" as="targetPoint" />
          </mxGeometry>
        </mxCell>
        <mxCell id="tFzAAHaU8S95K_Trg-Dz-831" value="" style="endArrow=classic;html=1;rounded=0;strokeColor=#000000;exitX=0.5;exitY=1;exitDx=0;exitDy=0;entryX=0.5;entryY=0;entryDx=0;entryDy=0;" edge="1" parent="1" source="tFzAAHaU8S95K_Trg-Dz-825" target="tFzAAHaU8S95K_Trg-Dz-828">
          <mxGeometry width="50" height="50" relative="1" as="geometry">
            <mxPoint x="301" y="1830" as="sourcePoint" />
            <mxPoint x="334" y="1872" as="targetPoint" />
          </mxGeometry>
        </mxCell>
        <mxCell id="tFzAAHaU8S95K_Trg-Dz-832" value="sub-img1" style="rounded=0;whiteSpace=wrap;html=1;fillColor=none;fontColor=#000000;strokeColor=#FFFFFF;" vertex="1" parent="1">
          <mxGeometry x="224" y="1783.38" width="57" height="0.5" as="geometry" />
        </mxCell>
        <mxCell id="tFzAAHaU8S95K_Trg-Dz-833" value="sub-img N" style="rounded=0;whiteSpace=wrap;html=1;fillColor=none;fontColor=#000000;strokeColor=#FFFFFF;" vertex="1" parent="1">
          <mxGeometry x="440" y="1781.75" width="63" height="3.75" as="geometry" />
        </mxCell>
        <mxCell id="tFzAAHaU8S95K_Trg-Dz-834" value="sub-img2" style="rounded=0;whiteSpace=wrap;html=1;fillColor=none;fontColor=#000000;strokeColor=#FFFFFF;" vertex="1" parent="1">
          <mxGeometry x="301.5" y="1781" width="56.5" height="4.5" as="geometry" />
        </mxCell>
      </root>
    </mxGraphModel>
  </diagram>
</mxfile>
